M48
;GenerationSoftware,Autodesk,EAGLE,9.7.0*%
;CreationDate,2026-08-26T04:50:54Z*%
FMAT,2
ICI,OFF
METRIC,TZ,000.000
T6C0.600
T5C0.660
T4C0.800
T3C0.981
T2C1.000
T1C1.600
%
G90
M71
T1
X12573Y8439
T2
X12700Y27940
T3
X5842Y26416
X5842Y23876
X19431Y26416
X19431Y23876
T4
X15570Y10160
X16840Y12065
X18110Y10160
X9962Y11049
X8692Y9144
X7422Y11049
T5
X4191Y14160
X4191Y21400
X10160Y20510
X10160Y27750
X15240Y20510
X15240Y27750
X21209Y14594
X21209Y21834
T6
X7640Y16510
X10140Y16510
X17760Y16510
X15260Y16510
M30