M48
;GenerationSoftware,Autodesk,EAGLE,9.7.0*%
;CreationDate,2026-08-21T05:50:36Z*%
FMAT,2
ICI,OFF
METRIC,TZ,000.000
T6C0.660
T5C0.850
T4C0.981
T3C1.000
T2C1.600
T1C3.000
%
G90
M71
T1
X5000Y35000
X5000Y5000
X45000Y5000
X45000Y35000
T2
X27940Y16186
T3
X20320Y33020
T4
X17780Y29210
X17780Y26670
X24130Y35560
X26670Y35560
T5
X20240Y7300
X20240Y12380
X28881Y29210
X33961Y29210
T6
X33020Y17450
X34290Y16180
X33020Y14910
X22860Y16510
X21590Y17780
X22860Y19050
X17780Y15430
X17780Y22670
X22860Y21780
X22860Y29020
X32830Y22860
X25590Y22860
X29400Y20320
X36640Y20320
M30