G04 EAGLE Gerber RS-274X export*
G75*
%MOMM*%
%FSLAX34Y34*%
%LPD*%
%IN*%
%IPPOS*%
%AMOC8*
5,1,8,0,0,1.08239X$1,22.5*%
G01*
G04 Define Apertures*
%ADD10C,0.254000*%
D10*
X19050Y46190D02*
X19750Y41577D01*
X20850Y37043D01*
X22341Y32622D01*
X24212Y28348D01*
X26447Y24253D01*
X29032Y20368D01*
X31945Y16724D01*
X35164Y13347D01*
X38666Y10263D01*
X42423Y7497D01*
X46407Y5069D01*
X50587Y2997D01*
X54932Y1297D01*
X59408Y-18D01*
X63983Y-937D01*
X68619Y-1455D01*
X73284Y-1566D01*
X77940Y-1270D01*
X198540Y-1270D01*
X202219Y-777D01*
X205841Y35D01*
X209379Y1160D01*
X212805Y2589D01*
X216094Y4311D01*
X219220Y6313D01*
X222159Y8580D01*
X224890Y11094D01*
X227391Y13837D01*
X229644Y16787D01*
X231631Y19923D01*
X233337Y23220D01*
X234750Y26652D01*
X235857Y30195D01*
X236652Y33821D01*
X237128Y37503D01*
X237281Y41212D01*
X237110Y44920D01*
X237110Y256020D01*
X237108Y259887D01*
X236768Y263739D01*
X236094Y267547D01*
X235091Y271281D01*
X233766Y274914D01*
X232129Y278418D01*
X230194Y281765D01*
X227974Y284932D01*
X225486Y287892D01*
X222750Y290625D01*
X219786Y293109D01*
X216617Y295324D01*
X213267Y297256D01*
X209761Y298888D01*
X206127Y300208D01*
X202391Y301206D01*
X198582Y301875D01*
X194730Y302210D01*
X74130Y302210D01*
X69753Y302463D01*
X65370Y302333D01*
X61016Y301821D01*
X56723Y300932D01*
X52523Y299672D01*
X48449Y298051D01*
X44532Y296081D01*
X40802Y293778D01*
X37287Y291157D01*
X34013Y288241D01*
X31006Y285050D01*
X28289Y281609D01*
X25882Y277945D01*
X23803Y274085D01*
X22069Y270058D01*
X20692Y265895D01*
X19683Y261628D01*
X19050Y257290D01*
X19050Y46190D01*
M02*
