G04 EAGLE Gerber RS-274X export*
G75*
%MOMM*%
%FSLAX34Y34*%
%LPD*%
%INSilkscreen Top*%
%IPPOS*%
%AMOC8*
5,1,8,0,0,1.08239X$1,22.5*%
G01*
G04 Define Apertures*
%ADD10C,0.120000*%
%ADD11C,0.152400*%
%ADD12C,0.127000*%
%ADD13C,0.200000*%
G36*
X47476Y240193D02*
X35135Y240193D01*
X35135Y244274D01*
X35141Y244661D01*
X35160Y245036D01*
X35191Y245400D01*
X35234Y245752D01*
X35289Y246094D01*
X35356Y246424D01*
X35436Y246744D01*
X35528Y247052D01*
X35633Y247349D01*
X35749Y247634D01*
X35878Y247909D01*
X36020Y248172D01*
X36173Y248424D01*
X36339Y248665D01*
X36517Y248895D01*
X36707Y249113D01*
X36909Y249320D01*
X37121Y249513D01*
X37344Y249692D01*
X37576Y249859D01*
X37820Y250012D01*
X38073Y250151D01*
X38337Y250278D01*
X38611Y250391D01*
X38896Y250491D01*
X39191Y250577D01*
X39496Y250650D01*
X39812Y250710D01*
X40138Y250757D01*
X40475Y250790D01*
X40821Y250810D01*
X41179Y250817D01*
X41649Y250805D01*
X42103Y250770D01*
X42544Y250712D01*
X42969Y250631D01*
X43379Y250526D01*
X43774Y250398D01*
X44155Y250247D01*
X44520Y250072D01*
X44868Y249876D01*
X45194Y249661D01*
X45500Y249427D01*
X45785Y249172D01*
X46048Y248899D01*
X46291Y248606D01*
X46513Y248293D01*
X46714Y247962D01*
X46893Y247613D01*
X47047Y247252D01*
X47178Y246878D01*
X47286Y246490D01*
X47369Y246089D01*
X47428Y245676D01*
X47464Y245249D01*
X47476Y244808D01*
X47476Y240193D01*
G37*
%LPC*%
G36*
X46136Y241866D02*
X46136Y244616D01*
X46127Y244950D01*
X46099Y245274D01*
X46052Y245588D01*
X45987Y245891D01*
X45903Y246184D01*
X45801Y246467D01*
X45680Y246740D01*
X45540Y247002D01*
X45383Y247252D01*
X45210Y247487D01*
X45020Y247707D01*
X44813Y247912D01*
X44591Y248102D01*
X44351Y248278D01*
X44096Y248438D01*
X43824Y248583D01*
X43537Y248713D01*
X43238Y248825D01*
X42926Y248920D01*
X42602Y248997D01*
X42265Y249058D01*
X41915Y249101D01*
X41553Y249127D01*
X41179Y249135D01*
X40622Y249116D01*
X40099Y249057D01*
X39611Y248958D01*
X39157Y248821D01*
X38736Y248644D01*
X38350Y248428D01*
X37998Y248173D01*
X37680Y247878D01*
X37397Y247547D01*
X37153Y247180D01*
X36946Y246777D01*
X36776Y246340D01*
X36645Y245868D01*
X36551Y245360D01*
X36494Y244817D01*
X36475Y244239D01*
X36475Y241866D01*
X46136Y241866D01*
G37*
%LPD*%
G36*
X47476Y253056D02*
X46136Y253056D01*
X46136Y256201D01*
X36642Y256201D01*
X38630Y253415D01*
X37141Y253415D01*
X35135Y256332D01*
X35135Y257786D01*
X46136Y257786D01*
X46136Y260790D01*
X47476Y260790D01*
X47476Y253056D01*
G37*
G36*
X218926Y241463D02*
X206585Y241463D01*
X206585Y245544D01*
X206591Y245931D01*
X206610Y246306D01*
X206641Y246670D01*
X206684Y247022D01*
X206739Y247364D01*
X206806Y247694D01*
X206886Y248014D01*
X206978Y248322D01*
X207083Y248619D01*
X207199Y248904D01*
X207328Y249179D01*
X207470Y249442D01*
X207623Y249694D01*
X207789Y249935D01*
X207967Y250165D01*
X208157Y250383D01*
X208359Y250590D01*
X208571Y250783D01*
X208794Y250962D01*
X209026Y251129D01*
X209270Y251282D01*
X209523Y251421D01*
X209787Y251548D01*
X210061Y251661D01*
X210346Y251761D01*
X210641Y251847D01*
X210946Y251920D01*
X211262Y251980D01*
X211588Y252027D01*
X211925Y252060D01*
X212271Y252080D01*
X212629Y252087D01*
X213099Y252075D01*
X213553Y252040D01*
X213994Y251982D01*
X214419Y251901D01*
X214829Y251796D01*
X215224Y251668D01*
X215605Y251517D01*
X215970Y251342D01*
X216318Y251146D01*
X216644Y250931D01*
X216950Y250697D01*
X217235Y250442D01*
X217498Y250169D01*
X217741Y249876D01*
X217963Y249563D01*
X218164Y249232D01*
X218343Y248883D01*
X218497Y248522D01*
X218628Y248148D01*
X218736Y247760D01*
X218819Y247359D01*
X218878Y246946D01*
X218914Y246519D01*
X218926Y246078D01*
X218926Y241463D01*
G37*
%LPC*%
G36*
X217586Y243136D02*
X217586Y245886D01*
X217577Y246220D01*
X217549Y246544D01*
X217502Y246858D01*
X217437Y247161D01*
X217353Y247454D01*
X217251Y247737D01*
X217130Y248010D01*
X216990Y248272D01*
X216833Y248522D01*
X216660Y248757D01*
X216470Y248977D01*
X216263Y249182D01*
X216041Y249372D01*
X215801Y249548D01*
X215546Y249708D01*
X215274Y249853D01*
X214987Y249983D01*
X214688Y250095D01*
X214376Y250190D01*
X214052Y250267D01*
X213715Y250328D01*
X213365Y250371D01*
X213003Y250397D01*
X212629Y250405D01*
X212072Y250386D01*
X211549Y250327D01*
X211061Y250228D01*
X210607Y250091D01*
X210186Y249914D01*
X209800Y249698D01*
X209448Y249443D01*
X209130Y249148D01*
X208847Y248817D01*
X208603Y248450D01*
X208396Y248047D01*
X208226Y247610D01*
X208095Y247138D01*
X208001Y246630D01*
X207944Y246087D01*
X207925Y245509D01*
X207925Y243136D01*
X217586Y243136D01*
G37*
%LPD*%
G36*
X218926Y253862D02*
X217814Y253862D01*
X217316Y254098D01*
X216849Y254358D01*
X216412Y254643D01*
X216005Y254953D01*
X215622Y255279D01*
X215258Y255613D01*
X214913Y255955D01*
X214586Y256306D01*
X213974Y257012D01*
X213408Y257712D01*
X212865Y258374D01*
X212322Y258968D01*
X212047Y259235D01*
X211766Y259475D01*
X211478Y259688D01*
X211183Y259875D01*
X210876Y260026D01*
X210548Y260134D01*
X210201Y260199D01*
X209835Y260221D01*
X209588Y260212D01*
X209355Y260184D01*
X209137Y260137D01*
X208933Y260072D01*
X208743Y259988D01*
X208567Y259886D01*
X208405Y259765D01*
X208258Y259625D01*
X208127Y259469D01*
X208013Y259298D01*
X207917Y259113D01*
X207838Y258914D01*
X207776Y258699D01*
X207733Y258471D01*
X207706Y258228D01*
X207698Y257970D01*
X207706Y257724D01*
X207732Y257488D01*
X207775Y257264D01*
X207834Y257051D01*
X207911Y256849D01*
X208005Y256659D01*
X208117Y256479D01*
X208245Y256310D01*
X208389Y256155D01*
X208546Y256018D01*
X208718Y255897D01*
X208903Y255792D01*
X209102Y255705D01*
X209315Y255634D01*
X209542Y255581D01*
X209782Y255544D01*
X209633Y253932D01*
X209273Y253990D01*
X208931Y254076D01*
X208608Y254191D01*
X208304Y254334D01*
X208019Y254505D01*
X207753Y254705D01*
X207506Y254933D01*
X207277Y255189D01*
X207072Y255469D01*
X206894Y255768D01*
X206743Y256087D01*
X206620Y256425D01*
X206524Y256782D01*
X206456Y257159D01*
X206415Y257555D01*
X206401Y257970D01*
X206415Y258423D01*
X206456Y258849D01*
X206525Y259248D01*
X206621Y259620D01*
X206745Y259965D01*
X206896Y260283D01*
X207075Y260574D01*
X207282Y260838D01*
X207513Y261073D01*
X207768Y261277D01*
X208046Y261449D01*
X208347Y261590D01*
X208671Y261700D01*
X209018Y261778D01*
X209389Y261825D01*
X209782Y261841D01*
X210141Y261821D01*
X210498Y261759D01*
X210854Y261656D01*
X211210Y261513D01*
X211564Y261329D01*
X211919Y261104D01*
X212274Y260840D01*
X212629Y260536D01*
X213032Y260138D01*
X213533Y259592D01*
X214131Y258899D01*
X214827Y258057D01*
X215229Y257580D01*
X215610Y257153D01*
X215971Y256778D01*
X216312Y256455D01*
X216639Y256178D01*
X216961Y255942D01*
X217276Y255749D01*
X217586Y255596D01*
X217586Y262034D01*
X218926Y262034D01*
X218926Y253862D01*
G37*
G36*
X203660Y57150D02*
X201987Y57150D01*
X201987Y69491D01*
X207794Y69491D01*
X208300Y69476D01*
X208777Y69432D01*
X209224Y69360D01*
X209641Y69258D01*
X210028Y69126D01*
X210386Y68966D01*
X210714Y68777D01*
X211013Y68558D01*
X211279Y68313D01*
X211509Y68046D01*
X211704Y67756D01*
X211863Y67442D01*
X211987Y67106D01*
X212076Y66747D01*
X212129Y66366D01*
X212147Y65961D01*
X212134Y65624D01*
X212097Y65301D01*
X212034Y64991D01*
X211947Y64695D01*
X211834Y64413D01*
X211696Y64145D01*
X211533Y63890D01*
X211346Y63649D01*
X211136Y63425D01*
X210907Y63224D01*
X210659Y63043D01*
X210548Y62977D01*
X210392Y62885D01*
X210106Y62748D01*
X209801Y62632D01*
X209477Y62539D01*
X209134Y62466D01*
X210625Y60203D01*
X212637Y57150D01*
X210711Y57150D01*
X207505Y62274D01*
X203660Y62274D01*
X203660Y57150D01*
G37*
%LPC*%
G36*
X207698Y63596D02*
X208019Y63606D01*
X208321Y63635D01*
X208605Y63683D01*
X208870Y63751D01*
X209116Y63837D01*
X209344Y63944D01*
X209553Y64069D01*
X209743Y64214D01*
X209912Y64376D01*
X210059Y64553D01*
X210183Y64746D01*
X210285Y64955D01*
X210364Y65179D01*
X210420Y65418D01*
X210454Y65673D01*
X210465Y65944D01*
X210454Y66205D01*
X210420Y66450D01*
X210362Y66680D01*
X210282Y66893D01*
X210180Y67090D01*
X210054Y67271D01*
X209905Y67437D01*
X209734Y67586D01*
X209541Y67718D01*
X209328Y67833D01*
X209095Y67930D01*
X208842Y68010D01*
X208568Y68071D01*
X208275Y68115D01*
X207961Y68142D01*
X207628Y68151D01*
X203660Y68151D01*
X203660Y63596D01*
X207698Y63596D01*
G37*
%LPD*%
G36*
X195853Y57150D02*
X194189Y57150D01*
X194189Y68124D01*
X189950Y68124D01*
X189950Y69491D01*
X200092Y69491D01*
X200092Y68124D01*
X195853Y68124D01*
X195853Y57150D01*
G37*
G36*
X222585Y57150D02*
X214851Y57150D01*
X214851Y58490D01*
X217995Y58490D01*
X217995Y67984D01*
X215210Y65996D01*
X215210Y67485D01*
X218126Y69491D01*
X219580Y69491D01*
X219580Y58490D01*
X222585Y58490D01*
X222585Y57150D01*
G37*
G36*
X58678Y66040D02*
X57005Y66040D01*
X57005Y78381D01*
X62812Y78381D01*
X63318Y78366D01*
X63795Y78322D01*
X64242Y78250D01*
X64659Y78148D01*
X65046Y78016D01*
X65404Y77856D01*
X65732Y77667D01*
X66031Y77448D01*
X66297Y77203D01*
X66527Y76936D01*
X66722Y76646D01*
X66881Y76332D01*
X67005Y75996D01*
X67094Y75637D01*
X67147Y75256D01*
X67165Y74851D01*
X67152Y74514D01*
X67115Y74191D01*
X67052Y73881D01*
X66965Y73585D01*
X66852Y73303D01*
X66714Y73035D01*
X66551Y72780D01*
X66364Y72539D01*
X66154Y72315D01*
X65925Y72114D01*
X65677Y71933D01*
X65566Y71867D01*
X65410Y71775D01*
X65124Y71638D01*
X64819Y71522D01*
X64495Y71429D01*
X64152Y71356D01*
X65643Y69093D01*
X67655Y66040D01*
X65729Y66040D01*
X62523Y71164D01*
X58678Y71164D01*
X58678Y66040D01*
G37*
%LPC*%
G36*
X62716Y72486D02*
X63037Y72496D01*
X63339Y72525D01*
X63623Y72573D01*
X63888Y72641D01*
X64134Y72727D01*
X64362Y72834D01*
X64571Y72959D01*
X64761Y73104D01*
X64930Y73266D01*
X65077Y73443D01*
X65201Y73636D01*
X65303Y73845D01*
X65382Y74069D01*
X65438Y74308D01*
X65472Y74563D01*
X65483Y74834D01*
X65472Y75095D01*
X65438Y75340D01*
X65380Y75570D01*
X65300Y75783D01*
X65198Y75980D01*
X65072Y76161D01*
X64923Y76327D01*
X64752Y76476D01*
X64559Y76608D01*
X64346Y76723D01*
X64113Y76820D01*
X63860Y76900D01*
X63586Y76961D01*
X63293Y77005D01*
X62979Y77032D01*
X62646Y77041D01*
X58678Y77041D01*
X58678Y72486D01*
X62716Y72486D01*
G37*
%LPD*%
G36*
X77576Y66040D02*
X69405Y66040D01*
X69405Y67152D01*
X69640Y67650D01*
X69900Y68117D01*
X70185Y68554D01*
X70495Y68961D01*
X70821Y69344D01*
X71155Y69708D01*
X71498Y70053D01*
X71848Y70380D01*
X72554Y70992D01*
X73254Y71558D01*
X73916Y72101D01*
X74511Y72644D01*
X74778Y72919D01*
X75018Y73200D01*
X75231Y73488D01*
X75417Y73783D01*
X75569Y74090D01*
X75677Y74418D01*
X75742Y74765D01*
X75763Y75131D01*
X75754Y75378D01*
X75726Y75611D01*
X75679Y75829D01*
X75614Y76033D01*
X75531Y76223D01*
X75428Y76399D01*
X75307Y76561D01*
X75168Y76708D01*
X75011Y76839D01*
X74841Y76953D01*
X74656Y77049D01*
X74456Y77128D01*
X74242Y77190D01*
X74013Y77233D01*
X73770Y77260D01*
X73512Y77268D01*
X73266Y77260D01*
X73031Y77234D01*
X72807Y77191D01*
X72594Y77132D01*
X72392Y77055D01*
X72201Y76961D01*
X72021Y76849D01*
X71853Y76721D01*
X71698Y76577D01*
X71560Y76420D01*
X71439Y76248D01*
X71335Y76063D01*
X71247Y75864D01*
X71177Y75651D01*
X71123Y75424D01*
X71086Y75184D01*
X69475Y75333D01*
X69533Y75693D01*
X69619Y76035D01*
X69733Y76358D01*
X69876Y76662D01*
X70048Y76947D01*
X70247Y77213D01*
X70475Y77460D01*
X70731Y77689D01*
X71011Y77894D01*
X71311Y78072D01*
X71630Y78223D01*
X71967Y78346D01*
X72325Y78442D01*
X72701Y78510D01*
X73097Y78551D01*
X73512Y78565D01*
X73965Y78551D01*
X74391Y78510D01*
X74790Y78441D01*
X75162Y78345D01*
X75507Y78221D01*
X75825Y78070D01*
X76116Y77891D01*
X76381Y77684D01*
X76616Y77453D01*
X76819Y77198D01*
X76992Y76920D01*
X77133Y76619D01*
X77243Y76295D01*
X77321Y75948D01*
X77368Y75577D01*
X77384Y75184D01*
X77363Y74825D01*
X77301Y74468D01*
X77199Y74112D01*
X77055Y73756D01*
X76871Y73402D01*
X76647Y73047D01*
X76383Y72692D01*
X76079Y72337D01*
X75681Y71934D01*
X75135Y71433D01*
X74441Y70835D01*
X73600Y70139D01*
X73122Y69737D01*
X72696Y69356D01*
X72321Y68995D01*
X71997Y68654D01*
X71720Y68327D01*
X71485Y68005D01*
X71291Y67690D01*
X71139Y67380D01*
X77576Y67380D01*
X77576Y66040D01*
G37*
G36*
X50871Y66040D02*
X49207Y66040D01*
X49207Y77014D01*
X44968Y77014D01*
X44968Y78381D01*
X55110Y78381D01*
X55110Y77014D01*
X50871Y77014D01*
X50871Y66040D01*
G37*
G36*
X48260Y167803D02*
X35919Y167803D01*
X35919Y173610D01*
X35934Y174116D01*
X35978Y174592D01*
X36050Y175039D01*
X36152Y175457D01*
X36284Y175844D01*
X36444Y176202D01*
X36633Y176530D01*
X36852Y176828D01*
X37097Y177094D01*
X37364Y177325D01*
X37654Y177520D01*
X37968Y177679D01*
X38304Y177803D01*
X38663Y177892D01*
X39044Y177945D01*
X39449Y177963D01*
X39786Y177950D01*
X40109Y177913D01*
X40419Y177850D01*
X40715Y177762D01*
X40997Y177650D01*
X41265Y177512D01*
X41520Y177349D01*
X41761Y177161D01*
X41985Y176951D01*
X42187Y176722D01*
X42367Y176475D01*
X42433Y176364D01*
X42525Y176208D01*
X42662Y175922D01*
X42778Y175617D01*
X42871Y175293D01*
X42944Y174950D01*
X45207Y176441D01*
X48260Y178453D01*
X48260Y176526D01*
X43136Y173321D01*
X43136Y169476D01*
X48260Y169476D01*
X48260Y167803D01*
G37*
%LPC*%
G36*
X41814Y169476D02*
X41814Y173513D01*
X41804Y173835D01*
X41775Y174137D01*
X41727Y174421D01*
X41659Y174686D01*
X41573Y174932D01*
X41466Y175160D01*
X41341Y175368D01*
X41196Y175558D01*
X41034Y175728D01*
X40857Y175875D01*
X40664Y175999D01*
X40455Y176100D01*
X40231Y176179D01*
X39992Y176236D01*
X39737Y176270D01*
X39466Y176281D01*
X39205Y176270D01*
X38960Y176235D01*
X38731Y176178D01*
X38517Y176098D01*
X38320Y175995D01*
X38139Y175870D01*
X37973Y175721D01*
X37824Y175550D01*
X37692Y175357D01*
X37577Y175144D01*
X37480Y174911D01*
X37401Y174657D01*
X37339Y174384D01*
X37295Y174090D01*
X37268Y173777D01*
X37259Y173443D01*
X37259Y169476D01*
X41814Y169476D01*
G37*
%LPD*%
G36*
X48260Y180666D02*
X46920Y180666D01*
X46920Y183811D01*
X37426Y183811D01*
X39414Y181025D01*
X37925Y181025D01*
X35919Y183942D01*
X35919Y185396D01*
X46920Y185396D01*
X46920Y188400D01*
X48260Y188400D01*
X48260Y180666D01*
G37*
G36*
X95250Y247813D02*
X82909Y247813D01*
X82909Y253620D01*
X82924Y254126D01*
X82968Y254602D01*
X83040Y255049D01*
X83142Y255467D01*
X83274Y255854D01*
X83434Y256212D01*
X83623Y256540D01*
X83842Y256838D01*
X84087Y257104D01*
X84354Y257335D01*
X84644Y257530D01*
X84958Y257689D01*
X85294Y257813D01*
X85653Y257902D01*
X86034Y257955D01*
X86439Y257973D01*
X86776Y257960D01*
X87099Y257923D01*
X87409Y257860D01*
X87705Y257772D01*
X87987Y257660D01*
X88255Y257522D01*
X88510Y257359D01*
X88751Y257171D01*
X88975Y256961D01*
X89177Y256732D01*
X89357Y256485D01*
X89423Y256374D01*
X89515Y256218D01*
X89652Y255932D01*
X89768Y255627D01*
X89861Y255303D01*
X89934Y254960D01*
X92197Y256451D01*
X95250Y258463D01*
X95250Y256536D01*
X90126Y253331D01*
X90126Y249486D01*
X95250Y249486D01*
X95250Y247813D01*
G37*
%LPC*%
G36*
X88804Y249486D02*
X88804Y253523D01*
X88794Y253845D01*
X88765Y254147D01*
X88717Y254431D01*
X88649Y254696D01*
X88563Y254942D01*
X88456Y255170D01*
X88331Y255378D01*
X88186Y255568D01*
X88024Y255738D01*
X87847Y255885D01*
X87654Y256009D01*
X87445Y256110D01*
X87221Y256189D01*
X86982Y256246D01*
X86727Y256280D01*
X86456Y256291D01*
X86195Y256280D01*
X85950Y256245D01*
X85721Y256188D01*
X85507Y256108D01*
X85310Y256005D01*
X85129Y255880D01*
X84963Y255731D01*
X84814Y255560D01*
X84682Y255367D01*
X84567Y255154D01*
X84470Y254921D01*
X84391Y254667D01*
X84329Y254394D01*
X84285Y254100D01*
X84258Y253787D01*
X84249Y253453D01*
X84249Y249486D01*
X88804Y249486D01*
G37*
%LPD*%
G36*
X95250Y260212D02*
X94138Y260212D01*
X93640Y260448D01*
X93173Y260708D01*
X92736Y260993D01*
X92329Y261303D01*
X91946Y261629D01*
X91582Y261963D01*
X91237Y262305D01*
X90910Y262656D01*
X90298Y263362D01*
X89732Y264062D01*
X89189Y264724D01*
X88646Y265318D01*
X88371Y265585D01*
X88090Y265825D01*
X87802Y266038D01*
X87507Y266225D01*
X87200Y266376D01*
X86872Y266484D01*
X86525Y266549D01*
X86159Y266571D01*
X85912Y266562D01*
X85679Y266534D01*
X85461Y266487D01*
X85257Y266422D01*
X85067Y266338D01*
X84891Y266236D01*
X84729Y266115D01*
X84582Y265975D01*
X84451Y265819D01*
X84337Y265648D01*
X84241Y265463D01*
X84162Y265264D01*
X84100Y265049D01*
X84057Y264821D01*
X84030Y264578D01*
X84022Y264320D01*
X84030Y264074D01*
X84056Y263838D01*
X84099Y263614D01*
X84158Y263401D01*
X84235Y263199D01*
X84329Y263009D01*
X84441Y262829D01*
X84569Y262660D01*
X84713Y262505D01*
X84870Y262368D01*
X85042Y262247D01*
X85227Y262142D01*
X85426Y262055D01*
X85639Y261984D01*
X85866Y261931D01*
X86106Y261894D01*
X85957Y260282D01*
X85597Y260340D01*
X85255Y260426D01*
X84932Y260541D01*
X84628Y260684D01*
X84343Y260855D01*
X84077Y261055D01*
X83830Y261283D01*
X83601Y261539D01*
X83396Y261819D01*
X83218Y262118D01*
X83067Y262437D01*
X82944Y262775D01*
X82848Y263132D01*
X82780Y263509D01*
X82739Y263905D01*
X82725Y264320D01*
X82739Y264773D01*
X82780Y265199D01*
X82849Y265598D01*
X82945Y265970D01*
X83069Y266315D01*
X83220Y266633D01*
X83399Y266924D01*
X83606Y267188D01*
X83837Y267423D01*
X84092Y267627D01*
X84370Y267799D01*
X84671Y267940D01*
X84995Y268050D01*
X85342Y268128D01*
X85713Y268175D01*
X86106Y268191D01*
X86465Y268171D01*
X86822Y268109D01*
X87178Y268006D01*
X87534Y267863D01*
X87888Y267679D01*
X88243Y267454D01*
X88598Y267190D01*
X88953Y266886D01*
X89356Y266488D01*
X89857Y265942D01*
X90455Y265249D01*
X91151Y264407D01*
X91553Y263930D01*
X91934Y263503D01*
X92295Y263128D01*
X92636Y262805D01*
X92963Y262528D01*
X93285Y262292D01*
X93600Y262099D01*
X93910Y261946D01*
X93910Y268384D01*
X95250Y268384D01*
X95250Y260212D01*
G37*
G36*
X177800Y205903D02*
X165459Y205903D01*
X165459Y211710D01*
X165474Y212216D01*
X165518Y212692D01*
X165590Y213139D01*
X165692Y213557D01*
X165824Y213944D01*
X165984Y214302D01*
X166173Y214630D01*
X166392Y214928D01*
X166637Y215194D01*
X166904Y215425D01*
X167194Y215620D01*
X167508Y215779D01*
X167844Y215903D01*
X168203Y215992D01*
X168584Y216045D01*
X168989Y216063D01*
X169326Y216050D01*
X169649Y216013D01*
X169959Y215950D01*
X170255Y215862D01*
X170537Y215750D01*
X170805Y215612D01*
X171060Y215449D01*
X171301Y215261D01*
X171525Y215051D01*
X171727Y214822D01*
X171907Y214575D01*
X171973Y214464D01*
X172065Y214308D01*
X172202Y214022D01*
X172318Y213717D01*
X172411Y213393D01*
X172484Y213050D01*
X174747Y214541D01*
X177800Y216553D01*
X177800Y214626D01*
X172676Y211421D01*
X172676Y207576D01*
X177800Y207576D01*
X177800Y205903D01*
G37*
%LPC*%
G36*
X171354Y207576D02*
X171354Y211613D01*
X171344Y211935D01*
X171315Y212237D01*
X171267Y212521D01*
X171199Y212786D01*
X171113Y213032D01*
X171006Y213260D01*
X170881Y213468D01*
X170736Y213658D01*
X170574Y213828D01*
X170397Y213975D01*
X170204Y214099D01*
X169995Y214200D01*
X169771Y214279D01*
X169532Y214336D01*
X169277Y214370D01*
X169006Y214381D01*
X168745Y214370D01*
X168500Y214335D01*
X168271Y214278D01*
X168057Y214198D01*
X167860Y214095D01*
X167679Y213970D01*
X167513Y213821D01*
X167364Y213650D01*
X167232Y213457D01*
X167117Y213244D01*
X167020Y213011D01*
X166941Y212757D01*
X166879Y212484D01*
X166835Y212190D01*
X166808Y211877D01*
X166799Y211543D01*
X166799Y207576D01*
X171354Y207576D01*
G37*
%LPD*%
G36*
X174629Y218083D02*
X174481Y219712D01*
X174746Y219760D01*
X174994Y219823D01*
X175225Y219903D01*
X175439Y219999D01*
X175635Y220110D01*
X175815Y220238D01*
X175977Y220382D01*
X176123Y220542D01*
X176251Y220718D01*
X176362Y220910D01*
X176456Y221119D01*
X176533Y221343D01*
X176593Y221583D01*
X176636Y221840D01*
X176662Y222112D01*
X176670Y222401D01*
X176661Y222691D01*
X176634Y222965D01*
X176588Y223222D01*
X176523Y223464D01*
X176441Y223690D01*
X176340Y223900D01*
X176221Y224093D01*
X176083Y224271D01*
X175928Y224430D01*
X175754Y224568D01*
X175563Y224685D01*
X175354Y224780D01*
X175127Y224854D01*
X174883Y224907D01*
X174621Y224939D01*
X174340Y224950D01*
X174096Y224938D01*
X173864Y224901D01*
X173647Y224841D01*
X173444Y224756D01*
X173254Y224647D01*
X173078Y224514D01*
X172916Y224356D01*
X172768Y224175D01*
X172636Y223970D01*
X172521Y223744D01*
X172424Y223497D01*
X172345Y223228D01*
X172283Y222937D01*
X172239Y222625D01*
X172212Y222292D01*
X172203Y221937D01*
X172203Y221044D01*
X170837Y221044D01*
X170837Y221902D01*
X170828Y222217D01*
X170802Y222514D01*
X170758Y222792D01*
X170696Y223053D01*
X170616Y223295D01*
X170519Y223519D01*
X170404Y223724D01*
X170272Y223912D01*
X170124Y224079D01*
X169963Y224224D01*
X169787Y224347D01*
X169599Y224447D01*
X169397Y224525D01*
X169181Y224581D01*
X168952Y224615D01*
X168709Y224626D01*
X168468Y224617D01*
X168240Y224589D01*
X168025Y224544D01*
X167823Y224480D01*
X167634Y224398D01*
X167458Y224298D01*
X167295Y224180D01*
X167145Y224043D01*
X167011Y223889D01*
X166894Y223717D01*
X166796Y223527D01*
X166715Y223320D01*
X166652Y223095D01*
X166607Y222852D01*
X166581Y222592D01*
X166572Y222314D01*
X166580Y222059D01*
X166605Y221817D01*
X166647Y221588D01*
X166705Y221371D01*
X166780Y221166D01*
X166872Y220974D01*
X166981Y220795D01*
X167106Y220628D01*
X167246Y220475D01*
X167400Y220339D01*
X167568Y220220D01*
X167750Y220118D01*
X167945Y220033D01*
X168154Y219965D01*
X168376Y219913D01*
X168612Y219879D01*
X168490Y218293D01*
X168121Y218351D01*
X167774Y218438D01*
X167447Y218552D01*
X167141Y218695D01*
X166856Y218866D01*
X166591Y219066D01*
X166348Y219294D01*
X166125Y219550D01*
X165926Y219830D01*
X165753Y220130D01*
X165607Y220448D01*
X165488Y220786D01*
X165395Y221144D01*
X165328Y221520D01*
X165289Y221916D01*
X165275Y222331D01*
X165289Y222782D01*
X165329Y223208D01*
X165397Y223607D01*
X165491Y223981D01*
X165612Y224329D01*
X165761Y224651D01*
X165936Y224947D01*
X166138Y225217D01*
X166364Y225458D01*
X166612Y225667D01*
X166881Y225844D01*
X167170Y225989D01*
X167482Y226101D01*
X167814Y226182D01*
X168167Y226230D01*
X168542Y226246D01*
X168831Y226236D01*
X169106Y226205D01*
X169367Y226153D01*
X169614Y226081D01*
X169847Y225988D01*
X170067Y225874D01*
X170273Y225740D01*
X170465Y225585D01*
X170642Y225410D01*
X170805Y225217D01*
X170953Y225005D01*
X171086Y224774D01*
X171203Y224524D01*
X171306Y224255D01*
X171394Y223968D01*
X171468Y223662D01*
X171503Y223662D01*
X171550Y223999D01*
X171616Y224316D01*
X171703Y224614D01*
X171809Y224893D01*
X171935Y225153D01*
X172081Y225393D01*
X172246Y225615D01*
X172431Y225817D01*
X172632Y225998D01*
X172846Y226154D01*
X173072Y226287D01*
X173311Y226395D01*
X173563Y226479D01*
X173827Y226540D01*
X174104Y226576D01*
X174393Y226588D01*
X174808Y226571D01*
X175199Y226520D01*
X175566Y226435D01*
X175908Y226316D01*
X176227Y226163D01*
X176521Y225977D01*
X176792Y225756D01*
X177038Y225502D01*
X177258Y225216D01*
X177448Y224901D01*
X177609Y224557D01*
X177741Y224183D01*
X177843Y223781D01*
X177917Y223350D01*
X177961Y222890D01*
X177975Y222401D01*
X177962Y221944D01*
X177922Y221511D01*
X177856Y221102D01*
X177764Y220716D01*
X177645Y220354D01*
X177500Y220016D01*
X177328Y219701D01*
X177130Y219410D01*
X176906Y219145D01*
X176657Y218908D01*
X176382Y218700D01*
X176082Y218520D01*
X175757Y218368D01*
X175406Y218245D01*
X175031Y218150D01*
X174629Y218083D01*
G37*
G36*
X218440Y170873D02*
X206099Y170873D01*
X206099Y176680D01*
X206114Y177186D01*
X206158Y177662D01*
X206230Y178109D01*
X206332Y178527D01*
X206464Y178914D01*
X206624Y179272D01*
X206813Y179600D01*
X207032Y179898D01*
X207277Y180164D01*
X207544Y180395D01*
X207834Y180590D01*
X208148Y180749D01*
X208484Y180873D01*
X208843Y180962D01*
X209224Y181015D01*
X209629Y181033D01*
X209966Y181020D01*
X210289Y180983D01*
X210599Y180920D01*
X210895Y180832D01*
X211177Y180720D01*
X211445Y180582D01*
X211700Y180419D01*
X211941Y180231D01*
X212165Y180021D01*
X212367Y179792D01*
X212547Y179545D01*
X212613Y179434D01*
X212705Y179278D01*
X212842Y178992D01*
X212958Y178687D01*
X213051Y178363D01*
X213124Y178020D01*
X215387Y179511D01*
X218440Y181523D01*
X218440Y179596D01*
X213316Y176391D01*
X213316Y172546D01*
X218440Y172546D01*
X218440Y170873D01*
G37*
%LPC*%
G36*
X211994Y172546D02*
X211994Y176583D01*
X211984Y176905D01*
X211955Y177207D01*
X211907Y177491D01*
X211839Y177756D01*
X211753Y178002D01*
X211646Y178230D01*
X211521Y178438D01*
X211376Y178628D01*
X211214Y178798D01*
X211037Y178945D01*
X210844Y179069D01*
X210635Y179170D01*
X210411Y179249D01*
X210172Y179306D01*
X209917Y179340D01*
X209646Y179351D01*
X209385Y179340D01*
X209140Y179305D01*
X208911Y179248D01*
X208697Y179168D01*
X208500Y179065D01*
X208319Y178940D01*
X208153Y178791D01*
X208004Y178620D01*
X207872Y178427D01*
X207757Y178214D01*
X207660Y177981D01*
X207581Y177727D01*
X207519Y177454D01*
X207475Y177160D01*
X207448Y176847D01*
X207439Y176513D01*
X207439Y172546D01*
X211994Y172546D01*
G37*
%LPD*%
G36*
X215646Y182782D02*
X214420Y182782D01*
X206099Y188431D01*
X206099Y190086D01*
X214402Y190086D01*
X214402Y191820D01*
X215646Y191820D01*
X215646Y190086D01*
X218440Y190086D01*
X218440Y188597D01*
X215646Y188597D01*
X215646Y182782D01*
G37*
%LPC*%
G36*
X214402Y184236D02*
X214402Y188597D01*
X207877Y188597D01*
X208341Y188352D01*
X208919Y188011D01*
X213579Y184849D01*
X214227Y184376D01*
X214402Y184236D01*
G37*
%LPD*%
G36*
X134620Y244907D02*
X122279Y244907D01*
X122279Y250101D01*
X122294Y250605D01*
X122340Y251080D01*
X122416Y251526D01*
X122522Y251942D01*
X122659Y252330D01*
X122826Y252687D01*
X123024Y253016D01*
X123251Y253315D01*
X123507Y253582D01*
X123787Y253813D01*
X124093Y254009D01*
X124423Y254169D01*
X124778Y254294D01*
X125158Y254383D01*
X125563Y254436D01*
X125993Y254454D01*
X126420Y254436D01*
X126824Y254382D01*
X127206Y254293D01*
X127565Y254168D01*
X127902Y254007D01*
X128216Y253811D01*
X128508Y253579D01*
X128778Y253311D01*
X129020Y253012D01*
X129230Y252688D01*
X129408Y252338D01*
X129553Y251963D01*
X129666Y251562D01*
X129747Y251136D01*
X129795Y250684D01*
X129812Y250206D01*
X129812Y246580D01*
X134620Y246580D01*
X134620Y244907D01*
G37*
%LPC*%
G36*
X128489Y246580D02*
X128489Y249969D01*
X128479Y250309D01*
X128450Y250626D01*
X128402Y250922D01*
X128334Y251196D01*
X128247Y251448D01*
X128140Y251677D01*
X128015Y251885D01*
X127869Y252072D01*
X127705Y252236D01*
X127521Y252378D01*
X127317Y252499D01*
X127095Y252597D01*
X126853Y252674D01*
X126591Y252728D01*
X126311Y252761D01*
X126010Y252772D01*
X125721Y252761D01*
X125450Y252727D01*
X125198Y252671D01*
X124964Y252593D01*
X124749Y252492D01*
X124553Y252368D01*
X124376Y252222D01*
X124217Y252054D01*
X124077Y251863D01*
X123956Y251650D01*
X123853Y251414D01*
X123769Y251156D01*
X123703Y250876D01*
X123657Y250573D01*
X123629Y250247D01*
X123619Y249899D01*
X123619Y246580D01*
X128489Y246580D01*
G37*
%LPD*%
G36*
X123646Y232870D02*
X122279Y232870D01*
X122279Y243012D01*
X123646Y243012D01*
X123646Y238773D01*
X134620Y238773D01*
X134620Y237109D01*
X123646Y237109D01*
X123646Y232870D01*
G37*
G36*
X134620Y256771D02*
X133280Y256771D01*
X133280Y259915D01*
X123786Y259915D01*
X125774Y257130D01*
X124285Y257130D01*
X122279Y260046D01*
X122279Y261500D01*
X133280Y261500D01*
X133280Y264505D01*
X134620Y264505D01*
X134620Y256771D01*
G37*
G36*
X124660Y107250D02*
X122987Y107250D01*
X122987Y119591D01*
X128181Y119591D01*
X128685Y119576D01*
X129160Y119530D01*
X129606Y119454D01*
X130022Y119348D01*
X130410Y119211D01*
X130767Y119044D01*
X131096Y118846D01*
X131395Y118619D01*
X131662Y118363D01*
X131893Y118083D01*
X132089Y117777D01*
X132249Y117447D01*
X132374Y117092D01*
X132463Y116712D01*
X132516Y116307D01*
X132534Y115877D01*
X132516Y115450D01*
X132462Y115046D01*
X132373Y114664D01*
X132248Y114305D01*
X132087Y113968D01*
X131891Y113654D01*
X131659Y113362D01*
X131391Y113092D01*
X131092Y112850D01*
X130768Y112640D01*
X130418Y112462D01*
X130043Y112317D01*
X129642Y112204D01*
X129216Y112123D01*
X128764Y112075D01*
X128286Y112058D01*
X124660Y112058D01*
X124660Y107250D01*
G37*
%LPC*%
G36*
X128049Y113381D02*
X128389Y113391D01*
X128706Y113420D01*
X129002Y113468D01*
X129276Y113536D01*
X129528Y113623D01*
X129757Y113730D01*
X129965Y113855D01*
X130152Y114001D01*
X130316Y114165D01*
X130458Y114349D01*
X130579Y114553D01*
X130677Y114775D01*
X130754Y115017D01*
X130808Y115279D01*
X130841Y115559D01*
X130852Y115860D01*
X130841Y116149D01*
X130807Y116420D01*
X130751Y116672D01*
X130673Y116906D01*
X130572Y117121D01*
X130448Y117317D01*
X130302Y117494D01*
X130134Y117653D01*
X129943Y117793D01*
X129730Y117914D01*
X129494Y118017D01*
X129236Y118101D01*
X128956Y118167D01*
X128653Y118213D01*
X128327Y118241D01*
X127979Y118251D01*
X124660Y118251D01*
X124660Y113381D01*
X128049Y113381D01*
G37*
%LPD*%
G36*
X142558Y107250D02*
X134387Y107250D01*
X134387Y108362D01*
X134622Y108860D01*
X134882Y109327D01*
X135167Y109764D01*
X135477Y110171D01*
X135803Y110554D01*
X136137Y110918D01*
X136480Y111263D01*
X136830Y111590D01*
X137536Y112202D01*
X138236Y112768D01*
X138898Y113311D01*
X139493Y113854D01*
X139760Y114129D01*
X140000Y114410D01*
X140213Y114698D01*
X140399Y114993D01*
X140551Y115300D01*
X140659Y115628D01*
X140724Y115975D01*
X140745Y116341D01*
X140736Y116588D01*
X140708Y116821D01*
X140661Y117039D01*
X140596Y117243D01*
X140513Y117433D01*
X140410Y117609D01*
X140289Y117771D01*
X140150Y117918D01*
X139993Y118049D01*
X139823Y118163D01*
X139638Y118259D01*
X139438Y118338D01*
X139224Y118400D01*
X138995Y118443D01*
X138752Y118470D01*
X138494Y118478D01*
X138248Y118470D01*
X138013Y118444D01*
X137789Y118401D01*
X137576Y118342D01*
X137374Y118265D01*
X137183Y118171D01*
X137003Y118059D01*
X136835Y117931D01*
X136680Y117787D01*
X136542Y117630D01*
X136421Y117458D01*
X136317Y117273D01*
X136229Y117074D01*
X136159Y116861D01*
X136105Y116634D01*
X136068Y116394D01*
X134457Y116543D01*
X134515Y116903D01*
X134601Y117245D01*
X134715Y117568D01*
X134858Y117872D01*
X135030Y118157D01*
X135229Y118423D01*
X135457Y118670D01*
X135713Y118899D01*
X135993Y119104D01*
X136293Y119282D01*
X136612Y119433D01*
X136949Y119556D01*
X137307Y119652D01*
X137683Y119720D01*
X138079Y119761D01*
X138494Y119775D01*
X138947Y119761D01*
X139373Y119720D01*
X139772Y119651D01*
X140144Y119555D01*
X140489Y119431D01*
X140807Y119280D01*
X141098Y119101D01*
X141363Y118894D01*
X141598Y118663D01*
X141801Y118408D01*
X141974Y118130D01*
X142115Y117829D01*
X142225Y117505D01*
X142303Y117158D01*
X142350Y116787D01*
X142366Y116394D01*
X142345Y116035D01*
X142283Y115678D01*
X142181Y115322D01*
X142037Y114966D01*
X141853Y114612D01*
X141629Y114257D01*
X141365Y113902D01*
X141061Y113547D01*
X140663Y113144D01*
X140117Y112643D01*
X139423Y112045D01*
X138582Y111349D01*
X138104Y110947D01*
X137678Y110566D01*
X137303Y110205D01*
X136979Y109864D01*
X136702Y109537D01*
X136467Y109215D01*
X136273Y108900D01*
X136121Y108590D01*
X142558Y108590D01*
X142558Y107250D01*
G37*
G36*
X116853Y107250D02*
X115189Y107250D01*
X115189Y118224D01*
X110950Y118224D01*
X110950Y119591D01*
X121092Y119591D01*
X121092Y118224D01*
X116853Y118224D01*
X116853Y107250D01*
G37*
G36*
X56677Y179377D02*
X55389Y179377D01*
X55389Y183125D01*
X51676Y183125D01*
X51676Y184404D01*
X55389Y184404D01*
X55389Y188153D01*
X56677Y188153D01*
X56677Y184404D01*
X60391Y184404D01*
X60391Y183125D01*
X56677Y183125D01*
X56677Y179377D01*
G37*
G36*
X57689Y196675D02*
X57231Y196687D01*
X56788Y196723D01*
X56361Y196784D01*
X55950Y196869D01*
X55554Y196978D01*
X55174Y197111D01*
X54810Y197268D01*
X54462Y197450D01*
X54131Y197654D01*
X53821Y197879D01*
X53531Y198125D01*
X53262Y198392D01*
X53012Y198679D01*
X52783Y198987D01*
X52575Y199316D01*
X52386Y199666D01*
X52219Y200034D01*
X52074Y200419D01*
X51951Y200821D01*
X51851Y201239D01*
X51773Y201674D01*
X51717Y202125D01*
X51683Y202593D01*
X51672Y203077D01*
X51678Y203441D01*
X51697Y203795D01*
X51728Y204139D01*
X51772Y204473D01*
X51828Y204797D01*
X51896Y205111D01*
X51977Y205415D01*
X52071Y205709D01*
X52177Y205993D01*
X52295Y206267D01*
X52569Y206785D01*
X52893Y207264D01*
X53266Y207702D01*
X53684Y208094D01*
X54140Y208434D01*
X54382Y208584D01*
X54634Y208721D01*
X54896Y208845D01*
X55167Y208956D01*
X55447Y209055D01*
X55738Y209139D01*
X56038Y209211D01*
X56347Y209270D01*
X56666Y209316D01*
X56995Y209349D01*
X57333Y209368D01*
X57681Y209375D01*
X58163Y209363D01*
X58625Y209327D01*
X59067Y209266D01*
X59489Y209182D01*
X59891Y209074D01*
X60272Y208941D01*
X60633Y208785D01*
X60974Y208604D01*
X61293Y208400D01*
X61591Y208172D01*
X61867Y207921D01*
X62121Y207647D01*
X62353Y207350D01*
X62563Y207029D01*
X62752Y206685D01*
X62918Y206318D01*
X61333Y205792D01*
X61217Y206054D01*
X61086Y206299D01*
X60938Y206529D01*
X60773Y206743D01*
X60593Y206941D01*
X60396Y207123D01*
X60183Y207289D01*
X59953Y207439D01*
X59710Y207573D01*
X59456Y207688D01*
X59191Y207786D01*
X58914Y207866D01*
X58627Y207928D01*
X58328Y207973D01*
X58019Y207999D01*
X57698Y208008D01*
X57200Y207988D01*
X56730Y207926D01*
X56289Y207823D01*
X55876Y207679D01*
X55492Y207493D01*
X55136Y207267D01*
X54809Y206999D01*
X54510Y206690D01*
X54243Y206345D01*
X54012Y205970D01*
X53816Y205564D01*
X53656Y205128D01*
X53531Y204661D01*
X53442Y204164D01*
X53389Y203636D01*
X53371Y203077D01*
X53390Y202524D01*
X53445Y201999D01*
X53538Y201501D01*
X53668Y201031D01*
X53835Y200589D01*
X54039Y200175D01*
X54280Y199788D01*
X54558Y199429D01*
X54868Y199106D01*
X55204Y198826D01*
X55566Y198589D01*
X55954Y198395D01*
X56368Y198244D01*
X56809Y198136D01*
X57275Y198071D01*
X57768Y198050D01*
X58087Y198060D01*
X58396Y198090D01*
X58695Y198140D01*
X58984Y198210D01*
X59263Y198301D01*
X59531Y198411D01*
X59790Y198541D01*
X60039Y198691D01*
X60277Y198862D01*
X60506Y199052D01*
X60724Y199263D01*
X60933Y199493D01*
X61131Y199744D01*
X61319Y200015D01*
X61497Y200305D01*
X61666Y200616D01*
X63032Y199933D01*
X62832Y199546D01*
X62612Y199184D01*
X62374Y198845D01*
X62116Y198529D01*
X61838Y198238D01*
X61542Y197971D01*
X61226Y197727D01*
X60891Y197507D01*
X60539Y197312D01*
X60173Y197143D01*
X59794Y197000D01*
X59400Y196883D01*
X58993Y196792D01*
X58573Y196727D01*
X58138Y196688D01*
X57689Y196675D01*
G37*
G36*
X72830Y196850D02*
X65096Y196850D01*
X65096Y198190D01*
X68241Y198190D01*
X68241Y207684D01*
X65455Y205696D01*
X65455Y207185D01*
X68372Y209191D01*
X69826Y209191D01*
X69826Y198190D01*
X72830Y198190D01*
X72830Y196850D01*
G37*
G36*
X198608Y141277D02*
X197321Y141277D01*
X197321Y145025D01*
X193607Y145025D01*
X193607Y146304D01*
X197321Y146304D01*
X197321Y150053D01*
X198608Y150053D01*
X198608Y146304D01*
X202322Y146304D01*
X202322Y145025D01*
X198608Y145025D01*
X198608Y141277D01*
G37*
G36*
X184689Y197945D02*
X184231Y197957D01*
X183788Y197993D01*
X183361Y198054D01*
X182950Y198139D01*
X182554Y198248D01*
X182174Y198381D01*
X181810Y198538D01*
X181462Y198720D01*
X181131Y198924D01*
X180821Y199149D01*
X180531Y199395D01*
X180262Y199662D01*
X180012Y199949D01*
X179783Y200257D01*
X179575Y200586D01*
X179386Y200936D01*
X179219Y201304D01*
X179074Y201689D01*
X178951Y202091D01*
X178851Y202509D01*
X178773Y202944D01*
X178717Y203395D01*
X178683Y203863D01*
X178672Y204347D01*
X178678Y204711D01*
X178697Y205065D01*
X178728Y205409D01*
X178772Y205743D01*
X178828Y206067D01*
X178896Y206381D01*
X178977Y206685D01*
X179071Y206979D01*
X179177Y207263D01*
X179295Y207537D01*
X179569Y208055D01*
X179893Y208534D01*
X180266Y208972D01*
X180684Y209364D01*
X181140Y209704D01*
X181382Y209854D01*
X181634Y209991D01*
X181896Y210115D01*
X182167Y210226D01*
X182447Y210325D01*
X182738Y210409D01*
X183038Y210481D01*
X183347Y210540D01*
X183666Y210586D01*
X183995Y210619D01*
X184333Y210638D01*
X184681Y210645D01*
X185163Y210633D01*
X185625Y210597D01*
X186067Y210536D01*
X186489Y210452D01*
X186891Y210344D01*
X187272Y210211D01*
X187633Y210055D01*
X187974Y209874D01*
X188293Y209670D01*
X188591Y209442D01*
X188867Y209191D01*
X189121Y208917D01*
X189353Y208620D01*
X189563Y208299D01*
X189752Y207955D01*
X189918Y207588D01*
X188333Y207062D01*
X188217Y207324D01*
X188086Y207569D01*
X187938Y207799D01*
X187773Y208013D01*
X187593Y208211D01*
X187396Y208393D01*
X187183Y208559D01*
X186953Y208709D01*
X186710Y208843D01*
X186456Y208958D01*
X186191Y209056D01*
X185914Y209136D01*
X185627Y209198D01*
X185328Y209243D01*
X185019Y209269D01*
X184698Y209278D01*
X184200Y209258D01*
X183730Y209196D01*
X183289Y209093D01*
X182876Y208949D01*
X182492Y208763D01*
X182136Y208537D01*
X181809Y208269D01*
X181510Y207960D01*
X181243Y207615D01*
X181012Y207240D01*
X180816Y206834D01*
X180656Y206398D01*
X180531Y205931D01*
X180442Y205434D01*
X180389Y204906D01*
X180371Y204347D01*
X180390Y203794D01*
X180445Y203269D01*
X180538Y202771D01*
X180668Y202301D01*
X180835Y201859D01*
X181039Y201445D01*
X181280Y201058D01*
X181558Y200699D01*
X181868Y200376D01*
X182204Y200096D01*
X182566Y199859D01*
X182954Y199665D01*
X183368Y199514D01*
X183809Y199406D01*
X184275Y199341D01*
X184768Y199320D01*
X185087Y199330D01*
X185396Y199360D01*
X185695Y199410D01*
X185984Y199480D01*
X186263Y199571D01*
X186531Y199681D01*
X186790Y199811D01*
X187039Y199961D01*
X187277Y200132D01*
X187506Y200322D01*
X187724Y200533D01*
X187933Y200763D01*
X188131Y201014D01*
X188319Y201285D01*
X188497Y201575D01*
X188666Y201886D01*
X190032Y201203D01*
X189832Y200816D01*
X189612Y200454D01*
X189374Y200115D01*
X189116Y199799D01*
X188838Y199508D01*
X188542Y199241D01*
X188226Y198997D01*
X187891Y198777D01*
X187539Y198582D01*
X187173Y198413D01*
X186794Y198270D01*
X186400Y198153D01*
X185993Y198062D01*
X185573Y197997D01*
X185138Y197958D01*
X184689Y197945D01*
G37*
G36*
X199804Y198120D02*
X191632Y198120D01*
X191632Y199232D01*
X191868Y199730D01*
X192128Y200197D01*
X192413Y200634D01*
X192723Y201041D01*
X193049Y201424D01*
X193383Y201788D01*
X193725Y202133D01*
X194076Y202460D01*
X194782Y203072D01*
X195482Y203638D01*
X196144Y204181D01*
X196738Y204724D01*
X197005Y204999D01*
X197245Y205280D01*
X197458Y205568D01*
X197645Y205863D01*
X197796Y206170D01*
X197904Y206498D01*
X197969Y206845D01*
X197991Y207211D01*
X197982Y207458D01*
X197954Y207691D01*
X197907Y207909D01*
X197842Y208113D01*
X197758Y208303D01*
X197656Y208479D01*
X197535Y208641D01*
X197395Y208788D01*
X197239Y208919D01*
X197068Y209033D01*
X196883Y209129D01*
X196684Y209208D01*
X196469Y209270D01*
X196241Y209313D01*
X195998Y209340D01*
X195740Y209348D01*
X195494Y209340D01*
X195258Y209314D01*
X195034Y209271D01*
X194821Y209212D01*
X194619Y209135D01*
X194429Y209041D01*
X194249Y208929D01*
X194080Y208801D01*
X193925Y208657D01*
X193788Y208500D01*
X193667Y208328D01*
X193562Y208143D01*
X193475Y207944D01*
X193404Y207731D01*
X193351Y207504D01*
X193314Y207264D01*
X191702Y207413D01*
X191760Y207773D01*
X191846Y208115D01*
X191961Y208438D01*
X192104Y208742D01*
X192275Y209027D01*
X192475Y209293D01*
X192703Y209540D01*
X192959Y209769D01*
X193239Y209974D01*
X193538Y210152D01*
X193857Y210303D01*
X194195Y210426D01*
X194552Y210522D01*
X194929Y210590D01*
X195325Y210631D01*
X195740Y210645D01*
X196193Y210631D01*
X196619Y210590D01*
X197018Y210521D01*
X197390Y210425D01*
X197735Y210301D01*
X198053Y210150D01*
X198344Y209971D01*
X198608Y209764D01*
X198843Y209533D01*
X199047Y209278D01*
X199219Y209000D01*
X199360Y208699D01*
X199470Y208375D01*
X199548Y208028D01*
X199595Y207657D01*
X199611Y207264D01*
X199591Y206905D01*
X199529Y206548D01*
X199426Y206192D01*
X199283Y205836D01*
X199099Y205482D01*
X198874Y205127D01*
X198610Y204772D01*
X198306Y204417D01*
X197908Y204014D01*
X197362Y203513D01*
X196669Y202915D01*
X195827Y202219D01*
X195350Y201817D01*
X194923Y201436D01*
X194548Y201075D01*
X194225Y200734D01*
X193948Y200407D01*
X193712Y200085D01*
X193519Y199770D01*
X193366Y199460D01*
X199804Y199460D01*
X199804Y198120D01*
G37*
D10*
X70734Y226035D02*
X71352Y226344D01*
X71962Y226668D01*
X72565Y227006D01*
X73159Y227359D01*
X73744Y227727D01*
X74320Y228109D01*
X74886Y228505D01*
X75442Y228914D01*
X75989Y229338D01*
X76524Y229774D01*
X77049Y230223D01*
X77563Y230685D01*
X78066Y231159D01*
X78556Y231646D01*
X79035Y232144D01*
X79501Y232654D01*
X79955Y233176D01*
X80395Y233708D01*
X80823Y234250D01*
X81237Y234804D01*
X81638Y235367D01*
X82024Y235939D01*
X82397Y236521D01*
X82755Y237112D01*
X83099Y237712D01*
X83428Y238319D01*
X83742Y238935D01*
X84040Y239558D01*
X84324Y240188D01*
X84592Y240825D01*
X84844Y241468D01*
X85080Y242117D01*
X85301Y242772D01*
X85505Y243432D01*
X85694Y244097D01*
X85866Y244766D01*
X86021Y245440D01*
X86160Y246116D01*
X86282Y246796D01*
X86388Y247479D01*
X86477Y248165D01*
X86549Y248852D01*
X86605Y249540D01*
X86643Y250230D01*
X86665Y250921D01*
X86670Y251612D01*
X86657Y252303D01*
X86628Y252993D01*
X86582Y253683D01*
X86520Y254371D01*
X86440Y255057D01*
X86344Y255741D01*
X86231Y256423D01*
X86101Y257102D01*
X85955Y257777D01*
X85792Y258448D01*
X85613Y259116D01*
X85417Y259779D01*
X85206Y260436D01*
X84978Y261089D01*
X84735Y261735D01*
X84476Y262376D01*
X84201Y263010D01*
X83911Y263637D01*
X83605Y264257D01*
X83285Y264869D01*
X82949Y265473D01*
X82599Y266069D01*
X82235Y266656D01*
X81856Y267234D01*
X81463Y267802D01*
X81057Y268361D01*
X80637Y268909D01*
X80203Y269448D01*
X79757Y269975D01*
X79298Y270491D01*
X78826Y270996D01*
X78342Y271489D01*
X77846Y271971D01*
X77339Y272440D01*
X76820Y272896D01*
X76290Y273340D01*
X75750Y273770D01*
X75199Y274187D01*
X74638Y274591D01*
X74067Y274981D01*
X73487Y275356D01*
X72899Y275718D01*
X72301Y276065D01*
X71695Y276397D01*
X71081Y276714D01*
X70460Y277016D01*
X69831Y277303D01*
X69196Y277574D01*
X68554Y277830D01*
X67906Y278070D01*
X67252Y278294D01*
X66593Y278502D01*
X65929Y278694D01*
X65261Y278869D01*
X64589Y279028D01*
X63913Y279171D01*
X63233Y279297D01*
X62551Y279406D01*
X61866Y279499D01*
X61179Y279575D01*
X60491Y279634D01*
X59801Y279676D01*
X59111Y279702D01*
X58420Y279710D01*
X57729Y279702D01*
X57039Y279676D01*
X56349Y279634D01*
X55661Y279575D01*
X54974Y279499D01*
X54289Y279406D01*
X53607Y279297D01*
X52927Y279171D01*
X52251Y279028D01*
X51579Y278869D01*
X50911Y278694D01*
X50247Y278502D01*
X49588Y278294D01*
X48934Y278070D01*
X48286Y277830D01*
X47644Y277574D01*
X47009Y277303D01*
X46380Y277016D01*
X45759Y276714D01*
X45145Y276397D01*
X44539Y276065D01*
X43941Y275718D01*
X43353Y275356D01*
X42773Y274981D01*
X42202Y274591D01*
X41641Y274187D01*
X41090Y273770D01*
X40550Y273340D01*
X40020Y272896D01*
X39501Y272440D01*
X38994Y271971D01*
X38498Y271489D01*
X38014Y270996D01*
X37542Y270491D01*
X37083Y269975D01*
X36637Y269448D01*
X36203Y268909D01*
X35783Y268361D01*
X35377Y267802D01*
X34984Y267234D01*
X34605Y266656D01*
X34241Y266069D01*
X33891Y265473D01*
X33555Y264869D01*
X33235Y264257D01*
X32929Y263637D01*
X32639Y263010D01*
X32364Y262376D01*
X32105Y261735D01*
X31862Y261089D01*
X31634Y260436D01*
X31423Y259779D01*
X31227Y259116D01*
X31048Y258448D01*
X30885Y257777D01*
X30739Y257102D01*
X30609Y256423D01*
X30496Y255741D01*
X30400Y255057D01*
X30320Y254371D01*
X30258Y253683D01*
X30212Y252993D01*
X30183Y252303D01*
X30170Y251612D01*
X30175Y250921D01*
X30197Y250230D01*
X30235Y249540D01*
X30291Y248852D01*
X30363Y248165D01*
X30452Y247479D01*
X30558Y246796D01*
X30680Y246116D01*
X30819Y245440D01*
X30974Y244766D01*
X31146Y244097D01*
X31335Y243432D01*
X31539Y242772D01*
X31760Y242117D01*
X31996Y241468D01*
X32248Y240825D01*
X32516Y240188D01*
X32800Y239558D01*
X33098Y238935D01*
X33412Y238319D01*
X33741Y237712D01*
X34085Y237112D01*
X34443Y236521D01*
X34816Y235939D01*
X35202Y235367D01*
X35603Y234804D01*
X36017Y234250D01*
X36445Y233708D01*
X36885Y233176D01*
X37339Y232654D01*
X37805Y232144D01*
X38284Y231646D01*
X38774Y231159D01*
X39277Y230685D01*
X39791Y230223D01*
X40316Y229774D01*
X40851Y229338D01*
X41398Y228914D01*
X41954Y228505D01*
X42520Y228109D01*
X43096Y227727D01*
X43681Y227359D01*
X44275Y227006D01*
X44878Y226668D01*
X45488Y226344D01*
X46106Y226035D01*
X70734Y226035D01*
X84366Y269906D02*
X84366Y277406D01*
X88116Y273656D02*
X80616Y273656D01*
X194310Y279710D02*
X195001Y279702D01*
X195691Y279676D01*
X196381Y279634D01*
X197069Y279575D01*
X197756Y279499D01*
X198441Y279406D01*
X199123Y279297D01*
X199803Y279171D01*
X200479Y279028D01*
X201151Y278869D01*
X201819Y278694D01*
X202483Y278502D01*
X203142Y278294D01*
X203796Y278070D01*
X204444Y277830D01*
X205086Y277574D01*
X205721Y277303D01*
X206350Y277016D01*
X206971Y276714D01*
X207585Y276397D01*
X208191Y276065D01*
X208789Y275718D01*
X209377Y275356D01*
X209957Y274981D01*
X210528Y274591D01*
X211089Y274187D01*
X211640Y273770D01*
X212180Y273340D01*
X212710Y272896D01*
X213229Y272440D01*
X213736Y271971D01*
X214232Y271489D01*
X214716Y270996D01*
X215188Y270491D01*
X215647Y269975D01*
X216093Y269448D01*
X216527Y268909D01*
X216947Y268361D01*
X217353Y267802D01*
X217746Y267234D01*
X218125Y266656D01*
X218489Y266069D01*
X218839Y265473D01*
X219175Y264869D01*
X219495Y264257D01*
X219801Y263637D01*
X220091Y263010D01*
X220366Y262376D01*
X220625Y261735D01*
X220868Y261089D01*
X221096Y260436D01*
X221307Y259779D01*
X221503Y259116D01*
X221682Y258448D01*
X221845Y257777D01*
X221991Y257102D01*
X222121Y256423D01*
X222234Y255741D01*
X222330Y255057D01*
X222410Y254371D01*
X222472Y253683D01*
X222518Y252993D01*
X222547Y252303D01*
X222560Y251612D01*
X222555Y250921D01*
X222533Y250230D01*
X222495Y249540D01*
X222439Y248852D01*
X222367Y248165D01*
X222278Y247479D01*
X222172Y246796D01*
X222050Y246116D01*
X221911Y245440D01*
X221756Y244766D01*
X221584Y244097D01*
X221395Y243432D01*
X221191Y242772D01*
X220970Y242117D01*
X220734Y241468D01*
X220482Y240825D01*
X220214Y240188D01*
X219930Y239558D01*
X219632Y238935D01*
X219318Y238319D01*
X218989Y237712D01*
X218645Y237112D01*
X218287Y236521D01*
X217914Y235939D01*
X217528Y235367D01*
X217127Y234804D01*
X216713Y234250D01*
X216285Y233708D01*
X215845Y233176D01*
X215391Y232654D01*
X214925Y232144D01*
X214446Y231646D01*
X213956Y231159D01*
X213453Y230685D01*
X212939Y230223D01*
X212414Y229774D01*
X211879Y229338D01*
X211332Y228914D01*
X210776Y228505D01*
X210210Y228109D01*
X209634Y227727D01*
X209049Y227359D01*
X208455Y227006D01*
X207852Y226668D01*
X207242Y226344D01*
X206624Y226035D01*
X181996Y226035D02*
X181378Y226344D01*
X180768Y226668D01*
X180165Y227006D01*
X179571Y227359D01*
X178986Y227727D01*
X178410Y228109D01*
X177844Y228505D01*
X177288Y228914D01*
X176741Y229338D01*
X176206Y229774D01*
X175681Y230223D01*
X175167Y230685D01*
X174664Y231159D01*
X174174Y231646D01*
X173695Y232144D01*
X173229Y232654D01*
X172775Y233176D01*
X172335Y233708D01*
X171907Y234250D01*
X171493Y234804D01*
X171092Y235367D01*
X170706Y235939D01*
X170333Y236521D01*
X169975Y237112D01*
X169631Y237712D01*
X169302Y238319D01*
X168988Y238935D01*
X168690Y239558D01*
X168406Y240188D01*
X168138Y240825D01*
X167886Y241468D01*
X167650Y242117D01*
X167429Y242772D01*
X167225Y243432D01*
X167036Y244097D01*
X166864Y244766D01*
X166709Y245440D01*
X166570Y246116D01*
X166448Y246796D01*
X166342Y247479D01*
X166253Y248165D01*
X166181Y248852D01*
X166125Y249540D01*
X166087Y250230D01*
X166065Y250921D01*
X166060Y251612D01*
X166073Y252303D01*
X166102Y252993D01*
X166148Y253683D01*
X166210Y254371D01*
X166290Y255057D01*
X166386Y255741D01*
X166499Y256423D01*
X166629Y257102D01*
X166775Y257777D01*
X166938Y258448D01*
X167117Y259116D01*
X167313Y259779D01*
X167524Y260436D01*
X167752Y261089D01*
X167995Y261735D01*
X168254Y262376D01*
X168529Y263010D01*
X168819Y263637D01*
X169125Y264257D01*
X169445Y264869D01*
X169781Y265473D01*
X170131Y266069D01*
X170495Y266656D01*
X170874Y267234D01*
X171267Y267802D01*
X171673Y268361D01*
X172093Y268909D01*
X172527Y269448D01*
X172973Y269975D01*
X173432Y270491D01*
X173904Y270996D01*
X174388Y271489D01*
X174884Y271971D01*
X175391Y272440D01*
X175910Y272896D01*
X176440Y273340D01*
X176980Y273770D01*
X177531Y274187D01*
X178092Y274591D01*
X178663Y274981D01*
X179243Y275356D01*
X179831Y275718D01*
X180429Y276065D01*
X181035Y276397D01*
X181649Y276714D01*
X182270Y277016D01*
X182899Y277303D01*
X183534Y277574D01*
X184176Y277830D01*
X184824Y278070D01*
X185478Y278294D01*
X186137Y278502D01*
X186801Y278694D01*
X187469Y278869D01*
X188141Y279028D01*
X188817Y279171D01*
X189497Y279297D01*
X190179Y279406D01*
X190864Y279499D01*
X191551Y279575D01*
X192239Y279634D01*
X192929Y279676D01*
X193619Y279702D01*
X194310Y279710D01*
X206624Y226035D02*
X181996Y226035D01*
X220256Y269906D02*
X220256Y277406D01*
X224006Y273656D02*
X216506Y273656D01*
D11*
X160531Y127084D02*
X159916Y126886D01*
X159305Y126673D01*
X158700Y126446D01*
X158101Y126203D01*
X157508Y125947D01*
X156921Y125676D01*
X156341Y125390D01*
X155768Y125091D01*
X155202Y124778D01*
X154644Y124452D01*
X154095Y124112D01*
X153553Y123759D01*
X153020Y123392D01*
X152497Y123013D01*
X151983Y122622D01*
X151478Y122218D01*
X150983Y121802D01*
X150499Y121374D01*
X150025Y120934D01*
X149562Y120484D01*
X149109Y120022D01*
X148669Y119549D01*
X148239Y119065D01*
X147822Y118572D01*
X147417Y118068D01*
X147024Y117555D01*
X146643Y117032D01*
X146276Y116501D01*
X145921Y115960D01*
X145580Y115411D01*
X145252Y114854D01*
X144937Y114290D01*
X144637Y113717D01*
X144350Y113138D01*
X144077Y112552D01*
X143819Y111959D01*
X143575Y111361D01*
X143346Y110756D01*
X143131Y110147D01*
X142932Y109532D01*
X142747Y108912D01*
X142577Y108289D01*
X142423Y107661D01*
X142284Y107030D01*
X142160Y106395D01*
X142051Y105758D01*
X141958Y105118D01*
X141881Y104477D01*
X141819Y103833D01*
X141772Y103188D01*
X141742Y102543D01*
X141727Y101897D01*
X141727Y101250D01*
X141744Y100604D01*
X141776Y99958D01*
X141823Y99314D01*
X141886Y98670D01*
X141965Y98029D01*
X142060Y97389D01*
X142169Y96752D01*
X142294Y96118D01*
X142435Y95487D01*
X142591Y94860D01*
X142762Y94236D01*
X142948Y93617D01*
X143149Y93003D01*
X143364Y92394D01*
X143595Y91790D01*
X143840Y91192D01*
X144099Y90599D01*
X144373Y90014D01*
X144661Y89435D01*
X144963Y88863D01*
X145278Y88299D01*
X145607Y87743D01*
X145950Y87195D01*
X146306Y86655D01*
X146674Y86124D01*
X147056Y85602D01*
X147450Y85090D01*
X189350Y85090D02*
X189744Y85602D01*
X190126Y86124D01*
X190494Y86655D01*
X190850Y87195D01*
X191193Y87743D01*
X191522Y88299D01*
X191837Y88863D01*
X192139Y89435D01*
X192427Y90014D01*
X192701Y90599D01*
X192960Y91192D01*
X193205Y91790D01*
X193436Y92394D01*
X193651Y93003D01*
X193852Y93617D01*
X194038Y94236D01*
X194209Y94860D01*
X194365Y95487D01*
X194506Y96118D01*
X194631Y96752D01*
X194740Y97389D01*
X194835Y98029D01*
X194914Y98670D01*
X194977Y99314D01*
X195024Y99958D01*
X195056Y100604D01*
X195073Y101250D01*
X195073Y101897D01*
X195058Y102543D01*
X195028Y103188D01*
X194981Y103833D01*
X194919Y104477D01*
X194842Y105118D01*
X194749Y105758D01*
X194640Y106395D01*
X194516Y107030D01*
X194377Y107661D01*
X194223Y108289D01*
X194053Y108912D01*
X193868Y109532D01*
X193669Y110147D01*
X193454Y110756D01*
X193225Y111361D01*
X192981Y111959D01*
X192723Y112552D01*
X192450Y113138D01*
X192163Y113717D01*
X191863Y114290D01*
X191548Y114854D01*
X191220Y115411D01*
X190879Y115960D01*
X190524Y116501D01*
X190157Y117032D01*
X189776Y117555D01*
X189383Y118068D01*
X188978Y118572D01*
X188561Y119065D01*
X188131Y119549D01*
X187691Y120022D01*
X187238Y120484D01*
X186775Y120934D01*
X186301Y121374D01*
X185817Y121802D01*
X185322Y122218D01*
X184817Y122622D01*
X184303Y123013D01*
X183780Y123392D01*
X183247Y123759D01*
X182705Y124112D01*
X182156Y124452D01*
X181598Y124778D01*
X181032Y125091D01*
X180459Y125390D01*
X179879Y125676D01*
X179292Y125947D01*
X178699Y126203D01*
X178100Y126446D01*
X177495Y126673D01*
X176884Y126886D01*
X176269Y127084D01*
X189350Y85090D02*
X147450Y85090D01*
X145860Y99060D02*
X141850Y99060D01*
X165540Y99060D02*
X171260Y99060D01*
X190940Y99060D02*
X194950Y99060D01*
X107868Y127000D02*
X108262Y126488D01*
X108644Y125966D01*
X109012Y125435D01*
X109368Y124895D01*
X109711Y124347D01*
X110040Y123791D01*
X110355Y123227D01*
X110657Y122655D01*
X110945Y122076D01*
X111219Y121491D01*
X111478Y120898D01*
X111723Y120300D01*
X111954Y119696D01*
X112169Y119087D01*
X112370Y118473D01*
X112556Y117854D01*
X112727Y117230D01*
X112883Y116603D01*
X113024Y115972D01*
X113149Y115338D01*
X113258Y114701D01*
X113353Y114061D01*
X113432Y113420D01*
X113495Y112776D01*
X113542Y112132D01*
X113574Y111486D01*
X113591Y110840D01*
X113591Y110193D01*
X113576Y109547D01*
X113546Y108902D01*
X113499Y108257D01*
X113437Y107613D01*
X113360Y106972D01*
X113267Y106332D01*
X113158Y105695D01*
X113034Y105060D01*
X112895Y104429D01*
X112741Y103801D01*
X112571Y103178D01*
X112386Y102558D01*
X112187Y101943D01*
X111972Y101334D01*
X111743Y100729D01*
X111499Y100131D01*
X111241Y99538D01*
X110968Y98952D01*
X110681Y98373D01*
X110381Y97800D01*
X110066Y97236D01*
X109738Y96679D01*
X109397Y96130D01*
X109042Y95589D01*
X108675Y95058D01*
X108294Y94535D01*
X107901Y94022D01*
X107496Y93518D01*
X107079Y93025D01*
X106649Y92541D01*
X106209Y92068D01*
X105756Y91606D01*
X105293Y91156D01*
X104819Y90716D01*
X104335Y90288D01*
X103840Y89872D01*
X103335Y89468D01*
X102821Y89077D01*
X102298Y88698D01*
X101765Y88331D01*
X101223Y87978D01*
X100674Y87638D01*
X100116Y87312D01*
X99550Y86999D01*
X98977Y86700D01*
X98397Y86414D01*
X97810Y86143D01*
X97217Y85887D01*
X96618Y85644D01*
X96013Y85417D01*
X95402Y85204D01*
X94787Y85006D01*
X79049Y85006D02*
X78434Y85204D01*
X77823Y85417D01*
X77218Y85644D01*
X76619Y85887D01*
X76026Y86143D01*
X75439Y86414D01*
X74859Y86700D01*
X74286Y86999D01*
X73720Y87312D01*
X73162Y87638D01*
X72613Y87978D01*
X72071Y88331D01*
X71538Y88698D01*
X71015Y89077D01*
X70501Y89468D01*
X69996Y89872D01*
X69501Y90288D01*
X69017Y90716D01*
X68543Y91156D01*
X68080Y91606D01*
X67627Y92068D01*
X67187Y92541D01*
X66757Y93025D01*
X66340Y93518D01*
X65935Y94022D01*
X65542Y94535D01*
X65161Y95058D01*
X64794Y95589D01*
X64439Y96130D01*
X64098Y96679D01*
X63770Y97236D01*
X63455Y97800D01*
X63155Y98373D01*
X62868Y98952D01*
X62595Y99538D01*
X62337Y100131D01*
X62093Y100729D01*
X61864Y101334D01*
X61649Y101943D01*
X61450Y102558D01*
X61265Y103178D01*
X61095Y103801D01*
X60941Y104429D01*
X60802Y105060D01*
X60678Y105695D01*
X60569Y106332D01*
X60476Y106972D01*
X60399Y107613D01*
X60337Y108257D01*
X60290Y108902D01*
X60260Y109547D01*
X60245Y110193D01*
X60245Y110840D01*
X60262Y111486D01*
X60294Y112132D01*
X60341Y112776D01*
X60404Y113420D01*
X60483Y114061D01*
X60578Y114701D01*
X60687Y115338D01*
X60812Y115972D01*
X60953Y116603D01*
X61109Y117230D01*
X61280Y117854D01*
X61466Y118473D01*
X61667Y119087D01*
X61882Y119696D01*
X62113Y120300D01*
X62358Y120898D01*
X62617Y121491D01*
X62891Y122076D01*
X63179Y122655D01*
X63481Y123227D01*
X63796Y123791D01*
X64125Y124347D01*
X64468Y124895D01*
X64824Y125435D01*
X65192Y125966D01*
X65574Y126488D01*
X65968Y127000D01*
X107868Y127000D01*
X109458Y113030D02*
X113468Y113030D01*
X89778Y113030D02*
X84058Y113030D01*
X64378Y113030D02*
X60368Y113030D01*
D12*
X52060Y156200D02*
X31760Y156200D01*
X52060Y156200D02*
X52060Y199400D01*
X31760Y199400D01*
X31760Y156200D01*
X41910Y156200D02*
X41910Y150440D01*
X41910Y199400D02*
X41910Y205160D01*
X91450Y219700D02*
X111750Y219700D01*
X111750Y262900D01*
X91450Y262900D01*
X91450Y219700D01*
X101600Y219700D02*
X101600Y213940D01*
X101600Y262900D02*
X101600Y268660D01*
X142250Y219700D02*
X162550Y219700D01*
X162550Y262900D01*
X142250Y262900D01*
X142250Y219700D01*
X152400Y219700D02*
X152400Y213940D01*
X152400Y262900D02*
X152400Y268660D01*
X201940Y160540D02*
X222240Y160540D01*
X222240Y203740D01*
X201940Y203740D01*
X201940Y160540D01*
X212090Y160540D02*
X212090Y154780D01*
X212090Y203740D02*
X212090Y209500D01*
D13*
X113300Y279400D02*
X113304Y279736D01*
X113317Y280072D01*
X113337Y280408D01*
X113366Y280743D01*
X113403Y281077D01*
X113448Y281410D01*
X113502Y281742D01*
X113563Y282073D01*
X113633Y282402D01*
X113711Y282729D01*
X113796Y283054D01*
X113890Y283377D01*
X113991Y283697D01*
X114101Y284015D01*
X114218Y284331D01*
X114343Y284643D01*
X114475Y284952D01*
X114615Y285258D01*
X114763Y285560D01*
X114918Y285858D01*
X115080Y286153D01*
X115249Y286443D01*
X115426Y286729D01*
X115609Y287011D01*
X115799Y287289D01*
X115996Y287561D01*
X116200Y287829D01*
X116410Y288091D01*
X116626Y288348D01*
X116849Y288600D01*
X117078Y288847D01*
X117313Y289087D01*
X117553Y289322D01*
X117800Y289551D01*
X118052Y289774D01*
X118309Y289990D01*
X118571Y290200D01*
X118839Y290404D01*
X119111Y290601D01*
X119389Y290791D01*
X119671Y290974D01*
X119957Y291151D01*
X120247Y291320D01*
X120542Y291482D01*
X120840Y291637D01*
X121142Y291785D01*
X121448Y291925D01*
X121757Y292057D01*
X122069Y292182D01*
X122385Y292299D01*
X122703Y292409D01*
X123023Y292510D01*
X123346Y292604D01*
X123671Y292689D01*
X123998Y292767D01*
X124327Y292837D01*
X124658Y292898D01*
X124990Y292952D01*
X125323Y292997D01*
X125657Y293034D01*
X125992Y293063D01*
X126328Y293083D01*
X126664Y293096D01*
X127000Y293100D01*
X127336Y293096D01*
X127672Y293083D01*
X128008Y293063D01*
X128343Y293034D01*
X128677Y292997D01*
X129010Y292952D01*
X129342Y292898D01*
X129673Y292837D01*
X130002Y292767D01*
X130329Y292689D01*
X130654Y292604D01*
X130977Y292510D01*
X131297Y292409D01*
X131615Y292299D01*
X131931Y292182D01*
X132243Y292057D01*
X132552Y291925D01*
X132858Y291785D01*
X133160Y291637D01*
X133458Y291482D01*
X133753Y291320D01*
X134043Y291151D01*
X134329Y290974D01*
X134611Y290791D01*
X134889Y290601D01*
X135161Y290404D01*
X135429Y290200D01*
X135691Y289990D01*
X135948Y289774D01*
X136200Y289551D01*
X136447Y289322D01*
X136687Y289087D01*
X136922Y288847D01*
X137151Y288600D01*
X137374Y288348D01*
X137590Y288091D01*
X137800Y287829D01*
X138004Y287561D01*
X138201Y287289D01*
X138391Y287011D01*
X138574Y286729D01*
X138751Y286443D01*
X138920Y286153D01*
X139082Y285858D01*
X139237Y285560D01*
X139385Y285258D01*
X139525Y284952D01*
X139657Y284643D01*
X139782Y284331D01*
X139899Y284015D01*
X140009Y283697D01*
X140110Y283377D01*
X140204Y283054D01*
X140289Y282729D01*
X140367Y282402D01*
X140437Y282073D01*
X140498Y281742D01*
X140552Y281410D01*
X140597Y281077D01*
X140634Y280743D01*
X140663Y280408D01*
X140683Y280072D01*
X140696Y279736D01*
X140700Y279400D01*
X140696Y279064D01*
X140683Y278728D01*
X140663Y278392D01*
X140634Y278057D01*
X140597Y277723D01*
X140552Y277390D01*
X140498Y277058D01*
X140437Y276727D01*
X140367Y276398D01*
X140289Y276071D01*
X140204Y275746D01*
X140110Y275423D01*
X140009Y275103D01*
X139899Y274785D01*
X139782Y274469D01*
X139657Y274157D01*
X139525Y273848D01*
X139385Y273542D01*
X139237Y273240D01*
X139082Y272942D01*
X138920Y272647D01*
X138751Y272357D01*
X138574Y272071D01*
X138391Y271789D01*
X138201Y271511D01*
X138004Y271239D01*
X137800Y270971D01*
X137590Y270709D01*
X137374Y270452D01*
X137151Y270200D01*
X136922Y269953D01*
X136687Y269713D01*
X136447Y269478D01*
X136200Y269249D01*
X135948Y269026D01*
X135691Y268810D01*
X135429Y268600D01*
X135161Y268396D01*
X134889Y268199D01*
X134611Y268009D01*
X134329Y267826D01*
X134043Y267649D01*
X133753Y267480D01*
X133458Y267318D01*
X133160Y267163D01*
X132858Y267015D01*
X132552Y266875D01*
X132243Y266743D01*
X131931Y266618D01*
X131615Y266501D01*
X131297Y266391D01*
X130977Y266290D01*
X130654Y266196D01*
X130329Y266111D01*
X130002Y266033D01*
X129673Y265963D01*
X129342Y265902D01*
X129010Y265848D01*
X128677Y265803D01*
X128343Y265766D01*
X128008Y265737D01*
X127672Y265717D01*
X127336Y265704D01*
X127000Y265700D01*
X126664Y265704D01*
X126328Y265717D01*
X125992Y265737D01*
X125657Y265766D01*
X125323Y265803D01*
X124990Y265848D01*
X124658Y265902D01*
X124327Y265963D01*
X123998Y266033D01*
X123671Y266111D01*
X123346Y266196D01*
X123023Y266290D01*
X122703Y266391D01*
X122385Y266501D01*
X122069Y266618D01*
X121757Y266743D01*
X121448Y266875D01*
X121142Y267015D01*
X120840Y267163D01*
X120542Y267318D01*
X120247Y267480D01*
X119957Y267649D01*
X119671Y267826D01*
X119389Y268009D01*
X119111Y268199D01*
X118839Y268396D01*
X118571Y268600D01*
X118309Y268810D01*
X118052Y269026D01*
X117800Y269249D01*
X117553Y269478D01*
X117313Y269713D01*
X117078Y269953D01*
X116849Y270200D01*
X116626Y270452D01*
X116410Y270709D01*
X116200Y270971D01*
X115996Y271239D01*
X115799Y271511D01*
X115609Y271789D01*
X115426Y272071D01*
X115249Y272357D01*
X115080Y272647D01*
X114918Y272942D01*
X114763Y273240D01*
X114615Y273542D01*
X114475Y273848D01*
X114343Y274157D01*
X114218Y274469D01*
X114101Y274785D01*
X113991Y275103D01*
X113890Y275423D01*
X113796Y275746D01*
X113711Y276071D01*
X113633Y276398D01*
X113563Y276727D01*
X113502Y277058D01*
X113448Y277390D01*
X113403Y277723D01*
X113366Y278057D01*
X113337Y278392D01*
X113317Y278728D01*
X113304Y279064D01*
X113300Y279400D01*
X108730Y84390D02*
X108735Y84807D01*
X108750Y85224D01*
X108776Y85641D01*
X108812Y86056D01*
X108858Y86471D01*
X108914Y86884D01*
X108980Y87296D01*
X109057Y87707D01*
X109143Y88115D01*
X109239Y88521D01*
X109346Y88924D01*
X109462Y89325D01*
X109588Y89723D01*
X109724Y90117D01*
X109869Y90508D01*
X110024Y90896D01*
X110188Y91279D01*
X110362Y91658D01*
X110545Y92033D01*
X110737Y92404D01*
X110939Y92769D01*
X111149Y93130D01*
X111367Y93485D01*
X111595Y93835D01*
X111831Y94179D01*
X112075Y94517D01*
X112328Y94849D01*
X112589Y95175D01*
X112857Y95494D01*
X113134Y95807D01*
X113418Y96112D01*
X113709Y96411D01*
X114008Y96702D01*
X114313Y96986D01*
X114626Y97263D01*
X114945Y97531D01*
X115271Y97792D01*
X115603Y98045D01*
X115941Y98289D01*
X116285Y98525D01*
X116635Y98753D01*
X116990Y98971D01*
X117351Y99181D01*
X117716Y99383D01*
X118087Y99575D01*
X118462Y99758D01*
X118841Y99932D01*
X119224Y100096D01*
X119612Y100251D01*
X120003Y100396D01*
X120397Y100532D01*
X120795Y100658D01*
X121196Y100774D01*
X121599Y100881D01*
X122005Y100977D01*
X122413Y101063D01*
X122824Y101140D01*
X123236Y101206D01*
X123649Y101262D01*
X124064Y101308D01*
X124479Y101344D01*
X124896Y101370D01*
X125313Y101385D01*
X125730Y101390D01*
X126147Y101385D01*
X126564Y101370D01*
X126981Y101344D01*
X127396Y101308D01*
X127811Y101262D01*
X128224Y101206D01*
X128636Y101140D01*
X129047Y101063D01*
X129455Y100977D01*
X129861Y100881D01*
X130264Y100774D01*
X130665Y100658D01*
X131063Y100532D01*
X131457Y100396D01*
X131848Y100251D01*
X132236Y100096D01*
X132619Y99932D01*
X132998Y99758D01*
X133373Y99575D01*
X133744Y99383D01*
X134109Y99181D01*
X134470Y98971D01*
X134825Y98753D01*
X135175Y98525D01*
X135519Y98289D01*
X135857Y98045D01*
X136189Y97792D01*
X136515Y97531D01*
X136834Y97263D01*
X137147Y96986D01*
X137452Y96702D01*
X137751Y96411D01*
X138042Y96112D01*
X138326Y95807D01*
X138603Y95494D01*
X138871Y95175D01*
X139132Y94849D01*
X139385Y94517D01*
X139629Y94179D01*
X139865Y93835D01*
X140093Y93485D01*
X140311Y93130D01*
X140521Y92769D01*
X140723Y92404D01*
X140915Y92033D01*
X141098Y91658D01*
X141272Y91279D01*
X141436Y90896D01*
X141591Y90508D01*
X141736Y90117D01*
X141872Y89723D01*
X141998Y89325D01*
X142114Y88924D01*
X142221Y88521D01*
X142317Y88115D01*
X142403Y87707D01*
X142480Y87296D01*
X142546Y86884D01*
X142602Y86471D01*
X142648Y86056D01*
X142684Y85641D01*
X142710Y85224D01*
X142725Y84807D01*
X142730Y84390D01*
X142725Y83973D01*
X142710Y83556D01*
X142684Y83139D01*
X142648Y82724D01*
X142602Y82309D01*
X142546Y81896D01*
X142480Y81484D01*
X142403Y81073D01*
X142317Y80665D01*
X142221Y80259D01*
X142114Y79856D01*
X141998Y79455D01*
X141872Y79057D01*
X141736Y78663D01*
X141591Y78272D01*
X141436Y77884D01*
X141272Y77501D01*
X141098Y77122D01*
X140915Y76747D01*
X140723Y76376D01*
X140521Y76011D01*
X140311Y75650D01*
X140093Y75295D01*
X139865Y74945D01*
X139629Y74601D01*
X139385Y74263D01*
X139132Y73931D01*
X138871Y73605D01*
X138603Y73286D01*
X138326Y72973D01*
X138042Y72668D01*
X137751Y72369D01*
X137452Y72078D01*
X137147Y71794D01*
X136834Y71517D01*
X136515Y71249D01*
X136189Y70988D01*
X135857Y70735D01*
X135519Y70491D01*
X135175Y70255D01*
X134825Y70027D01*
X134470Y69809D01*
X134109Y69599D01*
X133744Y69397D01*
X133373Y69205D01*
X132998Y69022D01*
X132619Y68848D01*
X132236Y68684D01*
X131848Y68529D01*
X131457Y68384D01*
X131063Y68248D01*
X130665Y68122D01*
X130264Y68006D01*
X129861Y67899D01*
X129455Y67803D01*
X129047Y67717D01*
X128636Y67640D01*
X128224Y67574D01*
X127811Y67518D01*
X127396Y67472D01*
X126981Y67436D01*
X126564Y67410D01*
X126147Y67395D01*
X125730Y67390D01*
X125313Y67395D01*
X124896Y67410D01*
X124479Y67436D01*
X124064Y67472D01*
X123649Y67518D01*
X123236Y67574D01*
X122824Y67640D01*
X122413Y67717D01*
X122005Y67803D01*
X121599Y67899D01*
X121196Y68006D01*
X120795Y68122D01*
X120397Y68248D01*
X120003Y68384D01*
X119612Y68529D01*
X119224Y68684D01*
X118841Y68848D01*
X118462Y69022D01*
X118087Y69205D01*
X117716Y69397D01*
X117351Y69599D01*
X116990Y69809D01*
X116635Y70027D01*
X116285Y70255D01*
X115941Y70491D01*
X115603Y70735D01*
X115271Y70988D01*
X114945Y71249D01*
X114626Y71517D01*
X114313Y71794D01*
X114008Y72078D01*
X113709Y72369D01*
X113418Y72668D01*
X113134Y72973D01*
X112857Y73286D01*
X112589Y73605D01*
X112328Y73931D01*
X112075Y74263D01*
X111831Y74601D01*
X111595Y74945D01*
X111367Y75295D01*
X111149Y75650D01*
X110939Y76011D01*
X110737Y76376D01*
X110545Y76747D01*
X110362Y77122D01*
X110188Y77501D01*
X110024Y77884D01*
X109869Y78272D01*
X109724Y78663D01*
X109588Y79057D01*
X109462Y79455D01*
X109346Y79856D01*
X109239Y80259D01*
X109143Y80665D01*
X109057Y81073D01*
X108980Y81484D01*
X108914Y81896D01*
X108858Y82309D01*
X108812Y82724D01*
X108776Y83139D01*
X108750Y83556D01*
X108735Y83973D01*
X108730Y84390D01*
D12*
X57400Y165100D02*
X57409Y165873D01*
X57438Y166646D01*
X57485Y167417D01*
X57552Y168188D01*
X57637Y168956D01*
X57741Y169722D01*
X57864Y170485D01*
X58005Y171245D01*
X58165Y172002D01*
X58344Y172754D01*
X58541Y173501D01*
X58756Y174244D01*
X58990Y174981D01*
X59241Y175712D01*
X59511Y176437D01*
X59798Y177155D01*
X60102Y177865D01*
X60424Y178568D01*
X60763Y179263D01*
X61119Y179949D01*
X61492Y180626D01*
X61882Y181294D01*
X62287Y181952D01*
X62709Y182600D01*
X63146Y183238D01*
X63599Y183865D01*
X64067Y184480D01*
X64550Y185083D01*
X65048Y185675D01*
X65560Y186254D01*
X66086Y186821D01*
X66626Y187374D01*
X67179Y187914D01*
X67746Y188440D01*
X68325Y188952D01*
X68917Y189450D01*
X69520Y189933D01*
X70135Y190401D01*
X70762Y190854D01*
X71400Y191291D01*
X72048Y191713D01*
X72706Y192118D01*
X73374Y192508D01*
X74051Y192881D01*
X74737Y193237D01*
X75432Y193576D01*
X76135Y193898D01*
X76845Y194202D01*
X77563Y194489D01*
X78288Y194759D01*
X79019Y195010D01*
X79756Y195244D01*
X80499Y195459D01*
X81246Y195656D01*
X81998Y195835D01*
X82755Y195995D01*
X83515Y196136D01*
X84278Y196259D01*
X85044Y196363D01*
X85812Y196448D01*
X86583Y196515D01*
X87354Y196562D01*
X88127Y196591D01*
X88900Y196600D01*
X89673Y196591D01*
X90446Y196562D01*
X91217Y196515D01*
X91988Y196448D01*
X92756Y196363D01*
X93522Y196259D01*
X94285Y196136D01*
X95045Y195995D01*
X95802Y195835D01*
X96554Y195656D01*
X97301Y195459D01*
X98044Y195244D01*
X98781Y195010D01*
X99512Y194759D01*
X100237Y194489D01*
X100955Y194202D01*
X101665Y193898D01*
X102368Y193576D01*
X103063Y193237D01*
X103749Y192881D01*
X104426Y192508D01*
X105094Y192118D01*
X105752Y191713D01*
X106400Y191291D01*
X107038Y190854D01*
X107665Y190401D01*
X108280Y189933D01*
X108883Y189450D01*
X109475Y188952D01*
X110054Y188440D01*
X110621Y187914D01*
X111174Y187374D01*
X111714Y186821D01*
X112240Y186254D01*
X112752Y185675D01*
X113250Y185083D01*
X113733Y184480D01*
X114201Y183865D01*
X114654Y183238D01*
X115091Y182600D01*
X115513Y181952D01*
X115918Y181294D01*
X116308Y180626D01*
X116681Y179949D01*
X117037Y179263D01*
X117376Y178568D01*
X117698Y177865D01*
X118002Y177155D01*
X118289Y176437D01*
X118559Y175712D01*
X118810Y174981D01*
X119044Y174244D01*
X119259Y173501D01*
X119456Y172754D01*
X119635Y172002D01*
X119795Y171245D01*
X119936Y170485D01*
X120059Y169722D01*
X120163Y168956D01*
X120248Y168188D01*
X120315Y167417D01*
X120362Y166646D01*
X120391Y165873D01*
X120400Y165100D01*
X120391Y164327D01*
X120362Y163554D01*
X120315Y162783D01*
X120248Y162012D01*
X120163Y161244D01*
X120059Y160478D01*
X119936Y159715D01*
X119795Y158955D01*
X119635Y158198D01*
X119456Y157446D01*
X119259Y156699D01*
X119044Y155956D01*
X118810Y155219D01*
X118559Y154488D01*
X118289Y153763D01*
X118002Y153045D01*
X117698Y152335D01*
X117376Y151632D01*
X117037Y150937D01*
X116681Y150251D01*
X116308Y149574D01*
X115918Y148906D01*
X115513Y148248D01*
X115091Y147600D01*
X114654Y146962D01*
X114201Y146335D01*
X113733Y145720D01*
X113250Y145117D01*
X112752Y144525D01*
X112240Y143946D01*
X111714Y143379D01*
X111174Y142826D01*
X110621Y142286D01*
X110054Y141760D01*
X109475Y141248D01*
X108883Y140750D01*
X108280Y140267D01*
X107665Y139799D01*
X107038Y139346D01*
X106400Y138909D01*
X105752Y138487D01*
X105094Y138082D01*
X104426Y137692D01*
X103749Y137319D01*
X103063Y136963D01*
X102368Y136624D01*
X101665Y136302D01*
X100955Y135998D01*
X100237Y135711D01*
X99512Y135441D01*
X98781Y135190D01*
X98044Y134956D01*
X97301Y134741D01*
X96554Y134544D01*
X95802Y134365D01*
X95045Y134205D01*
X94285Y134064D01*
X93522Y133941D01*
X92756Y133837D01*
X91988Y133752D01*
X91217Y133685D01*
X90446Y133638D01*
X89673Y133609D01*
X88900Y133600D01*
X88127Y133609D01*
X87354Y133638D01*
X86583Y133685D01*
X85812Y133752D01*
X85044Y133837D01*
X84278Y133941D01*
X83515Y134064D01*
X82755Y134205D01*
X81998Y134365D01*
X81246Y134544D01*
X80499Y134741D01*
X79756Y134956D01*
X79019Y135190D01*
X78288Y135441D01*
X77563Y135711D01*
X76845Y135998D01*
X76135Y136302D01*
X75432Y136624D01*
X74737Y136963D01*
X74051Y137319D01*
X73374Y137692D01*
X72706Y138082D01*
X72048Y138487D01*
X71400Y138909D01*
X70762Y139346D01*
X70135Y139799D01*
X69520Y140267D01*
X68917Y140750D01*
X68325Y141248D01*
X67746Y141760D01*
X67179Y142286D01*
X66626Y142826D01*
X66086Y143379D01*
X65560Y143946D01*
X65048Y144525D01*
X64550Y145117D01*
X64067Y145720D01*
X63599Y146335D01*
X63146Y146962D01*
X62709Y147600D01*
X62287Y148248D01*
X61882Y148906D01*
X61492Y149574D01*
X61119Y150251D01*
X60763Y150937D01*
X60424Y151632D01*
X60102Y152335D01*
X59798Y153045D01*
X59511Y153763D01*
X59241Y154488D01*
X58990Y155219D01*
X58756Y155956D01*
X58541Y156699D01*
X58344Y157446D01*
X58165Y158198D01*
X58005Y158955D01*
X57864Y159715D01*
X57741Y160478D01*
X57637Y161244D01*
X57552Y162012D01*
X57485Y162783D01*
X57438Y163554D01*
X57409Y164327D01*
X57400Y165100D01*
X133600Y165100D02*
X133609Y165873D01*
X133638Y166646D01*
X133685Y167417D01*
X133752Y168188D01*
X133837Y168956D01*
X133941Y169722D01*
X134064Y170485D01*
X134205Y171245D01*
X134365Y172002D01*
X134544Y172754D01*
X134741Y173501D01*
X134956Y174244D01*
X135190Y174981D01*
X135441Y175712D01*
X135711Y176437D01*
X135998Y177155D01*
X136302Y177865D01*
X136624Y178568D01*
X136963Y179263D01*
X137319Y179949D01*
X137692Y180626D01*
X138082Y181294D01*
X138487Y181952D01*
X138909Y182600D01*
X139346Y183238D01*
X139799Y183865D01*
X140267Y184480D01*
X140750Y185083D01*
X141248Y185675D01*
X141760Y186254D01*
X142286Y186821D01*
X142826Y187374D01*
X143379Y187914D01*
X143946Y188440D01*
X144525Y188952D01*
X145117Y189450D01*
X145720Y189933D01*
X146335Y190401D01*
X146962Y190854D01*
X147600Y191291D01*
X148248Y191713D01*
X148906Y192118D01*
X149574Y192508D01*
X150251Y192881D01*
X150937Y193237D01*
X151632Y193576D01*
X152335Y193898D01*
X153045Y194202D01*
X153763Y194489D01*
X154488Y194759D01*
X155219Y195010D01*
X155956Y195244D01*
X156699Y195459D01*
X157446Y195656D01*
X158198Y195835D01*
X158955Y195995D01*
X159715Y196136D01*
X160478Y196259D01*
X161244Y196363D01*
X162012Y196448D01*
X162783Y196515D01*
X163554Y196562D01*
X164327Y196591D01*
X165100Y196600D01*
X165873Y196591D01*
X166646Y196562D01*
X167417Y196515D01*
X168188Y196448D01*
X168956Y196363D01*
X169722Y196259D01*
X170485Y196136D01*
X171245Y195995D01*
X172002Y195835D01*
X172754Y195656D01*
X173501Y195459D01*
X174244Y195244D01*
X174981Y195010D01*
X175712Y194759D01*
X176437Y194489D01*
X177155Y194202D01*
X177865Y193898D01*
X178568Y193576D01*
X179263Y193237D01*
X179949Y192881D01*
X180626Y192508D01*
X181294Y192118D01*
X181952Y191713D01*
X182600Y191291D01*
X183238Y190854D01*
X183865Y190401D01*
X184480Y189933D01*
X185083Y189450D01*
X185675Y188952D01*
X186254Y188440D01*
X186821Y187914D01*
X187374Y187374D01*
X187914Y186821D01*
X188440Y186254D01*
X188952Y185675D01*
X189450Y185083D01*
X189933Y184480D01*
X190401Y183865D01*
X190854Y183238D01*
X191291Y182600D01*
X191713Y181952D01*
X192118Y181294D01*
X192508Y180626D01*
X192881Y179949D01*
X193237Y179263D01*
X193576Y178568D01*
X193898Y177865D01*
X194202Y177155D01*
X194489Y176437D01*
X194759Y175712D01*
X195010Y174981D01*
X195244Y174244D01*
X195459Y173501D01*
X195656Y172754D01*
X195835Y172002D01*
X195995Y171245D01*
X196136Y170485D01*
X196259Y169722D01*
X196363Y168956D01*
X196448Y168188D01*
X196515Y167417D01*
X196562Y166646D01*
X196591Y165873D01*
X196600Y165100D01*
X196591Y164327D01*
X196562Y163554D01*
X196515Y162783D01*
X196448Y162012D01*
X196363Y161244D01*
X196259Y160478D01*
X196136Y159715D01*
X195995Y158955D01*
X195835Y158198D01*
X195656Y157446D01*
X195459Y156699D01*
X195244Y155956D01*
X195010Y155219D01*
X194759Y154488D01*
X194489Y153763D01*
X194202Y153045D01*
X193898Y152335D01*
X193576Y151632D01*
X193237Y150937D01*
X192881Y150251D01*
X192508Y149574D01*
X192118Y148906D01*
X191713Y148248D01*
X191291Y147600D01*
X190854Y146962D01*
X190401Y146335D01*
X189933Y145720D01*
X189450Y145117D01*
X188952Y144525D01*
X188440Y143946D01*
X187914Y143379D01*
X187374Y142826D01*
X186821Y142286D01*
X186254Y141760D01*
X185675Y141248D01*
X185083Y140750D01*
X184480Y140267D01*
X183865Y139799D01*
X183238Y139346D01*
X182600Y138909D01*
X181952Y138487D01*
X181294Y138082D01*
X180626Y137692D01*
X179949Y137319D01*
X179263Y136963D01*
X178568Y136624D01*
X177865Y136302D01*
X177155Y135998D01*
X176437Y135711D01*
X175712Y135441D01*
X174981Y135190D01*
X174244Y134956D01*
X173501Y134741D01*
X172754Y134544D01*
X172002Y134365D01*
X171245Y134205D01*
X170485Y134064D01*
X169722Y133941D01*
X168956Y133837D01*
X168188Y133752D01*
X167417Y133685D01*
X166646Y133638D01*
X165873Y133609D01*
X165100Y133600D01*
X164327Y133609D01*
X163554Y133638D01*
X162783Y133685D01*
X162012Y133752D01*
X161244Y133837D01*
X160478Y133941D01*
X159715Y134064D01*
X158955Y134205D01*
X158198Y134365D01*
X157446Y134544D01*
X156699Y134741D01*
X155956Y134956D01*
X155219Y135190D01*
X154488Y135441D01*
X153763Y135711D01*
X153045Y135998D01*
X152335Y136302D01*
X151632Y136624D01*
X150937Y136963D01*
X150251Y137319D01*
X149574Y137692D01*
X148906Y138082D01*
X148248Y138487D01*
X147600Y138909D01*
X146962Y139346D01*
X146335Y139799D01*
X145720Y140267D01*
X145117Y140750D01*
X144525Y141248D01*
X143946Y141760D01*
X143379Y142286D01*
X142826Y142826D01*
X142286Y143379D01*
X141760Y143946D01*
X141248Y144525D01*
X140750Y145117D01*
X140267Y145720D01*
X139799Y146335D01*
X139346Y146962D01*
X138909Y147600D01*
X138487Y148248D01*
X138082Y148906D01*
X137692Y149574D01*
X137319Y150251D01*
X136963Y150937D01*
X136624Y151632D01*
X136302Y152335D01*
X135998Y153045D01*
X135711Y153763D01*
X135441Y154488D01*
X135190Y155219D01*
X134956Y155956D01*
X134741Y156699D01*
X134544Y157446D01*
X134365Y158198D01*
X134205Y158955D01*
X134064Y159715D01*
X133941Y160478D01*
X133837Y161244D01*
X133752Y162012D01*
X133685Y162783D01*
X133638Y163554D01*
X133609Y164327D01*
X133600Y165100D01*
M02*
