G04 EAGLE Gerber RS-274X export*
G75*
%MOMM*%
%FSLAX34Y34*%
%LPD*%
%INBottom Copper*%
%IPPOS*%
%AMOC8*
5,1,8,0,0,1.08239X$1,22.5*%
G01*
G04 Define Apertures*
%ADD10C,1.450000*%
%ADD11C,1.581000*%
%ADD12C,1.168000*%
%ADD13C,1.260000*%
%ADD14C,1.508000*%
%ADD15C,2.400000*%
%ADD16C,0.508000*%
G36*
X450099Y10167D02*
X450000Y10160D01*
X50000Y10160D01*
X49901Y10167D01*
X39786Y11498D01*
X39594Y11550D01*
X30169Y15453D01*
X29997Y15553D01*
X21904Y21763D01*
X21763Y21904D01*
X15553Y29997D01*
X15453Y30169D01*
X11550Y39594D01*
X11498Y39786D01*
X10167Y49901D01*
X10160Y50000D01*
X10160Y350000D01*
X10167Y350099D01*
X11498Y360214D01*
X11550Y360406D01*
X15453Y369831D01*
X15553Y370003D01*
X21763Y378096D01*
X21904Y378237D01*
X29997Y384447D01*
X30169Y384547D01*
X39594Y388450D01*
X39786Y388502D01*
X49901Y389833D01*
X50000Y389840D01*
X450000Y389840D01*
X450099Y389833D01*
X460214Y388502D01*
X460406Y388450D01*
X469831Y384547D01*
X470003Y384447D01*
X478096Y378237D01*
X478237Y378096D01*
X484447Y370003D01*
X484547Y369831D01*
X488450Y360406D01*
X488502Y360214D01*
X489833Y350099D01*
X489840Y350000D01*
X489840Y50000D01*
X489833Y49901D01*
X488502Y39786D01*
X488450Y39594D01*
X484547Y30169D01*
X484447Y29997D01*
X478237Y21904D01*
X478096Y21763D01*
X470003Y15553D01*
X469831Y15453D01*
X460406Y11550D01*
X460214Y11498D01*
X450099Y10167D01*
G37*
%LPC*%
G36*
X446688Y324840D02*
X453312Y324840D01*
X459711Y326555D01*
X465449Y329867D01*
X470133Y334551D01*
X473445Y340289D01*
X475160Y346688D01*
X475160Y353312D01*
X473445Y359711D01*
X470133Y365449D01*
X465449Y370133D01*
X459711Y373445D01*
X453312Y375160D01*
X446688Y375160D01*
X440289Y373445D01*
X434551Y370133D01*
X429867Y365449D01*
X426555Y359711D01*
X424840Y353312D01*
X424840Y346688D01*
X426555Y340289D01*
X429867Y334551D01*
X434551Y329867D01*
X440289Y326555D01*
X446688Y324840D01*
G37*
G36*
X46688Y324840D02*
X53312Y324840D01*
X59711Y326555D01*
X65449Y329867D01*
X70133Y334551D01*
X73445Y340289D01*
X75160Y346688D01*
X75160Y353312D01*
X73445Y359711D01*
X70133Y365449D01*
X65449Y370133D01*
X59711Y373445D01*
X53312Y375160D01*
X46688Y375160D01*
X40289Y373445D01*
X34551Y370133D01*
X29867Y365449D01*
X26555Y359711D01*
X24840Y353312D01*
X24840Y346688D01*
X26555Y340289D01*
X29867Y334551D01*
X34551Y329867D01*
X40289Y326555D01*
X46688Y324840D01*
G37*
G36*
X364642Y194360D02*
X368158Y194360D01*
X371407Y195706D01*
X373894Y198193D01*
X375240Y201442D01*
X375240Y204958D01*
X373894Y208207D01*
X371703Y210398D01*
X371540Y210640D01*
X371480Y210937D01*
X371480Y321504D01*
X332304Y360680D01*
X276411Y360680D01*
X276130Y360733D01*
X275876Y360899D01*
X275707Y361150D01*
X275555Y361517D01*
X272617Y364455D01*
X268778Y366045D01*
X264622Y366045D01*
X260783Y364455D01*
X257845Y361517D01*
X256255Y357678D01*
X256255Y353522D01*
X257845Y349683D01*
X260783Y346745D01*
X264622Y345155D01*
X268778Y345155D01*
X272617Y346745D01*
X275555Y349683D01*
X275707Y350050D01*
X275863Y350288D01*
X276113Y350460D01*
X276411Y350520D01*
X327780Y350520D01*
X328066Y350464D01*
X328319Y350297D01*
X361097Y317519D01*
X361260Y317277D01*
X361320Y316980D01*
X361320Y210937D01*
X361264Y210651D01*
X361097Y210398D01*
X358906Y208207D01*
X357560Y204958D01*
X357560Y201442D01*
X358906Y198193D01*
X361393Y195706D01*
X364642Y194360D01*
G37*
G36*
X254142Y219760D02*
X257658Y219760D01*
X260907Y221106D01*
X263394Y223593D01*
X264740Y226842D01*
X264740Y230358D01*
X263394Y233607D01*
X261203Y235798D01*
X261040Y236040D01*
X260980Y236337D01*
X260980Y265004D01*
X237663Y288321D01*
X237500Y288563D01*
X237440Y288860D01*
X237440Y291958D01*
X236094Y295207D01*
X233607Y297694D01*
X230358Y299040D01*
X226842Y299040D01*
X223593Y297694D01*
X223302Y297403D01*
X223060Y297240D01*
X222763Y297180D01*
X187511Y297180D01*
X187230Y297233D01*
X186976Y297399D01*
X186807Y297650D01*
X186655Y298017D01*
X183717Y300955D01*
X183350Y301107D01*
X183112Y301263D01*
X182940Y301513D01*
X182880Y301811D01*
X182880Y302380D01*
X182936Y302666D01*
X183103Y302919D01*
X200205Y320021D01*
X200441Y320181D01*
X200738Y320244D01*
X201036Y320186D01*
X201195Y320120D01*
X205205Y320120D01*
X208910Y321655D01*
X211745Y324490D01*
X213280Y328195D01*
X213280Y332205D01*
X213214Y332364D01*
X213156Y332644D01*
X213212Y332942D01*
X213379Y333195D01*
X230481Y350297D01*
X230723Y350460D01*
X231020Y350520D01*
X231589Y350520D01*
X231870Y350467D01*
X232124Y350301D01*
X232293Y350050D01*
X232445Y349683D01*
X235383Y346745D01*
X239222Y345155D01*
X243378Y345155D01*
X247217Y346745D01*
X250155Y349683D01*
X251745Y353522D01*
X251745Y357678D01*
X250155Y361517D01*
X247217Y364455D01*
X243378Y366045D01*
X239222Y366045D01*
X235383Y364455D01*
X232445Y361517D01*
X232293Y361150D01*
X232137Y360912D01*
X231887Y360740D01*
X231589Y360680D01*
X226496Y360680D01*
X206195Y340379D01*
X205959Y340219D01*
X205662Y340156D01*
X205364Y340214D01*
X205205Y340280D01*
X201195Y340280D01*
X197490Y338745D01*
X194655Y335910D01*
X193120Y332205D01*
X193120Y328195D01*
X193186Y328036D01*
X193244Y327756D01*
X193188Y327458D01*
X193021Y327205D01*
X172720Y306904D01*
X172720Y301811D01*
X172667Y301530D01*
X172501Y301276D01*
X172250Y301107D01*
X171883Y300955D01*
X168945Y298017D01*
X167355Y294178D01*
X167355Y290022D01*
X168945Y286183D01*
X171883Y283245D01*
X175722Y281655D01*
X179878Y281655D01*
X183717Y283245D01*
X186655Y286183D01*
X186807Y286550D01*
X186963Y286788D01*
X187213Y286960D01*
X187511Y287020D01*
X219840Y287020D01*
X220120Y286967D01*
X220374Y286801D01*
X220544Y286550D01*
X221106Y285193D01*
X223593Y282706D01*
X226842Y281360D01*
X229940Y281360D01*
X230226Y281304D01*
X230479Y281137D01*
X250597Y261019D01*
X250760Y260777D01*
X250820Y260480D01*
X250820Y236337D01*
X250764Y236051D01*
X250597Y235798D01*
X248406Y233607D01*
X247060Y230358D01*
X247060Y226842D01*
X248406Y223593D01*
X250893Y221106D01*
X254142Y219760D01*
G37*
G36*
X200453Y114010D02*
X204347Y114010D01*
X207946Y115500D01*
X210700Y118254D01*
X212190Y121853D01*
X212190Y125747D01*
X210700Y129346D01*
X207942Y132103D01*
X207712Y132254D01*
X207540Y132504D01*
X207480Y132802D01*
X207480Y161880D01*
X207536Y162166D01*
X207703Y162419D01*
X214481Y169197D01*
X214723Y169360D01*
X215020Y169420D01*
X217567Y169420D01*
X220396Y170592D01*
X220658Y170649D01*
X220957Y170601D01*
X221214Y170440D01*
X221387Y170191D01*
X221450Y169894D01*
X221392Y169596D01*
X220220Y166767D01*
X220220Y166370D01*
X227330Y166370D01*
X227330Y173480D01*
X226933Y173480D01*
X224104Y172308D01*
X223842Y172251D01*
X223543Y172299D01*
X223286Y172460D01*
X223113Y172709D01*
X223050Y173006D01*
X223108Y173304D01*
X224280Y176133D01*
X224280Y179467D01*
X223108Y182296D01*
X223051Y182558D01*
X223099Y182857D01*
X223260Y183114D01*
X223509Y183287D01*
X223806Y183350D01*
X224104Y183292D01*
X226933Y182120D01*
X230267Y182120D01*
X233347Y183396D01*
X235148Y185197D01*
X235390Y185360D01*
X235687Y185420D01*
X283404Y185420D01*
X292121Y194137D01*
X292363Y194300D01*
X292660Y194360D01*
X295758Y194360D01*
X299007Y195706D01*
X301494Y198193D01*
X302840Y201442D01*
X302840Y204958D01*
X301494Y208207D01*
X299303Y210398D01*
X299140Y210640D01*
X299080Y210937D01*
X299080Y289014D01*
X298767Y289327D01*
X298607Y289563D01*
X298544Y289860D01*
X298600Y290147D01*
X298600Y294047D01*
X297110Y297646D01*
X294356Y300400D01*
X290757Y301890D01*
X286863Y301890D01*
X283264Y300400D01*
X280510Y297646D01*
X279020Y294047D01*
X279020Y290153D01*
X280510Y286554D01*
X283264Y283800D01*
X286863Y282310D01*
X288158Y282310D01*
X288433Y282259D01*
X288688Y282095D01*
X288860Y281845D01*
X288920Y281548D01*
X288920Y210937D01*
X288864Y210651D01*
X288697Y210398D01*
X286506Y208207D01*
X285160Y204958D01*
X285160Y201860D01*
X285104Y201574D01*
X284937Y201321D01*
X279419Y195803D01*
X279177Y195640D01*
X278880Y195580D01*
X235687Y195580D01*
X235401Y195636D01*
X235148Y195803D01*
X233347Y197604D01*
X230267Y198880D01*
X226933Y198880D01*
X223853Y197604D01*
X222281Y196032D01*
X222061Y195879D01*
X221766Y195809D01*
X221467Y195860D01*
X221212Y196023D01*
X221040Y196274D01*
X220980Y196571D01*
X220980Y202680D01*
X221036Y202966D01*
X221203Y203219D01*
X226721Y208737D01*
X226963Y208900D01*
X227260Y208960D01*
X230358Y208960D01*
X233607Y210306D01*
X236094Y212793D01*
X237440Y216042D01*
X237440Y219558D01*
X236094Y222807D01*
X233607Y225294D01*
X230358Y226640D01*
X226842Y226640D01*
X223593Y225294D01*
X221106Y222807D01*
X219760Y219558D01*
X219760Y216460D01*
X219704Y216174D01*
X219537Y215921D01*
X210820Y207204D01*
X210820Y184887D01*
X210764Y184601D01*
X210597Y184348D01*
X208796Y182547D01*
X207520Y179467D01*
X207520Y176920D01*
X207464Y176634D01*
X207297Y176381D01*
X197320Y166404D01*
X197320Y132802D01*
X197267Y132521D01*
X197101Y132267D01*
X196858Y132103D01*
X194100Y129346D01*
X192610Y125747D01*
X192610Y121853D01*
X194100Y118254D01*
X196854Y115500D01*
X200453Y114010D01*
G37*
G36*
X200453Y63210D02*
X204347Y63210D01*
X207946Y64700D01*
X210774Y67528D01*
X210813Y67588D01*
X211063Y67760D01*
X211360Y67820D01*
X256104Y67820D01*
X328781Y140497D01*
X329023Y140660D01*
X329320Y140720D01*
X331867Y140720D01*
X334947Y141996D01*
X337304Y144353D01*
X338580Y147433D01*
X338580Y150767D01*
X337408Y153596D01*
X337351Y153858D01*
X337399Y154157D01*
X337560Y154414D01*
X337809Y154587D01*
X338106Y154650D01*
X338404Y154592D01*
X341233Y153420D01*
X344567Y153420D01*
X347647Y154696D01*
X350004Y157053D01*
X351280Y160133D01*
X351280Y163467D01*
X350004Y166547D01*
X348203Y168348D01*
X348040Y168590D01*
X347980Y168887D01*
X347980Y216104D01*
X337363Y226721D01*
X337200Y226963D01*
X337140Y227260D01*
X337140Y229940D01*
X337196Y230226D01*
X337363Y230479D01*
X344690Y237806D01*
X344690Y283098D01*
X344743Y283379D01*
X344909Y283633D01*
X345152Y283797D01*
X347910Y286554D01*
X349400Y290153D01*
X349400Y294047D01*
X347910Y297646D01*
X345156Y300400D01*
X341557Y301890D01*
X337663Y301890D01*
X334064Y300400D01*
X331310Y297646D01*
X329820Y294047D01*
X329820Y290153D01*
X331310Y286554D01*
X334068Y283797D01*
X334298Y283646D01*
X334470Y283396D01*
X334530Y283098D01*
X334530Y242330D01*
X334474Y242044D01*
X334307Y241791D01*
X330179Y237663D01*
X329937Y237500D01*
X329640Y237440D01*
X326542Y237440D01*
X323293Y236094D01*
X320806Y233607D01*
X319460Y230358D01*
X319460Y226842D01*
X320806Y223593D01*
X323293Y221106D01*
X326542Y219760D01*
X329640Y219760D01*
X329926Y219704D01*
X330179Y219537D01*
X337597Y212119D01*
X337760Y211877D01*
X337820Y211580D01*
X337820Y180571D01*
X337773Y180307D01*
X337614Y180049D01*
X337366Y179874D01*
X337070Y179809D01*
X336772Y179864D01*
X336519Y180032D01*
X334947Y181604D01*
X331867Y182880D01*
X331470Y182880D01*
X331470Y166120D01*
X331867Y166120D01*
X334696Y167292D01*
X334958Y167349D01*
X335257Y167301D01*
X335514Y167140D01*
X335687Y166891D01*
X335750Y166594D01*
X335692Y166296D01*
X334520Y163467D01*
X334520Y160133D01*
X335692Y157304D01*
X335749Y157042D01*
X335701Y156743D01*
X335540Y156486D01*
X335291Y156313D01*
X334994Y156250D01*
X334696Y156308D01*
X331867Y157480D01*
X328533Y157480D01*
X325453Y156204D01*
X323096Y153847D01*
X321820Y150767D01*
X321820Y148220D01*
X321764Y147934D01*
X321597Y147681D01*
X252119Y78203D01*
X251877Y78040D01*
X251580Y77980D01*
X211443Y77980D01*
X211163Y78033D01*
X210909Y78199D01*
X210739Y78450D01*
X210700Y78546D01*
X207946Y81300D01*
X204347Y82790D01*
X200327Y82790D01*
X200282Y82781D01*
X199984Y82840D01*
X199734Y83011D01*
X183096Y100073D01*
X182940Y100307D01*
X182880Y100605D01*
X182880Y146563D01*
X182936Y146849D01*
X183103Y147102D01*
X185294Y149293D01*
X186640Y152542D01*
X186640Y156058D01*
X185294Y159307D01*
X182807Y161794D01*
X179558Y163140D01*
X176042Y163140D01*
X172793Y161794D01*
X170306Y159307D01*
X168960Y156058D01*
X168960Y152542D01*
X170306Y149293D01*
X172497Y147102D01*
X172660Y146860D01*
X172720Y146563D01*
X172720Y98265D01*
X172720Y98256D01*
X172693Y96150D01*
X174181Y94662D01*
X174188Y94655D01*
X192497Y75880D01*
X192650Y75651D01*
X192713Y75354D01*
X192655Y75056D01*
X192610Y74947D01*
X192610Y71053D01*
X194100Y67454D01*
X196854Y64700D01*
X200453Y63210D01*
G37*
G36*
X176042Y217860D02*
X179558Y217860D01*
X182807Y219206D01*
X185294Y221693D01*
X186640Y224942D01*
X186640Y228458D01*
X185294Y231707D01*
X183103Y233898D01*
X182940Y234140D01*
X182880Y234437D01*
X182880Y256989D01*
X182933Y257270D01*
X183099Y257524D01*
X183350Y257693D01*
X183717Y257845D01*
X186655Y260783D01*
X188245Y264622D01*
X188245Y268778D01*
X186655Y272617D01*
X183717Y275555D01*
X179878Y277145D01*
X175722Y277145D01*
X171883Y275555D01*
X168945Y272617D01*
X167355Y268778D01*
X167355Y264622D01*
X168945Y260783D01*
X171883Y257845D01*
X172250Y257693D01*
X172488Y257537D01*
X172660Y257287D01*
X172720Y256989D01*
X172720Y234437D01*
X172664Y234151D01*
X172497Y233898D01*
X170306Y231707D01*
X168960Y228458D01*
X168960Y224942D01*
X170306Y221693D01*
X172793Y219206D01*
X176042Y217860D01*
G37*
G36*
X321820Y175770D02*
X328930Y175770D01*
X328930Y182880D01*
X328533Y182880D01*
X325453Y181604D01*
X323096Y179247D01*
X321820Y176167D01*
X321820Y175770D01*
G37*
G36*
X264860Y163130D02*
X278130Y163130D01*
X278130Y176400D01*
X276508Y176400D01*
X271164Y174186D01*
X267074Y170096D01*
X264860Y164752D01*
X264860Y163130D01*
G37*
G36*
X280670Y163130D02*
X293940Y163130D01*
X293940Y164752D01*
X291726Y170096D01*
X287636Y174186D01*
X282292Y176400D01*
X280670Y176400D01*
X280670Y163130D01*
G37*
G36*
X229870Y166370D02*
X236980Y166370D01*
X236980Y166767D01*
X235704Y169847D01*
X233347Y172204D01*
X230267Y173480D01*
X229870Y173480D01*
X229870Y166370D01*
G37*
G36*
X328533Y166120D02*
X328930Y166120D01*
X328930Y173230D01*
X321820Y173230D01*
X321820Y172833D01*
X323096Y169753D01*
X325453Y167396D01*
X328533Y166120D01*
G37*
G36*
X229870Y156720D02*
X230267Y156720D01*
X233347Y157996D01*
X235704Y160353D01*
X236980Y163433D01*
X236980Y163830D01*
X229870Y163830D01*
X229870Y156720D01*
G37*
G36*
X226933Y156720D02*
X227330Y156720D01*
X227330Y163830D01*
X220220Y163830D01*
X220220Y163433D01*
X221496Y160353D01*
X223853Y157996D01*
X226933Y156720D01*
G37*
G36*
X280670Y147320D02*
X282292Y147320D01*
X287636Y149534D01*
X291726Y153624D01*
X293940Y158968D01*
X293940Y160590D01*
X280670Y160590D01*
X280670Y147320D01*
G37*
G36*
X276508Y147320D02*
X278130Y147320D01*
X278130Y160590D01*
X264860Y160590D01*
X264860Y158968D01*
X267074Y153624D01*
X271164Y149534D01*
X276508Y147320D01*
G37*
G36*
X446688Y24840D02*
X453312Y24840D01*
X459711Y26555D01*
X465449Y29867D01*
X470133Y34551D01*
X473445Y40289D01*
X475160Y46688D01*
X475160Y53312D01*
X473445Y59711D01*
X470133Y65449D01*
X465449Y70133D01*
X459711Y73445D01*
X453312Y75160D01*
X446688Y75160D01*
X440289Y73445D01*
X434551Y70133D01*
X429867Y65449D01*
X426555Y59711D01*
X424840Y53312D01*
X424840Y46688D01*
X426555Y40289D01*
X429867Y34551D01*
X434551Y29867D01*
X440289Y26555D01*
X446688Y24840D01*
G37*
G36*
X46688Y24840D02*
X53312Y24840D01*
X59711Y26555D01*
X65449Y29867D01*
X70133Y34551D01*
X73445Y40289D01*
X75160Y46688D01*
X75160Y53312D01*
X73445Y59711D01*
X70133Y65449D01*
X65449Y70133D01*
X59711Y73445D01*
X53312Y75160D01*
X46688Y75160D01*
X40289Y73445D01*
X34551Y70133D01*
X29867Y65449D01*
X26555Y59711D01*
X24840Y53312D01*
X24840Y46688D01*
X26555Y40289D01*
X29867Y34551D01*
X34551Y29867D01*
X40289Y26555D01*
X46688Y24840D01*
G37*
%LPD*%
D10*
X202400Y73000D03*
X202400Y123800D03*
X288810Y292100D03*
X339610Y292100D03*
D11*
X177800Y292100D03*
X177800Y266700D03*
X241300Y355600D03*
X266700Y355600D03*
D12*
X330200Y174500D03*
X342900Y161800D03*
X330200Y149100D03*
X228600Y165100D03*
X215900Y177800D03*
X228600Y190500D03*
D13*
X177800Y154300D03*
X177800Y226700D03*
X228600Y217800D03*
X228600Y290200D03*
X328300Y228600D03*
X255900Y228600D03*
X294000Y203200D03*
X366400Y203200D03*
D14*
X203200Y330200D03*
D15*
X279400Y161860D03*
D16*
X177800Y226700D02*
X177800Y266700D01*
X330200Y355600D02*
X366400Y319400D01*
X366400Y203200D01*
X330200Y355600D02*
X266700Y355600D01*
X177800Y154300D02*
X177800Y98228D01*
X202400Y73000D01*
X202500Y72900D01*
X254000Y72900D02*
X330200Y149100D01*
X254000Y72900D02*
X202500Y72900D01*
X215900Y205100D02*
X228600Y217800D01*
X215900Y205100D02*
X215900Y177800D01*
X202400Y164300D02*
X202400Y123800D01*
X202400Y164300D02*
X215900Y177800D01*
X339610Y239910D02*
X339610Y292100D01*
X339610Y239910D02*
X328300Y228600D01*
X342900Y214000D01*
X342900Y161800D01*
X294000Y203200D02*
X281300Y190500D01*
X228600Y190500D01*
X294000Y286910D02*
X288810Y292100D01*
X294000Y286910D02*
X294000Y203200D01*
X226700Y292100D02*
X177800Y292100D01*
X226700Y292100D02*
X228600Y290200D01*
X255900Y262900D01*
X255900Y228600D01*
X177800Y292100D02*
X177800Y304800D01*
X203200Y330200D01*
X228600Y355600D01*
X241300Y355600D01*
X276160Y165100D02*
X279400Y161860D01*
X317560Y161860D02*
X330200Y174500D01*
X317560Y161860D02*
X279400Y161860D01*
X276160Y165100D02*
X228600Y165100D01*
M02*
