G04 EAGLE Gerber RS-274X export*
G75*
%MOMM*%
%FSLAX34Y34*%
%LPD*%
%IN*%
%IPPOS*%
%AMOC8*
5,1,8,0,0,1.08239X$1,22.5*%
G01*
G04 Define Apertures*
%ADD10C,0.254000*%
D10*
X0Y50000D02*
X190Y45642D01*
X760Y41318D01*
X1704Y37059D01*
X3015Y32899D01*
X4685Y28869D01*
X6699Y25000D01*
X9042Y21321D01*
X11698Y17861D01*
X14645Y14645D01*
X17861Y11698D01*
X21321Y9042D01*
X25000Y6699D01*
X28869Y4685D01*
X32899Y3015D01*
X37059Y1704D01*
X41318Y760D01*
X45642Y190D01*
X50000Y0D01*
X450000Y0D01*
X454358Y190D01*
X458682Y760D01*
X462941Y1704D01*
X467101Y3015D01*
X471131Y4685D01*
X475000Y6699D01*
X478679Y9042D01*
X482139Y11698D01*
X485355Y14645D01*
X488302Y17861D01*
X490958Y21321D01*
X493301Y25000D01*
X495315Y28869D01*
X496985Y32899D01*
X498296Y37059D01*
X499240Y41318D01*
X499810Y45642D01*
X500000Y50000D01*
X500000Y350000D01*
X499810Y354358D01*
X499240Y358682D01*
X498296Y362941D01*
X496985Y367101D01*
X495315Y371131D01*
X493301Y375000D01*
X490958Y378679D01*
X488302Y382139D01*
X485355Y385355D01*
X482139Y388302D01*
X478679Y390958D01*
X475000Y393301D01*
X471131Y395315D01*
X467101Y396985D01*
X462941Y398296D01*
X458682Y399240D01*
X454358Y399810D01*
X450000Y400000D01*
X50000Y400000D01*
X45642Y399810D01*
X41318Y399240D01*
X37059Y398296D01*
X32899Y396985D01*
X28869Y395315D01*
X25000Y393301D01*
X21321Y390958D01*
X17861Y388302D01*
X14645Y385355D01*
X11698Y382139D01*
X9042Y378679D01*
X6699Y375000D01*
X4685Y371131D01*
X3015Y367101D01*
X1704Y362941D01*
X760Y358682D01*
X190Y354358D01*
X0Y350000D01*
X0Y50000D01*
M02*
