G04 EAGLE Gerber RS-274X export*
G75*
%MOMM*%
%FSLAX34Y34*%
%LPD*%
%INSilkscreen Top*%
%IPPOS*%
%AMOC8*
5,1,8,0,0,1.08239X$1,22.5*%
G01*
G04 Define Apertures*
%ADD10C,0.120000*%
%ADD11C,0.200000*%
%ADD12C,0.127000*%
G36*
X139823Y87842D02*
X139459Y87848D01*
X139105Y87867D01*
X138761Y87898D01*
X138427Y87942D01*
X138103Y87998D01*
X137789Y88066D01*
X137485Y88147D01*
X137191Y88241D01*
X136907Y88347D01*
X136633Y88465D01*
X136115Y88739D01*
X135636Y89063D01*
X135198Y89436D01*
X134806Y89854D01*
X134466Y90310D01*
X134316Y90552D01*
X134179Y90804D01*
X134055Y91066D01*
X133944Y91337D01*
X133846Y91617D01*
X133761Y91908D01*
X133689Y92208D01*
X133630Y92517D01*
X133584Y92836D01*
X133551Y93165D01*
X133532Y93503D01*
X133525Y93851D01*
X133537Y94333D01*
X133573Y94795D01*
X133634Y95237D01*
X133718Y95659D01*
X133826Y96061D01*
X133959Y96442D01*
X134115Y96803D01*
X134296Y97144D01*
X134500Y97463D01*
X134728Y97761D01*
X134979Y98037D01*
X135253Y98291D01*
X135550Y98523D01*
X135871Y98733D01*
X136215Y98922D01*
X136582Y99088D01*
X137108Y97503D01*
X136846Y97387D01*
X136601Y97256D01*
X136371Y97108D01*
X136157Y96943D01*
X135959Y96763D01*
X135777Y96566D01*
X135611Y96353D01*
X135461Y96123D01*
X135328Y95880D01*
X135212Y95626D01*
X135114Y95361D01*
X135034Y95084D01*
X134972Y94797D01*
X134927Y94498D01*
X134901Y94189D01*
X134892Y93868D01*
X134912Y93370D01*
X134974Y92900D01*
X135077Y92459D01*
X135221Y92046D01*
X135407Y91662D01*
X135633Y91306D01*
X135901Y90979D01*
X136210Y90680D01*
X136555Y90413D01*
X136930Y90182D01*
X137336Y89986D01*
X137772Y89826D01*
X138239Y89701D01*
X138736Y89612D01*
X139264Y89559D01*
X139823Y89541D01*
X140376Y89560D01*
X140901Y89615D01*
X141399Y89708D01*
X141869Y89838D01*
X142311Y90005D01*
X142725Y90209D01*
X143112Y90450D01*
X143471Y90728D01*
X143794Y91038D01*
X144074Y91374D01*
X144311Y91736D01*
X144505Y92124D01*
X144656Y92538D01*
X144764Y92979D01*
X144829Y93445D01*
X144850Y93938D01*
X144840Y94257D01*
X144810Y94566D01*
X144760Y94865D01*
X144690Y95154D01*
X144599Y95433D01*
X144489Y95701D01*
X144359Y95960D01*
X144209Y96209D01*
X144038Y96447D01*
X143848Y96676D01*
X143637Y96894D01*
X143407Y97103D01*
X143156Y97301D01*
X142885Y97489D01*
X142595Y97667D01*
X142284Y97836D01*
X142967Y99202D01*
X143354Y99002D01*
X143716Y98782D01*
X144055Y98544D01*
X144371Y98286D01*
X144662Y98008D01*
X144929Y97712D01*
X145173Y97396D01*
X145393Y97061D01*
X145588Y96709D01*
X145757Y96343D01*
X145900Y95964D01*
X146017Y95570D01*
X146108Y95163D01*
X146173Y94743D01*
X146212Y94308D01*
X146225Y93859D01*
X146213Y93401D01*
X146177Y92958D01*
X146116Y92531D01*
X146031Y92120D01*
X145922Y91724D01*
X145789Y91344D01*
X145632Y90980D01*
X145450Y90632D01*
X145246Y90301D01*
X145021Y89991D01*
X144775Y89701D01*
X144509Y89432D01*
X144221Y89182D01*
X143913Y88953D01*
X143584Y88745D01*
X143234Y88556D01*
X142866Y88389D01*
X142481Y88244D01*
X142079Y88121D01*
X141661Y88021D01*
X141226Y87943D01*
X140775Y87887D01*
X140307Y87853D01*
X139823Y87842D01*
G37*
G36*
X146050Y101266D02*
X144710Y101266D01*
X144710Y104411D01*
X135216Y104411D01*
X137204Y101625D01*
X135715Y101625D01*
X133709Y104542D01*
X133709Y105996D01*
X144710Y105996D01*
X144710Y109000D01*
X146050Y109000D01*
X146050Y101266D01*
G37*
G36*
X247439Y287315D02*
X246981Y287327D01*
X246538Y287363D01*
X246111Y287424D01*
X245700Y287509D01*
X245304Y287618D01*
X244924Y287751D01*
X244560Y287908D01*
X244212Y288090D01*
X243881Y288294D01*
X243571Y288519D01*
X243281Y288765D01*
X243012Y289032D01*
X242762Y289319D01*
X242533Y289627D01*
X242325Y289956D01*
X242136Y290306D01*
X241969Y290674D01*
X241824Y291059D01*
X241701Y291461D01*
X241601Y291879D01*
X241523Y292314D01*
X241467Y292765D01*
X241433Y293233D01*
X241422Y293717D01*
X241428Y294081D01*
X241447Y294435D01*
X241478Y294779D01*
X241522Y295113D01*
X241578Y295437D01*
X241646Y295751D01*
X241727Y296055D01*
X241821Y296349D01*
X241927Y296633D01*
X242045Y296907D01*
X242319Y297425D01*
X242643Y297904D01*
X243016Y298342D01*
X243434Y298734D01*
X243890Y299074D01*
X244132Y299224D01*
X244384Y299361D01*
X244646Y299485D01*
X244917Y299596D01*
X245197Y299695D01*
X245488Y299779D01*
X245788Y299851D01*
X246097Y299910D01*
X246416Y299956D01*
X246745Y299989D01*
X247083Y300008D01*
X247431Y300015D01*
X247913Y300003D01*
X248375Y299967D01*
X248817Y299906D01*
X249239Y299822D01*
X249641Y299714D01*
X250022Y299581D01*
X250383Y299425D01*
X250724Y299244D01*
X251043Y299040D01*
X251341Y298812D01*
X251617Y298561D01*
X251871Y298287D01*
X252103Y297990D01*
X252313Y297669D01*
X252502Y297325D01*
X252668Y296958D01*
X251083Y296432D01*
X250967Y296694D01*
X250836Y296939D01*
X250688Y297169D01*
X250523Y297383D01*
X250343Y297581D01*
X250146Y297763D01*
X249933Y297929D01*
X249703Y298079D01*
X249460Y298213D01*
X249206Y298328D01*
X248941Y298426D01*
X248664Y298506D01*
X248377Y298568D01*
X248078Y298613D01*
X247769Y298639D01*
X247448Y298648D01*
X246950Y298628D01*
X246480Y298566D01*
X246039Y298463D01*
X245626Y298319D01*
X245242Y298133D01*
X244886Y297907D01*
X244559Y297639D01*
X244260Y297330D01*
X243993Y296985D01*
X243762Y296610D01*
X243566Y296204D01*
X243406Y295768D01*
X243281Y295301D01*
X243192Y294804D01*
X243139Y294276D01*
X243121Y293717D01*
X243140Y293164D01*
X243195Y292639D01*
X243288Y292141D01*
X243418Y291671D01*
X243585Y291229D01*
X243789Y290815D01*
X244030Y290428D01*
X244308Y290069D01*
X244618Y289746D01*
X244954Y289466D01*
X245316Y289229D01*
X245704Y289035D01*
X246118Y288884D01*
X246559Y288776D01*
X247025Y288711D01*
X247518Y288690D01*
X247837Y288700D01*
X248146Y288730D01*
X248445Y288780D01*
X248734Y288850D01*
X249013Y288941D01*
X249281Y289051D01*
X249540Y289181D01*
X249789Y289331D01*
X250027Y289502D01*
X250256Y289692D01*
X250474Y289903D01*
X250683Y290133D01*
X250881Y290384D01*
X251069Y290655D01*
X251247Y290945D01*
X251416Y291256D01*
X252782Y290573D01*
X252582Y290186D01*
X252362Y289824D01*
X252124Y289485D01*
X251866Y289169D01*
X251588Y288878D01*
X251292Y288611D01*
X250976Y288367D01*
X250641Y288147D01*
X250289Y287952D01*
X249923Y287783D01*
X249544Y287640D01*
X249150Y287523D01*
X248743Y287432D01*
X248323Y287367D01*
X247888Y287328D01*
X247439Y287315D01*
G37*
G36*
X262554Y287490D02*
X254382Y287490D01*
X254382Y288602D01*
X254618Y289100D01*
X254878Y289567D01*
X255163Y290004D01*
X255473Y290411D01*
X255799Y290794D01*
X256133Y291158D01*
X256475Y291503D01*
X256826Y291830D01*
X257532Y292442D01*
X258232Y293008D01*
X258894Y293551D01*
X259488Y294094D01*
X259755Y294369D01*
X259995Y294650D01*
X260208Y294938D01*
X260395Y295233D01*
X260546Y295540D01*
X260654Y295868D01*
X260719Y296215D01*
X260741Y296581D01*
X260732Y296828D01*
X260704Y297061D01*
X260657Y297279D01*
X260592Y297483D01*
X260508Y297673D01*
X260406Y297849D01*
X260285Y298011D01*
X260145Y298158D01*
X259989Y298289D01*
X259818Y298403D01*
X259633Y298499D01*
X259434Y298578D01*
X259219Y298640D01*
X258991Y298683D01*
X258748Y298710D01*
X258490Y298718D01*
X258244Y298710D01*
X258008Y298684D01*
X257784Y298641D01*
X257571Y298582D01*
X257369Y298505D01*
X257179Y298411D01*
X256999Y298299D01*
X256830Y298171D01*
X256675Y298027D01*
X256538Y297870D01*
X256417Y297698D01*
X256312Y297513D01*
X256225Y297314D01*
X256154Y297101D01*
X256101Y296874D01*
X256064Y296634D01*
X254452Y296783D01*
X254510Y297143D01*
X254596Y297485D01*
X254711Y297808D01*
X254854Y298112D01*
X255025Y298397D01*
X255225Y298663D01*
X255453Y298910D01*
X255709Y299139D01*
X255989Y299344D01*
X256288Y299522D01*
X256607Y299673D01*
X256945Y299796D01*
X257302Y299892D01*
X257679Y299960D01*
X258075Y300001D01*
X258490Y300015D01*
X258943Y300001D01*
X259369Y299960D01*
X259768Y299891D01*
X260140Y299795D01*
X260485Y299671D01*
X260803Y299520D01*
X261094Y299341D01*
X261358Y299134D01*
X261593Y298903D01*
X261797Y298648D01*
X261969Y298370D01*
X262110Y298069D01*
X262220Y297745D01*
X262298Y297398D01*
X262345Y297027D01*
X262361Y296634D01*
X262341Y296275D01*
X262279Y295918D01*
X262176Y295562D01*
X262033Y295206D01*
X261849Y294852D01*
X261624Y294497D01*
X261360Y294142D01*
X261056Y293787D01*
X260658Y293384D01*
X260112Y292883D01*
X259419Y292285D01*
X258577Y291589D01*
X258100Y291187D01*
X257673Y290806D01*
X257298Y290445D01*
X256975Y290104D01*
X256698Y289777D01*
X256462Y289455D01*
X256269Y289140D01*
X256116Y288830D01*
X262554Y288830D01*
X262554Y287490D01*
G37*
G36*
X143996Y238923D02*
X131655Y238923D01*
X131655Y243004D01*
X131661Y243391D01*
X131680Y243766D01*
X131711Y244130D01*
X131754Y244482D01*
X131809Y244824D01*
X131876Y245154D01*
X131956Y245474D01*
X132048Y245782D01*
X132153Y246079D01*
X132269Y246364D01*
X132398Y246639D01*
X132540Y246902D01*
X132693Y247154D01*
X132859Y247395D01*
X133037Y247625D01*
X133227Y247843D01*
X133429Y248050D01*
X133641Y248243D01*
X133864Y248422D01*
X134096Y248589D01*
X134340Y248742D01*
X134593Y248881D01*
X134857Y249008D01*
X135131Y249121D01*
X135416Y249221D01*
X135711Y249307D01*
X136016Y249380D01*
X136332Y249440D01*
X136658Y249487D01*
X136995Y249520D01*
X137341Y249540D01*
X137699Y249547D01*
X138169Y249535D01*
X138623Y249500D01*
X139064Y249442D01*
X139489Y249361D01*
X139899Y249256D01*
X140294Y249128D01*
X140675Y248977D01*
X141040Y248802D01*
X141388Y248606D01*
X141714Y248391D01*
X142020Y248157D01*
X142305Y247902D01*
X142568Y247629D01*
X142811Y247336D01*
X143033Y247023D01*
X143234Y246692D01*
X143413Y246343D01*
X143567Y245982D01*
X143698Y245608D01*
X143806Y245220D01*
X143889Y244819D01*
X143948Y244406D01*
X143984Y243979D01*
X143996Y243538D01*
X143996Y238923D01*
G37*
%LPC*%
G36*
X142656Y240596D02*
X142656Y243346D01*
X142647Y243680D01*
X142619Y244004D01*
X142572Y244318D01*
X142507Y244621D01*
X142423Y244914D01*
X142321Y245197D01*
X142200Y245470D01*
X142060Y245732D01*
X141903Y245982D01*
X141730Y246217D01*
X141540Y246437D01*
X141333Y246642D01*
X141111Y246832D01*
X140871Y247008D01*
X140616Y247168D01*
X140344Y247313D01*
X140057Y247443D01*
X139758Y247555D01*
X139446Y247650D01*
X139122Y247727D01*
X138785Y247788D01*
X138435Y247831D01*
X138073Y247857D01*
X137699Y247865D01*
X137142Y247846D01*
X136619Y247787D01*
X136131Y247688D01*
X135677Y247551D01*
X135256Y247374D01*
X134870Y247158D01*
X134518Y246903D01*
X134200Y246608D01*
X133917Y246277D01*
X133673Y245910D01*
X133466Y245507D01*
X133296Y245070D01*
X133165Y244598D01*
X133071Y244090D01*
X133014Y243547D01*
X132995Y242969D01*
X132995Y240596D01*
X142656Y240596D01*
G37*
%LPD*%
G36*
X143996Y251786D02*
X142656Y251786D01*
X142656Y254931D01*
X133162Y254931D01*
X135150Y252145D01*
X133661Y252145D01*
X131655Y255062D01*
X131655Y256516D01*
X142656Y256516D01*
X142656Y259520D01*
X143996Y259520D01*
X143996Y251786D01*
G37*
G36*
X290528Y363706D02*
X285913Y363706D01*
X285913Y376047D01*
X289994Y376047D01*
X290381Y376041D01*
X290756Y376022D01*
X291120Y375992D01*
X291472Y375949D01*
X291814Y375893D01*
X292144Y375826D01*
X292464Y375746D01*
X292772Y375654D01*
X293069Y375549D01*
X293354Y375433D01*
X293629Y375304D01*
X293892Y375162D01*
X294144Y375009D01*
X294385Y374843D01*
X294615Y374665D01*
X294833Y374475D01*
X295040Y374273D01*
X295233Y374061D01*
X295412Y373838D01*
X295579Y373606D01*
X295732Y373362D01*
X295871Y373109D01*
X295998Y372845D01*
X296111Y372571D01*
X296211Y372286D01*
X296297Y371991D01*
X296370Y371686D01*
X296430Y371370D01*
X296477Y371044D01*
X296510Y370707D01*
X296530Y370361D01*
X296537Y370003D01*
X296525Y369534D01*
X296490Y369079D01*
X296432Y368638D01*
X296351Y368213D01*
X296246Y367803D01*
X296118Y367408D01*
X295967Y367027D01*
X295792Y366662D01*
X295596Y366314D01*
X295381Y365988D01*
X295147Y365682D01*
X294892Y365397D01*
X294619Y365134D01*
X294326Y364891D01*
X294013Y364669D01*
X293682Y364468D01*
X293333Y364289D01*
X292972Y364135D01*
X292598Y364004D01*
X292210Y363896D01*
X291809Y363813D01*
X291396Y363754D01*
X290969Y363718D01*
X290528Y363706D01*
G37*
%LPC*%
G36*
X290336Y365046D02*
X290670Y365055D01*
X290994Y365083D01*
X291308Y365130D01*
X291611Y365195D01*
X291904Y365279D01*
X292187Y365381D01*
X292460Y365502D01*
X292722Y365642D01*
X292972Y365799D01*
X293207Y365972D01*
X293427Y366162D01*
X293632Y366369D01*
X293822Y366591D01*
X293998Y366831D01*
X294158Y367086D01*
X294303Y367358D01*
X294433Y367645D01*
X294545Y367944D01*
X294640Y368256D01*
X294717Y368580D01*
X294778Y368917D01*
X294821Y369267D01*
X294847Y369629D01*
X294855Y370003D01*
X294836Y370560D01*
X294777Y371083D01*
X294678Y371571D01*
X294541Y372026D01*
X294364Y372446D01*
X294148Y372832D01*
X293893Y373184D01*
X293598Y373502D01*
X293267Y373785D01*
X292900Y374029D01*
X292497Y374236D01*
X292060Y374406D01*
X291588Y374537D01*
X291080Y374631D01*
X290537Y374688D01*
X289959Y374707D01*
X287586Y374707D01*
X287586Y365046D01*
X290336Y365046D01*
G37*
%LPD*%
G36*
X306484Y363706D02*
X298312Y363706D01*
X298312Y364818D01*
X298548Y365316D01*
X298808Y365783D01*
X299093Y366220D01*
X299403Y366627D01*
X299729Y367010D01*
X300063Y367374D01*
X300405Y367719D01*
X300756Y368046D01*
X301462Y368658D01*
X302162Y369224D01*
X302824Y369767D01*
X303418Y370310D01*
X303685Y370585D01*
X303925Y370866D01*
X304138Y371154D01*
X304325Y371449D01*
X304476Y371756D01*
X304584Y372084D01*
X304649Y372431D01*
X304671Y372797D01*
X304662Y373044D01*
X304634Y373277D01*
X304587Y373495D01*
X304522Y373699D01*
X304438Y373889D01*
X304336Y374065D01*
X304215Y374227D01*
X304075Y374374D01*
X303919Y374505D01*
X303748Y374619D01*
X303563Y374715D01*
X303364Y374794D01*
X303149Y374856D01*
X302921Y374899D01*
X302678Y374926D01*
X302420Y374934D01*
X302174Y374926D01*
X301938Y374900D01*
X301714Y374857D01*
X301501Y374798D01*
X301299Y374721D01*
X301109Y374627D01*
X300929Y374515D01*
X300760Y374387D01*
X300605Y374243D01*
X300468Y374086D01*
X300347Y373914D01*
X300242Y373729D01*
X300155Y373530D01*
X300084Y373317D01*
X300031Y373090D01*
X299994Y372850D01*
X298382Y372999D01*
X298440Y373359D01*
X298526Y373701D01*
X298641Y374024D01*
X298784Y374328D01*
X298955Y374613D01*
X299155Y374879D01*
X299383Y375126D01*
X299639Y375355D01*
X299919Y375560D01*
X300218Y375738D01*
X300537Y375889D01*
X300875Y376012D01*
X301232Y376108D01*
X301609Y376176D01*
X302005Y376217D01*
X302420Y376231D01*
X302873Y376217D01*
X303299Y376176D01*
X303698Y376107D01*
X304070Y376011D01*
X304415Y375887D01*
X304733Y375736D01*
X305024Y375557D01*
X305288Y375350D01*
X305523Y375119D01*
X305727Y374864D01*
X305899Y374586D01*
X306040Y374285D01*
X306150Y373961D01*
X306228Y373614D01*
X306275Y373243D01*
X306291Y372850D01*
X306271Y372491D01*
X306209Y372134D01*
X306106Y371778D01*
X305963Y371422D01*
X305779Y371068D01*
X305554Y370713D01*
X305290Y370358D01*
X304986Y370003D01*
X304588Y369600D01*
X304042Y369099D01*
X303349Y368501D01*
X302507Y367805D01*
X302030Y367403D01*
X301603Y367022D01*
X301228Y366661D01*
X300905Y366320D01*
X300628Y365993D01*
X300392Y365671D01*
X300199Y365356D01*
X300046Y365046D01*
X306484Y365046D01*
X306484Y363706D01*
G37*
G36*
X368423Y150696D02*
X368058Y150703D01*
X367703Y150722D01*
X367358Y150753D01*
X367023Y150798D01*
X366699Y150855D01*
X366384Y150924D01*
X366080Y151007D01*
X365785Y151102D01*
X365501Y151209D01*
X365227Y151329D01*
X364963Y151462D01*
X364709Y151608D01*
X364231Y151937D01*
X363794Y152317D01*
X363403Y152742D01*
X363227Y152969D01*
X363064Y153206D01*
X362914Y153454D01*
X362777Y153711D01*
X362653Y153978D01*
X362542Y154255D01*
X362445Y154541D01*
X362360Y154838D01*
X362288Y155145D01*
X362230Y155462D01*
X362184Y155788D01*
X362151Y156125D01*
X362132Y156471D01*
X362125Y156827D01*
X362137Y157290D01*
X362172Y157738D01*
X362231Y158170D01*
X362313Y158586D01*
X362418Y158986D01*
X362547Y159371D01*
X362699Y159741D01*
X362874Y160094D01*
X363072Y160430D01*
X363291Y160746D01*
X363531Y161041D01*
X363793Y161315D01*
X364075Y161569D01*
X364379Y161803D01*
X364704Y162017D01*
X365051Y162210D01*
X365416Y162381D01*
X365797Y162530D01*
X366194Y162655D01*
X366607Y162758D01*
X367037Y162838D01*
X367483Y162895D01*
X367945Y162929D01*
X368423Y162941D01*
X369061Y162920D01*
X369670Y162859D01*
X370250Y162756D01*
X370801Y162612D01*
X371323Y162428D01*
X371816Y162202D01*
X372279Y161935D01*
X372714Y161627D01*
X373113Y161283D01*
X373469Y160906D01*
X373782Y160498D01*
X374052Y160057D01*
X374279Y159585D01*
X374463Y159080D01*
X374604Y158543D01*
X374703Y157975D01*
X375216Y158168D01*
X375653Y158390D01*
X375843Y158511D01*
X376013Y158639D01*
X376164Y158774D01*
X376297Y158916D01*
X376412Y159067D01*
X376511Y159227D01*
X376595Y159397D01*
X376664Y159577D01*
X376718Y159766D01*
X376756Y159965D01*
X376779Y160174D01*
X376787Y160392D01*
X376780Y160636D01*
X376759Y160885D01*
X376673Y161399D01*
X377847Y161399D01*
X377931Y160997D01*
X377991Y160602D01*
X378028Y160217D01*
X378040Y159840D01*
X378028Y159517D01*
X377993Y159208D01*
X377934Y158914D01*
X377852Y158635D01*
X377747Y158370D01*
X377618Y158120D01*
X377466Y157885D01*
X377291Y157664D01*
X377088Y157455D01*
X376854Y157256D01*
X376588Y157067D01*
X376291Y156888D01*
X375963Y156718D01*
X375603Y156558D01*
X375212Y156408D01*
X374790Y156267D01*
X374757Y155841D01*
X374702Y155430D01*
X374625Y155033D01*
X374526Y154652D01*
X374405Y154286D01*
X374262Y153934D01*
X374097Y153598D01*
X373910Y153276D01*
X373702Y152971D01*
X373475Y152685D01*
X373228Y152417D01*
X372962Y152168D01*
X372676Y151937D01*
X372371Y151726D01*
X372047Y151532D01*
X371703Y151358D01*
X371342Y151203D01*
X370967Y151068D01*
X370578Y150955D01*
X370176Y150862D01*
X369758Y150789D01*
X369327Y150738D01*
X368882Y150707D01*
X368423Y150696D01*
G37*
%LPC*%
G36*
X368423Y152396D02*
X368988Y152414D01*
X369523Y152469D01*
X370029Y152560D01*
X370504Y152688D01*
X370949Y152852D01*
X371365Y153053D01*
X371750Y153291D01*
X372106Y153565D01*
X372425Y153871D01*
X372702Y154206D01*
X372936Y154569D01*
X373127Y154961D01*
X373276Y155381D01*
X373383Y155829D01*
X373446Y156305D01*
X373468Y156810D01*
X373447Y157329D01*
X373385Y157816D01*
X373282Y158273D01*
X373138Y158698D01*
X372953Y159093D01*
X372726Y159456D01*
X372458Y159789D01*
X372149Y160090D01*
X371803Y160358D01*
X371422Y160590D01*
X371008Y160787D01*
X370559Y160947D01*
X370076Y161072D01*
X369559Y161162D01*
X369008Y161215D01*
X368423Y161233D01*
X367862Y161215D01*
X367333Y161161D01*
X366834Y161071D01*
X366367Y160945D01*
X365930Y160783D01*
X365524Y160585D01*
X365149Y160351D01*
X364805Y160081D01*
X364498Y159778D01*
X364231Y159446D01*
X364005Y159084D01*
X363820Y158692D01*
X363676Y158270D01*
X363574Y157819D01*
X363512Y157338D01*
X363492Y156827D01*
X363512Y156313D01*
X363573Y155828D01*
X363674Y155373D01*
X363816Y154949D01*
X363998Y154554D01*
X364221Y154190D01*
X364484Y153856D01*
X364788Y153552D01*
X365128Y153281D01*
X365501Y153046D01*
X365907Y152847D01*
X366345Y152685D01*
X366815Y152558D01*
X367319Y152468D01*
X367854Y152414D01*
X368423Y152396D01*
G37*
%LPD*%
G36*
X374650Y165151D02*
X373310Y165151D01*
X373310Y168295D01*
X363816Y168295D01*
X365804Y165510D01*
X364315Y165510D01*
X362309Y168426D01*
X362309Y169880D01*
X373310Y169880D01*
X373310Y172885D01*
X374650Y172885D01*
X374650Y165151D01*
G37*
G36*
X254123Y128596D02*
X253758Y128603D01*
X253403Y128622D01*
X253058Y128653D01*
X252723Y128698D01*
X252399Y128755D01*
X252084Y128824D01*
X251780Y128907D01*
X251485Y129002D01*
X251201Y129109D01*
X250927Y129229D01*
X250663Y129362D01*
X250409Y129508D01*
X249931Y129837D01*
X249494Y130217D01*
X249103Y130642D01*
X248927Y130869D01*
X248764Y131106D01*
X248614Y131354D01*
X248477Y131611D01*
X248353Y131878D01*
X248242Y132155D01*
X248145Y132441D01*
X248060Y132738D01*
X247988Y133045D01*
X247930Y133362D01*
X247884Y133688D01*
X247851Y134025D01*
X247832Y134371D01*
X247825Y134727D01*
X247837Y135190D01*
X247872Y135638D01*
X247931Y136070D01*
X248013Y136486D01*
X248118Y136886D01*
X248247Y137271D01*
X248399Y137641D01*
X248574Y137994D01*
X248772Y138330D01*
X248991Y138646D01*
X249231Y138941D01*
X249493Y139215D01*
X249775Y139469D01*
X250079Y139703D01*
X250404Y139917D01*
X250751Y140110D01*
X251116Y140281D01*
X251497Y140430D01*
X251894Y140555D01*
X252307Y140658D01*
X252737Y140738D01*
X253183Y140795D01*
X253645Y140829D01*
X254123Y140841D01*
X254761Y140820D01*
X255370Y140759D01*
X255950Y140656D01*
X256501Y140512D01*
X257023Y140328D01*
X257516Y140102D01*
X257979Y139835D01*
X258414Y139527D01*
X258813Y139183D01*
X259169Y138806D01*
X259482Y138398D01*
X259752Y137957D01*
X259979Y137485D01*
X260163Y136980D01*
X260304Y136443D01*
X260403Y135875D01*
X260916Y136068D01*
X261353Y136290D01*
X261543Y136411D01*
X261713Y136539D01*
X261864Y136674D01*
X261997Y136816D01*
X262112Y136967D01*
X262211Y137127D01*
X262295Y137297D01*
X262364Y137477D01*
X262418Y137666D01*
X262456Y137865D01*
X262479Y138074D01*
X262487Y138292D01*
X262480Y138536D01*
X262459Y138785D01*
X262373Y139299D01*
X263547Y139299D01*
X263631Y138897D01*
X263691Y138502D01*
X263728Y138117D01*
X263740Y137740D01*
X263728Y137417D01*
X263693Y137108D01*
X263634Y136814D01*
X263552Y136535D01*
X263447Y136270D01*
X263318Y136020D01*
X263166Y135785D01*
X262991Y135564D01*
X262788Y135355D01*
X262554Y135156D01*
X262288Y134967D01*
X261991Y134788D01*
X261663Y134618D01*
X261303Y134458D01*
X260912Y134308D01*
X260490Y134167D01*
X260457Y133741D01*
X260402Y133330D01*
X260325Y132933D01*
X260226Y132552D01*
X260105Y132186D01*
X259962Y131834D01*
X259797Y131498D01*
X259610Y131176D01*
X259402Y130871D01*
X259175Y130585D01*
X258928Y130317D01*
X258662Y130068D01*
X258376Y129837D01*
X258071Y129626D01*
X257747Y129432D01*
X257403Y129258D01*
X257042Y129103D01*
X256667Y128968D01*
X256278Y128855D01*
X255876Y128762D01*
X255458Y128689D01*
X255027Y128638D01*
X254582Y128607D01*
X254123Y128596D01*
G37*
%LPC*%
G36*
X254123Y130296D02*
X254688Y130314D01*
X255223Y130369D01*
X255729Y130460D01*
X256204Y130588D01*
X256649Y130752D01*
X257065Y130953D01*
X257450Y131191D01*
X257806Y131465D01*
X258125Y131771D01*
X258402Y132106D01*
X258636Y132469D01*
X258827Y132861D01*
X258976Y133281D01*
X259083Y133729D01*
X259146Y134205D01*
X259168Y134710D01*
X259147Y135229D01*
X259085Y135716D01*
X258982Y136173D01*
X258838Y136598D01*
X258653Y136993D01*
X258426Y137356D01*
X258158Y137689D01*
X257849Y137990D01*
X257503Y138258D01*
X257122Y138490D01*
X256708Y138687D01*
X256259Y138847D01*
X255776Y138972D01*
X255259Y139062D01*
X254708Y139115D01*
X254123Y139133D01*
X253562Y139115D01*
X253033Y139061D01*
X252534Y138971D01*
X252067Y138845D01*
X251630Y138683D01*
X251224Y138485D01*
X250849Y138251D01*
X250505Y137981D01*
X250198Y137678D01*
X249931Y137346D01*
X249705Y136984D01*
X249520Y136592D01*
X249376Y136170D01*
X249274Y135719D01*
X249212Y135238D01*
X249192Y134727D01*
X249212Y134213D01*
X249273Y133728D01*
X249374Y133273D01*
X249516Y132849D01*
X249698Y132454D01*
X249921Y132090D01*
X250184Y131756D01*
X250488Y131452D01*
X250828Y131181D01*
X251201Y130946D01*
X251607Y130747D01*
X252045Y130585D01*
X252515Y130458D01*
X253019Y130368D01*
X253554Y130314D01*
X254123Y130296D01*
G37*
%LPD*%
G36*
X260350Y142587D02*
X259238Y142587D01*
X258740Y142822D01*
X258273Y143082D01*
X257836Y143367D01*
X257429Y143677D01*
X257046Y144003D01*
X256682Y144337D01*
X256337Y144680D01*
X256010Y145030D01*
X255398Y145736D01*
X254832Y146436D01*
X254289Y147098D01*
X253746Y147693D01*
X253471Y147960D01*
X253190Y148200D01*
X252902Y148413D01*
X252607Y148599D01*
X252300Y148751D01*
X251972Y148859D01*
X251625Y148924D01*
X251259Y148945D01*
X251012Y148936D01*
X250779Y148908D01*
X250561Y148861D01*
X250357Y148796D01*
X250167Y148713D01*
X249991Y148610D01*
X249829Y148489D01*
X249682Y148350D01*
X249551Y148193D01*
X249437Y148023D01*
X249341Y147838D01*
X249262Y147638D01*
X249200Y147424D01*
X249157Y147195D01*
X249130Y146952D01*
X249122Y146694D01*
X249130Y146448D01*
X249156Y146213D01*
X249199Y145989D01*
X249258Y145776D01*
X249335Y145574D01*
X249429Y145383D01*
X249541Y145203D01*
X249669Y145035D01*
X249813Y144880D01*
X249970Y144742D01*
X250142Y144621D01*
X250327Y144517D01*
X250526Y144429D01*
X250739Y144359D01*
X250966Y144305D01*
X251206Y144268D01*
X251057Y142657D01*
X250697Y142715D01*
X250355Y142801D01*
X250032Y142915D01*
X249728Y143058D01*
X249443Y143230D01*
X249177Y143429D01*
X248930Y143657D01*
X248701Y143913D01*
X248496Y144193D01*
X248318Y144493D01*
X248167Y144812D01*
X248044Y145149D01*
X247948Y145507D01*
X247880Y145883D01*
X247839Y146279D01*
X247825Y146694D01*
X247839Y147147D01*
X247880Y147573D01*
X247949Y147972D01*
X248045Y148344D01*
X248169Y148689D01*
X248320Y149007D01*
X248499Y149298D01*
X248706Y149563D01*
X248937Y149798D01*
X249192Y150001D01*
X249470Y150174D01*
X249771Y150315D01*
X250095Y150425D01*
X250442Y150503D01*
X250813Y150550D01*
X251206Y150566D01*
X251565Y150545D01*
X251922Y150483D01*
X252278Y150381D01*
X252634Y150237D01*
X252988Y150053D01*
X253343Y149829D01*
X253698Y149565D01*
X254053Y149261D01*
X254456Y148863D01*
X254957Y148317D01*
X255555Y147623D01*
X256251Y146782D01*
X256653Y146304D01*
X257034Y145878D01*
X257395Y145503D01*
X257736Y145179D01*
X258063Y144902D01*
X258385Y144667D01*
X258700Y144473D01*
X259010Y144321D01*
X259010Y150758D01*
X260350Y150758D01*
X260350Y142587D01*
G37*
G36*
X158750Y180503D02*
X146409Y180503D01*
X146409Y186310D01*
X146424Y186816D01*
X146468Y187292D01*
X146540Y187739D01*
X146642Y188157D01*
X146774Y188544D01*
X146934Y188902D01*
X147123Y189230D01*
X147342Y189528D01*
X147587Y189794D01*
X147854Y190025D01*
X148144Y190220D01*
X148458Y190379D01*
X148794Y190503D01*
X149153Y190592D01*
X149534Y190645D01*
X149939Y190663D01*
X150276Y190650D01*
X150599Y190613D01*
X150909Y190550D01*
X151205Y190462D01*
X151487Y190350D01*
X151755Y190212D01*
X152010Y190049D01*
X152251Y189861D01*
X152475Y189651D01*
X152677Y189422D01*
X152857Y189175D01*
X152923Y189064D01*
X153015Y188908D01*
X153152Y188622D01*
X153268Y188317D01*
X153361Y187993D01*
X153434Y187650D01*
X155697Y189141D01*
X158750Y191153D01*
X158750Y189226D01*
X153626Y186021D01*
X153626Y182176D01*
X158750Y182176D01*
X158750Y180503D01*
G37*
%LPC*%
G36*
X152304Y182176D02*
X152304Y186213D01*
X152294Y186535D01*
X152265Y186837D01*
X152217Y187121D01*
X152149Y187386D01*
X152063Y187632D01*
X151956Y187860D01*
X151831Y188068D01*
X151686Y188258D01*
X151524Y188428D01*
X151347Y188575D01*
X151154Y188699D01*
X150945Y188800D01*
X150721Y188879D01*
X150482Y188936D01*
X150227Y188970D01*
X149956Y188981D01*
X149695Y188970D01*
X149450Y188935D01*
X149221Y188878D01*
X149007Y188798D01*
X148810Y188695D01*
X148629Y188570D01*
X148463Y188421D01*
X148314Y188250D01*
X148182Y188057D01*
X148067Y187844D01*
X147970Y187611D01*
X147891Y187357D01*
X147829Y187084D01*
X147785Y186790D01*
X147758Y186477D01*
X147749Y186143D01*
X147749Y182176D01*
X152304Y182176D01*
G37*
%LPD*%
G36*
X158750Y193366D02*
X157410Y193366D01*
X157410Y196511D01*
X147916Y196511D01*
X149904Y193725D01*
X148415Y193725D01*
X146409Y196642D01*
X146409Y198096D01*
X157410Y198096D01*
X157410Y201100D01*
X158750Y201100D01*
X158750Y193366D01*
G37*
G36*
X214630Y236383D02*
X202289Y236383D01*
X202289Y242190D01*
X202304Y242696D01*
X202348Y243172D01*
X202420Y243619D01*
X202522Y244037D01*
X202654Y244424D01*
X202814Y244782D01*
X203003Y245110D01*
X203222Y245408D01*
X203467Y245674D01*
X203734Y245905D01*
X204024Y246100D01*
X204338Y246259D01*
X204674Y246383D01*
X205033Y246472D01*
X205414Y246525D01*
X205819Y246543D01*
X206156Y246530D01*
X206479Y246493D01*
X206789Y246430D01*
X207085Y246342D01*
X207367Y246230D01*
X207635Y246092D01*
X207890Y245929D01*
X208131Y245741D01*
X208355Y245531D01*
X208557Y245302D01*
X208737Y245055D01*
X208803Y244944D01*
X208895Y244788D01*
X209032Y244502D01*
X209148Y244197D01*
X209241Y243873D01*
X209314Y243530D01*
X211577Y245021D01*
X214630Y247033D01*
X214630Y245106D01*
X209506Y241901D01*
X209506Y238056D01*
X214630Y238056D01*
X214630Y236383D01*
G37*
%LPC*%
G36*
X208184Y238056D02*
X208184Y242093D01*
X208174Y242415D01*
X208145Y242717D01*
X208097Y243001D01*
X208029Y243266D01*
X207943Y243512D01*
X207836Y243740D01*
X207711Y243948D01*
X207566Y244138D01*
X207404Y244308D01*
X207227Y244455D01*
X207034Y244579D01*
X206825Y244680D01*
X206601Y244759D01*
X206362Y244816D01*
X206107Y244850D01*
X205836Y244861D01*
X205575Y244850D01*
X205330Y244815D01*
X205101Y244758D01*
X204887Y244678D01*
X204690Y244575D01*
X204509Y244450D01*
X204343Y244301D01*
X204194Y244130D01*
X204062Y243937D01*
X203947Y243724D01*
X203850Y243491D01*
X203771Y243237D01*
X203709Y242964D01*
X203665Y242670D01*
X203638Y242357D01*
X203629Y242023D01*
X203629Y238056D01*
X208184Y238056D01*
G37*
%LPD*%
G36*
X214630Y248782D02*
X213518Y248782D01*
X213020Y249018D01*
X212553Y249278D01*
X212116Y249563D01*
X211709Y249873D01*
X211326Y250199D01*
X210962Y250533D01*
X210617Y250875D01*
X210290Y251226D01*
X209678Y251932D01*
X209112Y252632D01*
X208569Y253294D01*
X208026Y253888D01*
X207751Y254155D01*
X207470Y254395D01*
X207182Y254608D01*
X206887Y254795D01*
X206580Y254946D01*
X206252Y255054D01*
X205905Y255119D01*
X205539Y255141D01*
X205292Y255132D01*
X205059Y255104D01*
X204841Y255057D01*
X204637Y254992D01*
X204447Y254908D01*
X204271Y254806D01*
X204109Y254685D01*
X203962Y254545D01*
X203831Y254389D01*
X203717Y254218D01*
X203621Y254033D01*
X203542Y253834D01*
X203480Y253619D01*
X203437Y253391D01*
X203410Y253148D01*
X203402Y252890D01*
X203410Y252644D01*
X203436Y252408D01*
X203479Y252184D01*
X203538Y251971D01*
X203615Y251769D01*
X203709Y251579D01*
X203821Y251399D01*
X203949Y251230D01*
X204093Y251075D01*
X204250Y250938D01*
X204422Y250817D01*
X204607Y250712D01*
X204806Y250625D01*
X205019Y250554D01*
X205246Y250501D01*
X205486Y250464D01*
X205337Y248852D01*
X204977Y248910D01*
X204635Y248996D01*
X204312Y249111D01*
X204008Y249254D01*
X203723Y249425D01*
X203457Y249625D01*
X203210Y249853D01*
X202981Y250109D01*
X202776Y250389D01*
X202598Y250688D01*
X202447Y251007D01*
X202324Y251345D01*
X202228Y251702D01*
X202160Y252079D01*
X202119Y252475D01*
X202105Y252890D01*
X202119Y253343D01*
X202160Y253769D01*
X202229Y254168D01*
X202325Y254540D01*
X202449Y254885D01*
X202600Y255203D01*
X202779Y255494D01*
X202986Y255758D01*
X203217Y255993D01*
X203472Y256197D01*
X203750Y256369D01*
X204051Y256510D01*
X204375Y256620D01*
X204722Y256698D01*
X205093Y256745D01*
X205486Y256761D01*
X205845Y256741D01*
X206202Y256679D01*
X206558Y256576D01*
X206914Y256433D01*
X207268Y256249D01*
X207623Y256024D01*
X207978Y255760D01*
X208333Y255456D01*
X208736Y255058D01*
X209237Y254512D01*
X209835Y253819D01*
X210531Y252977D01*
X210933Y252500D01*
X211314Y252073D01*
X211675Y251698D01*
X212016Y251375D01*
X212343Y251098D01*
X212665Y250862D01*
X212980Y250669D01*
X213290Y250516D01*
X213290Y256954D01*
X214630Y256954D01*
X214630Y248782D01*
G37*
G36*
X260916Y201930D02*
X259243Y201930D01*
X259243Y214271D01*
X265050Y214271D01*
X265556Y214256D01*
X266032Y214212D01*
X266479Y214140D01*
X266897Y214038D01*
X267284Y213906D01*
X267642Y213746D01*
X267970Y213557D01*
X268268Y213338D01*
X268534Y213093D01*
X268765Y212826D01*
X268960Y212536D01*
X269119Y212222D01*
X269243Y211886D01*
X269332Y211527D01*
X269385Y211146D01*
X269403Y210741D01*
X269390Y210404D01*
X269353Y210081D01*
X269290Y209771D01*
X269202Y209475D01*
X269090Y209193D01*
X268952Y208925D01*
X268789Y208670D01*
X268601Y208429D01*
X268391Y208205D01*
X268162Y208004D01*
X267915Y207823D01*
X267804Y207757D01*
X267648Y207665D01*
X267362Y207528D01*
X267057Y207412D01*
X266733Y207319D01*
X266390Y207246D01*
X267881Y204983D01*
X269893Y201930D01*
X267966Y201930D01*
X264761Y207054D01*
X260916Y207054D01*
X260916Y201930D01*
G37*
%LPC*%
G36*
X264953Y208376D02*
X265275Y208386D01*
X265577Y208415D01*
X265861Y208463D01*
X266126Y208531D01*
X266372Y208617D01*
X266600Y208724D01*
X266808Y208849D01*
X266998Y208994D01*
X267168Y209156D01*
X267315Y209333D01*
X267439Y209526D01*
X267540Y209735D01*
X267619Y209959D01*
X267676Y210198D01*
X267710Y210453D01*
X267721Y210724D01*
X267710Y210985D01*
X267675Y211230D01*
X267618Y211460D01*
X267538Y211673D01*
X267435Y211870D01*
X267310Y212051D01*
X267161Y212217D01*
X266990Y212366D01*
X266797Y212498D01*
X266584Y212613D01*
X266351Y212710D01*
X266097Y212790D01*
X265824Y212851D01*
X265530Y212895D01*
X265217Y212922D01*
X264883Y212931D01*
X260916Y212931D01*
X260916Y208376D01*
X264953Y208376D01*
G37*
%LPD*%
G36*
X275741Y201755D02*
X275284Y201768D01*
X274851Y201808D01*
X274442Y201874D01*
X274056Y201966D01*
X273694Y202085D01*
X273356Y202230D01*
X273041Y202402D01*
X272750Y202600D01*
X272485Y202824D01*
X272248Y203073D01*
X272040Y203348D01*
X271860Y203648D01*
X271708Y203973D01*
X271585Y204324D01*
X271490Y204699D01*
X271423Y205101D01*
X273052Y205249D01*
X273100Y204984D01*
X273163Y204736D01*
X273243Y204505D01*
X273339Y204292D01*
X273450Y204095D01*
X273578Y203915D01*
X273722Y203753D01*
X273882Y203607D01*
X274058Y203479D01*
X274250Y203368D01*
X274459Y203274D01*
X274683Y203197D01*
X274923Y203137D01*
X275180Y203094D01*
X275452Y203068D01*
X275741Y203060D01*
X276031Y203069D01*
X276305Y203097D01*
X276562Y203142D01*
X276804Y203207D01*
X277030Y203289D01*
X277240Y203390D01*
X277433Y203509D01*
X277611Y203647D01*
X277770Y203802D01*
X277908Y203976D01*
X278025Y204167D01*
X278120Y204376D01*
X278194Y204603D01*
X278247Y204847D01*
X278279Y205109D01*
X278290Y205390D01*
X278278Y205635D01*
X278241Y205866D01*
X278181Y206083D01*
X278096Y206286D01*
X277987Y206476D01*
X277854Y206652D01*
X277696Y206814D01*
X277515Y206962D01*
X277310Y207094D01*
X277084Y207209D01*
X276837Y207306D01*
X276568Y207385D01*
X276277Y207447D01*
X275965Y207491D01*
X275632Y207518D01*
X275277Y207527D01*
X274384Y207527D01*
X274384Y208893D01*
X275242Y208893D01*
X275557Y208902D01*
X275854Y208928D01*
X276132Y208972D01*
X276393Y209034D01*
X276635Y209114D01*
X276859Y209211D01*
X277064Y209326D01*
X277252Y209458D01*
X277419Y209606D01*
X277564Y209768D01*
X277687Y209943D01*
X277787Y210131D01*
X277865Y210333D01*
X277921Y210549D01*
X277955Y210779D01*
X277966Y211021D01*
X277957Y211262D01*
X277929Y211490D01*
X277884Y211705D01*
X277820Y211907D01*
X277738Y212096D01*
X277638Y212272D01*
X277520Y212435D01*
X277383Y212585D01*
X277229Y212719D01*
X277057Y212836D01*
X276867Y212934D01*
X276660Y213015D01*
X276435Y213078D01*
X276192Y213123D01*
X275932Y213149D01*
X275654Y213158D01*
X275399Y213150D01*
X275157Y213125D01*
X274928Y213083D01*
X274711Y213025D01*
X274506Y212950D01*
X274314Y212858D01*
X274135Y212749D01*
X273968Y212624D01*
X273815Y212484D01*
X273679Y212330D01*
X273560Y212162D01*
X273458Y211980D01*
X273373Y211785D01*
X273305Y211576D01*
X273253Y211354D01*
X273219Y211118D01*
X271633Y211240D01*
X271691Y211609D01*
X271778Y211956D01*
X271892Y212283D01*
X272035Y212589D01*
X272206Y212874D01*
X272406Y213139D01*
X272634Y213382D01*
X272890Y213605D01*
X273170Y213804D01*
X273470Y213977D01*
X273788Y214123D01*
X274126Y214242D01*
X274484Y214335D01*
X274860Y214402D01*
X275256Y214441D01*
X275671Y214455D01*
X276122Y214441D01*
X276548Y214401D01*
X276947Y214333D01*
X277321Y214239D01*
X277669Y214118D01*
X277991Y213969D01*
X278287Y213794D01*
X278557Y213592D01*
X278798Y213366D01*
X279007Y213118D01*
X279184Y212850D01*
X279329Y212560D01*
X279441Y212248D01*
X279522Y211916D01*
X279570Y211563D01*
X279586Y211188D01*
X279576Y210899D01*
X279545Y210624D01*
X279493Y210363D01*
X279421Y210116D01*
X279328Y209883D01*
X279214Y209663D01*
X279080Y209457D01*
X278925Y209265D01*
X278750Y209088D01*
X278557Y208925D01*
X278345Y208777D01*
X278114Y208645D01*
X277864Y208527D01*
X277595Y208424D01*
X277308Y208336D01*
X277002Y208262D01*
X277002Y208227D01*
X277339Y208180D01*
X277656Y208114D01*
X277954Y208027D01*
X278233Y207921D01*
X278493Y207795D01*
X278733Y207649D01*
X278955Y207484D01*
X279157Y207299D01*
X279338Y207098D01*
X279494Y206884D01*
X279627Y206658D01*
X279735Y206419D01*
X279819Y206167D01*
X279880Y205903D01*
X279916Y205626D01*
X279928Y205337D01*
X279911Y204922D01*
X279860Y204531D01*
X279775Y204165D01*
X279656Y203822D01*
X279503Y203503D01*
X279317Y203209D01*
X279096Y202938D01*
X278842Y202692D01*
X278556Y202472D01*
X278241Y202282D01*
X277897Y202121D01*
X277523Y201989D01*
X277121Y201887D01*
X276690Y201813D01*
X276230Y201770D01*
X275741Y201755D01*
G37*
G36*
X357436Y177800D02*
X355763Y177800D01*
X355763Y190141D01*
X361570Y190141D01*
X362076Y190126D01*
X362552Y190082D01*
X362999Y190010D01*
X363417Y189908D01*
X363804Y189776D01*
X364162Y189616D01*
X364490Y189427D01*
X364788Y189208D01*
X365054Y188963D01*
X365285Y188696D01*
X365480Y188406D01*
X365639Y188092D01*
X365763Y187756D01*
X365852Y187397D01*
X365905Y187016D01*
X365923Y186611D01*
X365910Y186274D01*
X365873Y185951D01*
X365810Y185641D01*
X365722Y185345D01*
X365610Y185063D01*
X365472Y184795D01*
X365309Y184540D01*
X365121Y184299D01*
X364911Y184075D01*
X364682Y183874D01*
X364435Y183693D01*
X364324Y183627D01*
X364168Y183535D01*
X363882Y183398D01*
X363577Y183282D01*
X363253Y183189D01*
X362910Y183116D01*
X364401Y180853D01*
X366413Y177800D01*
X364486Y177800D01*
X361281Y182924D01*
X357436Y182924D01*
X357436Y177800D01*
G37*
%LPC*%
G36*
X361473Y184246D02*
X361795Y184256D01*
X362097Y184285D01*
X362381Y184333D01*
X362646Y184401D01*
X362892Y184487D01*
X363120Y184594D01*
X363328Y184719D01*
X363518Y184864D01*
X363688Y185026D01*
X363835Y185203D01*
X363959Y185396D01*
X364060Y185605D01*
X364139Y185829D01*
X364196Y186068D01*
X364230Y186323D01*
X364241Y186594D01*
X364230Y186855D01*
X364195Y187100D01*
X364138Y187330D01*
X364058Y187543D01*
X363955Y187740D01*
X363830Y187921D01*
X363681Y188087D01*
X363510Y188236D01*
X363317Y188368D01*
X363104Y188483D01*
X362871Y188580D01*
X362617Y188660D01*
X362344Y188721D01*
X362050Y188765D01*
X361737Y188792D01*
X361403Y188801D01*
X357436Y188801D01*
X357436Y184246D01*
X361473Y184246D01*
G37*
%LPD*%
G36*
X374976Y177800D02*
X373487Y177800D01*
X373487Y180594D01*
X367672Y180594D01*
X367672Y181820D01*
X373321Y190141D01*
X374976Y190141D01*
X374976Y181838D01*
X376710Y181838D01*
X376710Y180594D01*
X374976Y180594D01*
X374976Y177800D01*
G37*
%LPC*%
G36*
X373487Y181838D02*
X373487Y188363D01*
X373242Y187899D01*
X372901Y187321D01*
X369739Y182661D01*
X369266Y182013D01*
X369126Y181838D01*
X373487Y181838D01*
G37*
%LPD*%
G36*
X200860Y349250D02*
X199187Y349250D01*
X199187Y361591D01*
X204381Y361591D01*
X204885Y361576D01*
X205360Y361530D01*
X205806Y361454D01*
X206222Y361348D01*
X206610Y361211D01*
X206967Y361044D01*
X207296Y360846D01*
X207595Y360619D01*
X207862Y360363D01*
X208093Y360083D01*
X208289Y359777D01*
X208449Y359447D01*
X208574Y359092D01*
X208663Y358712D01*
X208716Y358307D01*
X208734Y357877D01*
X208716Y357450D01*
X208662Y357046D01*
X208573Y356664D01*
X208448Y356305D01*
X208287Y355968D01*
X208091Y355654D01*
X207859Y355362D01*
X207591Y355092D01*
X207292Y354850D01*
X206968Y354640D01*
X206618Y354462D01*
X206243Y354317D01*
X205842Y354204D01*
X205416Y354123D01*
X204964Y354075D01*
X204486Y354058D01*
X200860Y354058D01*
X200860Y349250D01*
G37*
%LPC*%
G36*
X204249Y355381D02*
X204589Y355391D01*
X204906Y355420D01*
X205202Y355468D01*
X205476Y355536D01*
X205728Y355623D01*
X205957Y355730D01*
X206165Y355855D01*
X206352Y356001D01*
X206516Y356165D01*
X206658Y356349D01*
X206779Y356553D01*
X206877Y356775D01*
X206954Y357017D01*
X207008Y357279D01*
X207041Y357559D01*
X207052Y357860D01*
X207041Y358149D01*
X207007Y358420D01*
X206951Y358672D01*
X206873Y358906D01*
X206772Y359121D01*
X206648Y359317D01*
X206502Y359494D01*
X206334Y359653D01*
X206143Y359793D01*
X205930Y359914D01*
X205694Y360017D01*
X205436Y360101D01*
X205156Y360167D01*
X204853Y360213D01*
X204527Y360241D01*
X204179Y360251D01*
X200860Y360251D01*
X200860Y355381D01*
X204249Y355381D01*
G37*
%LPD*%
G36*
X193053Y349250D02*
X191389Y349250D01*
X191389Y360224D01*
X187150Y360224D01*
X187150Y361591D01*
X197292Y361591D01*
X197292Y360224D01*
X193053Y360224D01*
X193053Y349250D01*
G37*
G36*
X218785Y349250D02*
X211051Y349250D01*
X211051Y350590D01*
X214195Y350590D01*
X214195Y360084D01*
X211410Y358096D01*
X211410Y359585D01*
X214326Y361591D01*
X215780Y361591D01*
X215780Y350590D01*
X218785Y350590D01*
X218785Y349250D01*
G37*
G36*
X283410Y127570D02*
X281737Y127570D01*
X281737Y139911D01*
X286931Y139911D01*
X287435Y139896D01*
X287910Y139850D01*
X288356Y139774D01*
X288772Y139668D01*
X289160Y139531D01*
X289517Y139364D01*
X289846Y139166D01*
X290145Y138939D01*
X290412Y138683D01*
X290643Y138403D01*
X290839Y138097D01*
X290999Y137767D01*
X291124Y137412D01*
X291213Y137032D01*
X291266Y136627D01*
X291284Y136197D01*
X291266Y135770D01*
X291212Y135366D01*
X291123Y134984D01*
X290998Y134625D01*
X290837Y134288D01*
X290641Y133974D01*
X290409Y133682D01*
X290141Y133412D01*
X289842Y133170D01*
X289518Y132960D01*
X289168Y132782D01*
X288793Y132637D01*
X288392Y132524D01*
X287966Y132443D01*
X287514Y132395D01*
X287036Y132378D01*
X283410Y132378D01*
X283410Y127570D01*
G37*
%LPC*%
G36*
X286799Y133701D02*
X287139Y133711D01*
X287456Y133740D01*
X287752Y133788D01*
X288026Y133856D01*
X288278Y133943D01*
X288507Y134050D01*
X288715Y134175D01*
X288902Y134321D01*
X289066Y134485D01*
X289208Y134669D01*
X289329Y134873D01*
X289427Y135095D01*
X289504Y135337D01*
X289558Y135599D01*
X289591Y135879D01*
X289602Y136180D01*
X289591Y136469D01*
X289557Y136740D01*
X289501Y136992D01*
X289423Y137226D01*
X289322Y137441D01*
X289198Y137637D01*
X289052Y137814D01*
X288884Y137973D01*
X288693Y138113D01*
X288480Y138234D01*
X288244Y138337D01*
X287986Y138421D01*
X287706Y138487D01*
X287403Y138533D01*
X287077Y138561D01*
X286729Y138571D01*
X283410Y138571D01*
X283410Y133701D01*
X286799Y133701D01*
G37*
%LPD*%
G36*
X301308Y127570D02*
X293137Y127570D01*
X293137Y128682D01*
X293372Y129180D01*
X293632Y129647D01*
X293917Y130084D01*
X294227Y130491D01*
X294553Y130874D01*
X294887Y131238D01*
X295230Y131583D01*
X295580Y131910D01*
X296286Y132522D01*
X296986Y133088D01*
X297648Y133631D01*
X298243Y134174D01*
X298510Y134449D01*
X298750Y134730D01*
X298963Y135018D01*
X299149Y135313D01*
X299301Y135620D01*
X299409Y135948D01*
X299474Y136295D01*
X299495Y136661D01*
X299486Y136908D01*
X299458Y137141D01*
X299411Y137359D01*
X299346Y137563D01*
X299263Y137753D01*
X299160Y137929D01*
X299039Y138091D01*
X298900Y138238D01*
X298743Y138369D01*
X298573Y138483D01*
X298388Y138579D01*
X298188Y138658D01*
X297974Y138720D01*
X297745Y138763D01*
X297502Y138790D01*
X297244Y138798D01*
X296998Y138790D01*
X296763Y138764D01*
X296539Y138721D01*
X296326Y138662D01*
X296124Y138585D01*
X295933Y138491D01*
X295753Y138379D01*
X295585Y138251D01*
X295430Y138107D01*
X295292Y137950D01*
X295171Y137778D01*
X295067Y137593D01*
X294979Y137394D01*
X294909Y137181D01*
X294855Y136954D01*
X294818Y136714D01*
X293207Y136863D01*
X293265Y137223D01*
X293351Y137565D01*
X293465Y137888D01*
X293608Y138192D01*
X293780Y138477D01*
X293979Y138743D01*
X294207Y138990D01*
X294463Y139219D01*
X294743Y139424D01*
X295043Y139602D01*
X295362Y139753D01*
X295699Y139876D01*
X296057Y139972D01*
X296433Y140040D01*
X296829Y140081D01*
X297244Y140095D01*
X297697Y140081D01*
X298123Y140040D01*
X298522Y139971D01*
X298894Y139875D01*
X299239Y139751D01*
X299557Y139600D01*
X299848Y139421D01*
X300113Y139214D01*
X300348Y138983D01*
X300551Y138728D01*
X300724Y138450D01*
X300865Y138149D01*
X300975Y137825D01*
X301053Y137478D01*
X301100Y137107D01*
X301116Y136714D01*
X301095Y136355D01*
X301033Y135998D01*
X300931Y135642D01*
X300787Y135286D01*
X300603Y134932D01*
X300379Y134577D01*
X300115Y134222D01*
X299811Y133867D01*
X299413Y133464D01*
X298867Y132963D01*
X298173Y132365D01*
X297332Y131669D01*
X296854Y131267D01*
X296428Y130886D01*
X296053Y130525D01*
X295729Y130184D01*
X295452Y129857D01*
X295217Y129535D01*
X295023Y129220D01*
X294871Y128910D01*
X301308Y128910D01*
X301308Y127570D01*
G37*
G36*
X275603Y127570D02*
X273939Y127570D01*
X273939Y138544D01*
X269700Y138544D01*
X269700Y139911D01*
X279842Y139911D01*
X279842Y138544D01*
X275603Y138544D01*
X275603Y127570D01*
G37*
D10*
X152400Y98400D02*
X152415Y99627D01*
X152460Y100853D01*
X152535Y102078D01*
X152641Y103301D01*
X152776Y104521D01*
X152941Y105737D01*
X153136Y106948D01*
X153361Y108155D01*
X153615Y109355D01*
X153898Y110549D01*
X154211Y111736D01*
X154553Y112914D01*
X154924Y114084D01*
X155323Y115244D01*
X155750Y116395D01*
X156206Y117534D01*
X156690Y118662D01*
X157201Y119778D01*
X157739Y120881D01*
X158304Y121970D01*
X158896Y123045D01*
X159514Y124105D01*
X160157Y125150D01*
X160827Y126179D01*
X161521Y127190D01*
X162240Y128185D01*
X162983Y129162D01*
X163749Y130120D01*
X164540Y131059D01*
X165352Y131978D01*
X166188Y132877D01*
X167045Y133755D01*
X167923Y134612D01*
X168822Y135448D01*
X169741Y136260D01*
X170680Y137051D01*
X171638Y137817D01*
X172615Y138560D01*
X173610Y139279D01*
X174621Y139973D01*
X175650Y140643D01*
X176695Y141286D01*
X177755Y141904D01*
X178830Y142496D01*
X179919Y143061D01*
X181022Y143599D01*
X182138Y144110D01*
X183266Y144594D01*
X184405Y145050D01*
X185556Y145477D01*
X186716Y145876D01*
X187886Y146247D01*
X189064Y146589D01*
X190251Y146902D01*
X191445Y147185D01*
X192645Y147439D01*
X193852Y147664D01*
X195063Y147859D01*
X196279Y148024D01*
X197499Y148159D01*
X198722Y148265D01*
X199947Y148340D01*
X201173Y148385D01*
X202400Y148400D01*
X203627Y148385D01*
X204853Y148340D01*
X206078Y148265D01*
X207301Y148159D01*
X208521Y148024D01*
X209737Y147859D01*
X210948Y147664D01*
X212155Y147439D01*
X213355Y147185D01*
X214549Y146902D01*
X215736Y146589D01*
X216914Y146247D01*
X218084Y145876D01*
X219244Y145477D01*
X220395Y145050D01*
X221534Y144594D01*
X222662Y144110D01*
X223778Y143599D01*
X224881Y143061D01*
X225970Y142496D01*
X227045Y141904D01*
X228105Y141286D01*
X229150Y140643D01*
X230179Y139973D01*
X231190Y139279D01*
X232185Y138560D01*
X233162Y137817D01*
X234120Y137051D01*
X235059Y136260D01*
X235978Y135448D01*
X236877Y134612D01*
X237755Y133755D01*
X238612Y132877D01*
X239448Y131978D01*
X240260Y131059D01*
X241051Y130120D01*
X241817Y129162D01*
X242560Y128185D01*
X243279Y127190D01*
X243973Y126179D01*
X244643Y125150D01*
X245286Y124105D01*
X245904Y123045D01*
X246496Y121970D01*
X247061Y120881D01*
X247599Y119778D01*
X248110Y118662D01*
X248594Y117534D01*
X249050Y116395D01*
X249477Y115244D01*
X249876Y114084D01*
X250247Y112914D01*
X250589Y111736D01*
X250902Y110549D01*
X251185Y109355D01*
X251439Y108155D01*
X251664Y106948D01*
X251859Y105737D01*
X252024Y104521D01*
X252159Y103301D01*
X252265Y102078D01*
X252340Y100853D01*
X252385Y99627D01*
X252400Y98400D01*
X252385Y97173D01*
X252340Y95947D01*
X252265Y94722D01*
X252159Y93499D01*
X252024Y92279D01*
X251859Y91063D01*
X251664Y89852D01*
X251439Y88645D01*
X251185Y87445D01*
X250902Y86251D01*
X250589Y85064D01*
X250247Y83886D01*
X249876Y82716D01*
X249477Y81556D01*
X249050Y80405D01*
X248594Y79266D01*
X248110Y78138D01*
X247599Y77022D01*
X247061Y75919D01*
X246496Y74830D01*
X245904Y73755D01*
X245286Y72695D01*
X244643Y71650D01*
X243973Y70621D01*
X243279Y69610D01*
X242560Y68615D01*
X241817Y67638D01*
X241051Y66680D01*
X240260Y65741D01*
X239448Y64822D01*
X238612Y63923D01*
X237755Y63045D01*
X236877Y62188D01*
X235978Y61352D01*
X235059Y60540D01*
X234120Y59749D01*
X233162Y58983D01*
X232185Y58240D01*
X231190Y57521D01*
X230179Y56827D01*
X229150Y56157D01*
X228105Y55514D01*
X227045Y54896D01*
X225970Y54304D01*
X224881Y53739D01*
X223778Y53201D01*
X222662Y52690D01*
X221534Y52206D01*
X220395Y51750D01*
X219244Y51323D01*
X218084Y50924D01*
X216914Y50553D01*
X215736Y50211D01*
X214549Y49898D01*
X213355Y49615D01*
X212155Y49361D01*
X210948Y49136D01*
X209737Y48941D01*
X208521Y48776D01*
X207301Y48641D01*
X206078Y48535D01*
X204853Y48460D01*
X203627Y48415D01*
X202400Y48400D01*
X201173Y48415D01*
X199947Y48460D01*
X198722Y48535D01*
X197499Y48641D01*
X196279Y48776D01*
X195063Y48941D01*
X193852Y49136D01*
X192645Y49361D01*
X191445Y49615D01*
X190251Y49898D01*
X189064Y50211D01*
X187886Y50553D01*
X186716Y50924D01*
X185556Y51323D01*
X184405Y51750D01*
X183266Y52206D01*
X182138Y52690D01*
X181022Y53201D01*
X179919Y53739D01*
X178830Y54304D01*
X177755Y54896D01*
X176695Y55514D01*
X175650Y56157D01*
X174621Y56827D01*
X173610Y57521D01*
X172615Y58240D01*
X171638Y58983D01*
X170680Y59749D01*
X169741Y60540D01*
X168822Y61352D01*
X167923Y62188D01*
X167045Y63045D01*
X166188Y63923D01*
X165352Y64822D01*
X164540Y65741D01*
X163749Y66680D01*
X162983Y67638D01*
X162240Y68615D01*
X161521Y69610D01*
X160827Y70621D01*
X160157Y71650D01*
X159514Y72695D01*
X158896Y73755D01*
X158304Y74830D01*
X157739Y75919D01*
X157201Y77022D01*
X156690Y78138D01*
X156206Y79266D01*
X155750Y80405D01*
X155323Y81556D01*
X154924Y82716D01*
X154553Y83886D01*
X154211Y85064D01*
X153898Y86251D01*
X153615Y87445D01*
X153361Y88645D01*
X153136Y89852D01*
X152941Y91063D01*
X152776Y92279D01*
X152641Y93499D01*
X152535Y94722D01*
X152460Y95947D01*
X152415Y97173D01*
X152400Y98400D01*
X161074Y64575D02*
X161074Y57075D01*
X157324Y60825D02*
X164824Y60825D01*
X264210Y292100D02*
X264225Y293327D01*
X264270Y294553D01*
X264345Y295778D01*
X264451Y297001D01*
X264586Y298221D01*
X264751Y299437D01*
X264946Y300648D01*
X265171Y301855D01*
X265425Y303055D01*
X265708Y304249D01*
X266021Y305436D01*
X266363Y306614D01*
X266734Y307784D01*
X267133Y308944D01*
X267560Y310095D01*
X268016Y311234D01*
X268500Y312362D01*
X269011Y313478D01*
X269549Y314581D01*
X270114Y315670D01*
X270706Y316745D01*
X271324Y317805D01*
X271967Y318850D01*
X272637Y319879D01*
X273331Y320890D01*
X274050Y321885D01*
X274793Y322862D01*
X275559Y323820D01*
X276350Y324759D01*
X277162Y325678D01*
X277998Y326577D01*
X278855Y327455D01*
X279733Y328312D01*
X280632Y329148D01*
X281551Y329960D01*
X282490Y330751D01*
X283448Y331517D01*
X284425Y332260D01*
X285420Y332979D01*
X286431Y333673D01*
X287460Y334343D01*
X288505Y334986D01*
X289565Y335604D01*
X290640Y336196D01*
X291729Y336761D01*
X292832Y337299D01*
X293948Y337810D01*
X295076Y338294D01*
X296215Y338750D01*
X297366Y339177D01*
X298526Y339576D01*
X299696Y339947D01*
X300874Y340289D01*
X302061Y340602D01*
X303255Y340885D01*
X304455Y341139D01*
X305662Y341364D01*
X306873Y341559D01*
X308089Y341724D01*
X309309Y341859D01*
X310532Y341965D01*
X311757Y342040D01*
X312983Y342085D01*
X314210Y342100D01*
X315437Y342085D01*
X316663Y342040D01*
X317888Y341965D01*
X319111Y341859D01*
X320331Y341724D01*
X321547Y341559D01*
X322758Y341364D01*
X323965Y341139D01*
X325165Y340885D01*
X326359Y340602D01*
X327546Y340289D01*
X328724Y339947D01*
X329894Y339576D01*
X331054Y339177D01*
X332205Y338750D01*
X333344Y338294D01*
X334472Y337810D01*
X335588Y337299D01*
X336691Y336761D01*
X337780Y336196D01*
X338855Y335604D01*
X339915Y334986D01*
X340960Y334343D01*
X341989Y333673D01*
X343000Y332979D01*
X343995Y332260D01*
X344972Y331517D01*
X345930Y330751D01*
X346869Y329960D01*
X347788Y329148D01*
X348687Y328312D01*
X349565Y327455D01*
X350422Y326577D01*
X351258Y325678D01*
X352070Y324759D01*
X352861Y323820D01*
X353627Y322862D01*
X354370Y321885D01*
X355089Y320890D01*
X355783Y319879D01*
X356453Y318850D01*
X357096Y317805D01*
X357714Y316745D01*
X358306Y315670D01*
X358871Y314581D01*
X359409Y313478D01*
X359920Y312362D01*
X360404Y311234D01*
X360860Y310095D01*
X361287Y308944D01*
X361686Y307784D01*
X362057Y306614D01*
X362399Y305436D01*
X362712Y304249D01*
X362995Y303055D01*
X363249Y301855D01*
X363474Y300648D01*
X363669Y299437D01*
X363834Y298221D01*
X363969Y297001D01*
X364075Y295778D01*
X364150Y294553D01*
X364195Y293327D01*
X364210Y292100D01*
X364195Y290873D01*
X364150Y289647D01*
X364075Y288422D01*
X363969Y287199D01*
X363834Y285979D01*
X363669Y284763D01*
X363474Y283552D01*
X363249Y282345D01*
X362995Y281145D01*
X362712Y279951D01*
X362399Y278764D01*
X362057Y277586D01*
X361686Y276416D01*
X361287Y275256D01*
X360860Y274105D01*
X360404Y272966D01*
X359920Y271838D01*
X359409Y270722D01*
X358871Y269619D01*
X358306Y268530D01*
X357714Y267455D01*
X357096Y266395D01*
X356453Y265350D01*
X355783Y264321D01*
X355089Y263310D01*
X354370Y262315D01*
X353627Y261338D01*
X352861Y260380D01*
X352070Y259441D01*
X351258Y258522D01*
X350422Y257623D01*
X349565Y256745D01*
X348687Y255888D01*
X347788Y255052D01*
X346869Y254240D01*
X345930Y253449D01*
X344972Y252683D01*
X343995Y251940D01*
X343000Y251221D01*
X341989Y250527D01*
X340960Y249857D01*
X339915Y249214D01*
X338855Y248596D01*
X337780Y248004D01*
X336691Y247439D01*
X335588Y246901D01*
X334472Y246390D01*
X333344Y245906D01*
X332205Y245450D01*
X331054Y245023D01*
X329894Y244624D01*
X328724Y244253D01*
X327546Y243911D01*
X326359Y243598D01*
X325165Y243315D01*
X323965Y243061D01*
X322758Y242836D01*
X321547Y242641D01*
X320331Y242476D01*
X319111Y242341D01*
X317888Y242235D01*
X316663Y242160D01*
X315437Y242115D01*
X314210Y242100D01*
X312983Y242115D01*
X311757Y242160D01*
X310532Y242235D01*
X309309Y242341D01*
X308089Y242476D01*
X306873Y242641D01*
X305662Y242836D01*
X304455Y243061D01*
X303255Y243315D01*
X302061Y243598D01*
X300874Y243911D01*
X299696Y244253D01*
X298526Y244624D01*
X297366Y245023D01*
X296215Y245450D01*
X295076Y245906D01*
X293948Y246390D01*
X292832Y246901D01*
X291729Y247439D01*
X290640Y248004D01*
X289565Y248596D01*
X288505Y249214D01*
X287460Y249857D01*
X286431Y250527D01*
X285420Y251221D01*
X284425Y251940D01*
X283448Y252683D01*
X282490Y253449D01*
X281551Y254240D01*
X280632Y255052D01*
X279733Y255888D01*
X278855Y256745D01*
X277998Y257623D01*
X277162Y258522D01*
X276350Y259441D01*
X275559Y260380D01*
X274793Y261338D01*
X274050Y262315D01*
X273331Y263310D01*
X272637Y264321D01*
X271967Y265350D01*
X271324Y266395D01*
X270706Y267455D01*
X270114Y268530D01*
X269549Y269619D01*
X269011Y270722D01*
X268500Y271838D01*
X268016Y272966D01*
X267560Y274105D01*
X267133Y275256D01*
X266734Y276416D01*
X266363Y277586D01*
X266021Y278764D01*
X265708Y279951D01*
X265425Y281145D01*
X265171Y282345D01*
X264946Y283552D01*
X264751Y284763D01*
X264586Y285979D01*
X264451Y287199D01*
X264345Y288422D01*
X264270Y289647D01*
X264225Y290873D01*
X264210Y292100D01*
X272885Y333426D02*
X280385Y333426D01*
X276635Y337176D02*
X276635Y329676D01*
X177800Y307650D02*
X178491Y307642D01*
X179181Y307616D01*
X179871Y307574D01*
X180559Y307515D01*
X181246Y307439D01*
X181931Y307346D01*
X182613Y307237D01*
X183293Y307111D01*
X183969Y306968D01*
X184641Y306809D01*
X185309Y306634D01*
X185973Y306442D01*
X186632Y306234D01*
X187286Y306010D01*
X187934Y305770D01*
X188576Y305514D01*
X189211Y305243D01*
X189840Y304956D01*
X190461Y304654D01*
X191075Y304337D01*
X191681Y304005D01*
X192279Y303658D01*
X192867Y303296D01*
X193447Y302921D01*
X194018Y302531D01*
X194579Y302127D01*
X195130Y301710D01*
X195670Y301280D01*
X196200Y300836D01*
X196719Y300380D01*
X197226Y299911D01*
X197722Y299429D01*
X198206Y298936D01*
X198678Y298431D01*
X199137Y297915D01*
X199583Y297388D01*
X200017Y296849D01*
X200437Y296301D01*
X200843Y295742D01*
X201236Y295174D01*
X201615Y294596D01*
X201979Y294009D01*
X202329Y293413D01*
X202665Y292809D01*
X202985Y292197D01*
X203291Y291577D01*
X203581Y290950D01*
X203856Y290316D01*
X204115Y289675D01*
X204358Y289029D01*
X204586Y288376D01*
X204797Y287719D01*
X204993Y287056D01*
X205172Y286388D01*
X205335Y285717D01*
X205481Y285042D01*
X205611Y284363D01*
X205724Y283681D01*
X205820Y282997D01*
X205900Y282311D01*
X205962Y281623D01*
X206008Y280933D01*
X206037Y280243D01*
X206050Y279552D01*
X206045Y278861D01*
X206023Y278170D01*
X205985Y277480D01*
X205929Y276792D01*
X205857Y276105D01*
X205768Y275419D01*
X205662Y274736D01*
X205540Y274056D01*
X205401Y273380D01*
X205246Y272706D01*
X205074Y272037D01*
X204885Y271372D01*
X204681Y270712D01*
X204460Y270057D01*
X204224Y269408D01*
X203972Y268765D01*
X203704Y268128D01*
X203420Y267498D01*
X203122Y266875D01*
X202808Y266259D01*
X202479Y265652D01*
X202135Y265052D01*
X201777Y264461D01*
X201404Y263879D01*
X201018Y263307D01*
X200617Y262744D01*
X200203Y262190D01*
X199775Y261648D01*
X199335Y261116D01*
X198881Y260594D01*
X198415Y260084D01*
X197936Y259586D01*
X197446Y259099D01*
X196943Y258625D01*
X196429Y258163D01*
X195904Y257714D01*
X195369Y257278D01*
X194822Y256854D01*
X194266Y256445D01*
X193700Y256049D01*
X193124Y255667D01*
X192539Y255299D01*
X191945Y254946D01*
X191342Y254608D01*
X190732Y254284D01*
X190114Y253975D01*
X165486Y253975D02*
X164868Y254284D01*
X164258Y254608D01*
X163655Y254946D01*
X163061Y255299D01*
X162476Y255667D01*
X161900Y256049D01*
X161334Y256445D01*
X160778Y256854D01*
X160231Y257278D01*
X159696Y257714D01*
X159171Y258163D01*
X158657Y258625D01*
X158154Y259099D01*
X157664Y259586D01*
X157185Y260084D01*
X156719Y260594D01*
X156265Y261116D01*
X155825Y261648D01*
X155397Y262190D01*
X154983Y262744D01*
X154582Y263307D01*
X154196Y263879D01*
X153823Y264461D01*
X153465Y265052D01*
X153121Y265652D01*
X152792Y266259D01*
X152478Y266875D01*
X152180Y267498D01*
X151896Y268128D01*
X151628Y268765D01*
X151376Y269408D01*
X151140Y270057D01*
X150919Y270712D01*
X150715Y271372D01*
X150526Y272037D01*
X150354Y272706D01*
X150199Y273380D01*
X150060Y274056D01*
X149938Y274736D01*
X149832Y275419D01*
X149743Y276105D01*
X149671Y276792D01*
X149615Y277480D01*
X149577Y278170D01*
X149555Y278861D01*
X149550Y279552D01*
X149563Y280243D01*
X149592Y280933D01*
X149638Y281623D01*
X149700Y282311D01*
X149780Y282997D01*
X149876Y283681D01*
X149989Y284363D01*
X150119Y285042D01*
X150265Y285717D01*
X150428Y286388D01*
X150607Y287056D01*
X150803Y287719D01*
X151014Y288376D01*
X151242Y289029D01*
X151485Y289675D01*
X151744Y290316D01*
X152019Y290950D01*
X152309Y291577D01*
X152615Y292197D01*
X152935Y292809D01*
X153271Y293413D01*
X153621Y294009D01*
X153985Y294596D01*
X154364Y295174D01*
X154757Y295742D01*
X155163Y296301D01*
X155583Y296849D01*
X156017Y297388D01*
X156463Y297915D01*
X156922Y298431D01*
X157394Y298936D01*
X157878Y299429D01*
X158374Y299911D01*
X158881Y300380D01*
X159400Y300836D01*
X159930Y301280D01*
X160470Y301710D01*
X161021Y302127D01*
X161582Y302531D01*
X162153Y302921D01*
X162733Y303296D01*
X163321Y303658D01*
X163919Y304005D01*
X164525Y304337D01*
X165139Y304654D01*
X165760Y304956D01*
X166389Y305243D01*
X167024Y305514D01*
X167666Y305770D01*
X168314Y306010D01*
X168968Y306234D01*
X169627Y306442D01*
X170291Y306634D01*
X170959Y306809D01*
X171631Y306968D01*
X172307Y307111D01*
X172987Y307237D01*
X173669Y307346D01*
X174354Y307439D01*
X175041Y307515D01*
X175729Y307574D01*
X176419Y307616D01*
X177109Y307642D01*
X177800Y307650D01*
X190114Y253975D02*
X165486Y253975D01*
X203746Y297846D02*
X203746Y305346D01*
X207496Y301596D02*
X199996Y301596D01*
X225750Y355600D02*
X225758Y356291D01*
X225784Y356981D01*
X225826Y357671D01*
X225885Y358359D01*
X225961Y359046D01*
X226054Y359731D01*
X226163Y360413D01*
X226289Y361093D01*
X226432Y361769D01*
X226591Y362441D01*
X226766Y363109D01*
X226958Y363773D01*
X227166Y364432D01*
X227390Y365086D01*
X227630Y365734D01*
X227886Y366376D01*
X228157Y367011D01*
X228444Y367640D01*
X228746Y368261D01*
X229063Y368875D01*
X229395Y369481D01*
X229742Y370079D01*
X230104Y370667D01*
X230479Y371247D01*
X230869Y371818D01*
X231273Y372379D01*
X231690Y372930D01*
X232120Y373470D01*
X232564Y374000D01*
X233020Y374519D01*
X233489Y375026D01*
X233971Y375522D01*
X234464Y376006D01*
X234969Y376478D01*
X235485Y376937D01*
X236012Y377383D01*
X236551Y377817D01*
X237099Y378237D01*
X237658Y378643D01*
X238226Y379036D01*
X238804Y379415D01*
X239391Y379779D01*
X239987Y380129D01*
X240591Y380465D01*
X241203Y380785D01*
X241823Y381091D01*
X242450Y381381D01*
X243084Y381656D01*
X243725Y381915D01*
X244371Y382158D01*
X245024Y382386D01*
X245681Y382597D01*
X246344Y382793D01*
X247012Y382972D01*
X247683Y383135D01*
X248358Y383281D01*
X249037Y383411D01*
X249719Y383524D01*
X250403Y383620D01*
X251089Y383700D01*
X251777Y383762D01*
X252467Y383808D01*
X253157Y383837D01*
X253848Y383850D01*
X254539Y383845D01*
X255230Y383823D01*
X255920Y383785D01*
X256608Y383729D01*
X257295Y383657D01*
X257981Y383568D01*
X258664Y383462D01*
X259344Y383340D01*
X260020Y383201D01*
X260694Y383046D01*
X261363Y382874D01*
X262028Y382685D01*
X262688Y382481D01*
X263343Y382260D01*
X263992Y382024D01*
X264635Y381772D01*
X265272Y381504D01*
X265902Y381220D01*
X266525Y380922D01*
X267141Y380608D01*
X267748Y380279D01*
X268348Y379935D01*
X268939Y379577D01*
X269521Y379204D01*
X270093Y378818D01*
X270656Y378417D01*
X271210Y378003D01*
X271752Y377575D01*
X272284Y377135D01*
X272806Y376681D01*
X273316Y376215D01*
X273814Y375736D01*
X274301Y375246D01*
X274775Y374743D01*
X275237Y374229D01*
X275686Y373704D01*
X276122Y373169D01*
X276546Y372622D01*
X276955Y372066D01*
X277351Y371500D01*
X277733Y370924D01*
X278101Y370339D01*
X278454Y369745D01*
X278792Y369142D01*
X279116Y368532D01*
X279425Y367914D01*
X279425Y343286D02*
X279116Y342668D01*
X278792Y342058D01*
X278454Y341455D01*
X278101Y340861D01*
X277733Y340276D01*
X277351Y339700D01*
X276955Y339134D01*
X276546Y338578D01*
X276122Y338031D01*
X275686Y337496D01*
X275237Y336971D01*
X274775Y336457D01*
X274301Y335954D01*
X273814Y335464D01*
X273316Y334985D01*
X272806Y334519D01*
X272284Y334065D01*
X271752Y333625D01*
X271210Y333197D01*
X270656Y332783D01*
X270093Y332382D01*
X269521Y331996D01*
X268939Y331623D01*
X268348Y331265D01*
X267748Y330921D01*
X267141Y330592D01*
X266525Y330278D01*
X265902Y329980D01*
X265272Y329696D01*
X264635Y329428D01*
X263992Y329176D01*
X263343Y328940D01*
X262688Y328719D01*
X262028Y328515D01*
X261363Y328326D01*
X260694Y328154D01*
X260020Y327999D01*
X259344Y327860D01*
X258664Y327738D01*
X257981Y327632D01*
X257295Y327543D01*
X256608Y327471D01*
X255920Y327415D01*
X255230Y327377D01*
X254539Y327355D01*
X253848Y327350D01*
X253157Y327363D01*
X252467Y327392D01*
X251777Y327438D01*
X251089Y327500D01*
X250403Y327580D01*
X249719Y327676D01*
X249037Y327789D01*
X248358Y327919D01*
X247683Y328065D01*
X247012Y328228D01*
X246344Y328407D01*
X245681Y328603D01*
X245024Y328814D01*
X244371Y329042D01*
X243725Y329285D01*
X243084Y329544D01*
X242450Y329819D01*
X241823Y330109D01*
X241203Y330415D01*
X240591Y330735D01*
X239987Y331071D01*
X239391Y331421D01*
X238804Y331785D01*
X238226Y332164D01*
X237658Y332557D01*
X237099Y332963D01*
X236551Y333383D01*
X236012Y333817D01*
X235485Y334263D01*
X234969Y334722D01*
X234464Y335194D01*
X233971Y335678D01*
X233489Y336174D01*
X233020Y336681D01*
X232564Y337200D01*
X232120Y337730D01*
X231690Y338270D01*
X231273Y338821D01*
X230869Y339382D01*
X230479Y339953D01*
X230104Y340533D01*
X229742Y341121D01*
X229395Y341719D01*
X229063Y342325D01*
X228746Y342939D01*
X228444Y343560D01*
X228157Y344189D01*
X227886Y344824D01*
X227630Y345466D01*
X227390Y346114D01*
X227166Y346768D01*
X226958Y347427D01*
X226766Y348091D01*
X226591Y348759D01*
X226432Y349431D01*
X226289Y350107D01*
X226163Y350787D01*
X226054Y351469D01*
X225961Y352154D01*
X225885Y352841D01*
X225826Y353529D01*
X225784Y354219D01*
X225758Y354909D01*
X225750Y355600D01*
X279425Y367914D02*
X279425Y343286D01*
X235554Y381546D02*
X228054Y381546D01*
X231804Y385296D02*
X231804Y377796D01*
D11*
X311200Y178800D02*
X311200Y144800D01*
X311621Y144344D01*
X312053Y143897D01*
X312496Y143462D01*
X312950Y143038D01*
X313414Y142624D01*
X313888Y142223D01*
X314371Y141833D01*
X314864Y141454D01*
X315366Y141089D01*
X315877Y140735D01*
X316396Y140394D01*
X316924Y140066D01*
X317459Y139751D01*
X318002Y139449D01*
X318552Y139160D01*
X319109Y138885D01*
X319672Y138624D01*
X320242Y138376D01*
X320818Y138142D01*
X321399Y137923D01*
X321985Y137718D01*
X322577Y137527D01*
X323172Y137351D01*
X323772Y137189D01*
X324376Y137043D01*
X324983Y136911D01*
X325593Y136793D01*
X326206Y136691D01*
X326821Y136604D01*
X327438Y136532D01*
X328056Y136475D01*
X328676Y136433D01*
X329297Y136406D01*
X329918Y136395D01*
X330539Y136398D01*
X331160Y136417D01*
X331780Y136451D01*
X332400Y136500D01*
X333018Y136564D01*
X333634Y136644D01*
X334248Y136738D01*
X334859Y136848D01*
X335468Y136972D01*
X336073Y137111D01*
X336675Y137265D01*
X337273Y137434D01*
X337867Y137617D01*
X338456Y137814D01*
X339040Y138026D01*
X339618Y138252D01*
X340191Y138493D01*
X340758Y138747D01*
X341318Y139015D01*
X341872Y139296D01*
X342419Y139591D01*
X342958Y139900D01*
X343490Y140221D01*
X344013Y140555D01*
X344528Y140902D01*
X345035Y141262D01*
X345533Y141634D01*
X346021Y142018D01*
X346500Y142413D01*
X346969Y142821D01*
X347428Y143239D01*
X347877Y143669D01*
X348315Y144109D01*
X348742Y144561D01*
X349158Y145022D01*
X349562Y145493D01*
X349955Y145975D01*
X350336Y146465D01*
X350705Y146965D01*
X351062Y147474D01*
X351406Y147991D01*
X351737Y148517D01*
X352055Y149050D01*
X352360Y149591D01*
X352652Y150140D01*
X352931Y150695D01*
X353195Y151257D01*
X353446Y151825D01*
X353683Y152400D01*
X353906Y152980D01*
X354114Y153565D01*
X354308Y154155D01*
X354488Y154750D01*
X354653Y155348D01*
X354804Y155951D01*
X354939Y156557D01*
X355060Y157167D01*
X355166Y157779D01*
X355257Y158393D01*
X355332Y159010D01*
X355393Y159628D01*
X355439Y160248D01*
X355469Y160868D01*
X355484Y161489D01*
X355484Y162111D01*
X355469Y162732D01*
X355439Y163352D01*
X355393Y163972D01*
X355332Y164590D01*
X355257Y165207D01*
X355166Y165821D01*
X355060Y166433D01*
X354939Y167043D01*
X354804Y167649D01*
X354653Y168252D01*
X354488Y168850D01*
X354308Y169445D01*
X354114Y170035D01*
X353906Y170620D01*
X353683Y171200D01*
X353446Y171775D01*
X353195Y172343D01*
X352931Y172905D01*
X352652Y173460D01*
X352360Y174009D01*
X352055Y174550D01*
X351737Y175083D01*
X351406Y175609D01*
X351062Y176126D01*
X350705Y176635D01*
X350336Y177135D01*
X349955Y177625D01*
X349562Y178107D01*
X349158Y178578D01*
X348742Y179039D01*
X348315Y179491D01*
X347877Y179931D01*
X347428Y180361D01*
X346969Y180779D01*
X346500Y181187D01*
X346021Y181582D01*
X345533Y181966D01*
X345035Y182338D01*
X344528Y182698D01*
X344013Y183045D01*
X343490Y183379D01*
X342958Y183700D01*
X342419Y184009D01*
X341872Y184304D01*
X341318Y184585D01*
X340758Y184853D01*
X340191Y185107D01*
X339618Y185348D01*
X339040Y185574D01*
X338456Y185786D01*
X337867Y185983D01*
X337273Y186166D01*
X336675Y186335D01*
X336073Y186489D01*
X335468Y186628D01*
X334859Y186752D01*
X334248Y186862D01*
X333634Y186956D01*
X333018Y187036D01*
X332400Y187100D01*
X331780Y187149D01*
X331160Y187183D01*
X330539Y187202D01*
X329918Y187205D01*
X329297Y187194D01*
X328676Y187167D01*
X328056Y187125D01*
X327438Y187068D01*
X326821Y186996D01*
X326206Y186909D01*
X325593Y186807D01*
X324983Y186689D01*
X324376Y186557D01*
X323772Y186411D01*
X323172Y186249D01*
X322577Y186073D01*
X321985Y185882D01*
X321399Y185677D01*
X320818Y185458D01*
X320242Y185224D01*
X319672Y184976D01*
X319109Y184715D01*
X318552Y184440D01*
X318002Y184151D01*
X317459Y183849D01*
X316924Y183534D01*
X316396Y183206D01*
X315877Y182865D01*
X315366Y182511D01*
X314864Y182146D01*
X314371Y181767D01*
X313888Y181377D01*
X313414Y180976D01*
X312950Y180562D01*
X312496Y180138D01*
X312053Y179703D01*
X311621Y179256D01*
X311200Y178800D01*
X247600Y194800D02*
X247600Y160800D01*
X247179Y160344D01*
X246747Y159897D01*
X246304Y159462D01*
X245850Y159038D01*
X245386Y158624D01*
X244912Y158223D01*
X244429Y157833D01*
X243936Y157454D01*
X243434Y157089D01*
X242923Y156735D01*
X242404Y156394D01*
X241876Y156066D01*
X241341Y155751D01*
X240798Y155449D01*
X240248Y155160D01*
X239691Y154885D01*
X239128Y154624D01*
X238558Y154376D01*
X237982Y154142D01*
X237401Y153923D01*
X236815Y153718D01*
X236223Y153527D01*
X235628Y153351D01*
X235028Y153189D01*
X234424Y153043D01*
X233817Y152911D01*
X233207Y152793D01*
X232594Y152691D01*
X231979Y152604D01*
X231362Y152532D01*
X230744Y152475D01*
X230124Y152433D01*
X229503Y152406D01*
X228882Y152395D01*
X228261Y152398D01*
X227640Y152417D01*
X227020Y152451D01*
X226400Y152500D01*
X225782Y152564D01*
X225166Y152644D01*
X224552Y152738D01*
X223941Y152848D01*
X223332Y152972D01*
X222727Y153111D01*
X222125Y153265D01*
X221527Y153434D01*
X220933Y153617D01*
X220344Y153814D01*
X219760Y154026D01*
X219182Y154252D01*
X218609Y154493D01*
X218042Y154747D01*
X217482Y155015D01*
X216928Y155296D01*
X216381Y155591D01*
X215842Y155900D01*
X215310Y156221D01*
X214787Y156555D01*
X214272Y156902D01*
X213765Y157262D01*
X213267Y157634D01*
X212779Y158018D01*
X212300Y158413D01*
X211831Y158821D01*
X211372Y159239D01*
X210923Y159669D01*
X210485Y160109D01*
X210058Y160561D01*
X209642Y161022D01*
X209238Y161493D01*
X208845Y161975D01*
X208464Y162465D01*
X208095Y162965D01*
X207738Y163474D01*
X207394Y163991D01*
X207063Y164517D01*
X206745Y165050D01*
X206440Y165591D01*
X206148Y166140D01*
X205869Y166695D01*
X205605Y167257D01*
X205354Y167825D01*
X205117Y168400D01*
X204894Y168980D01*
X204686Y169565D01*
X204492Y170155D01*
X204312Y170750D01*
X204147Y171348D01*
X203996Y171951D01*
X203861Y172557D01*
X203740Y173167D01*
X203634Y173779D01*
X203543Y174393D01*
X203468Y175010D01*
X203407Y175628D01*
X203361Y176248D01*
X203331Y176868D01*
X203316Y177489D01*
X203316Y178111D01*
X203331Y178732D01*
X203361Y179352D01*
X203407Y179972D01*
X203468Y180590D01*
X203543Y181207D01*
X203634Y181821D01*
X203740Y182433D01*
X203861Y183043D01*
X203996Y183649D01*
X204147Y184252D01*
X204312Y184850D01*
X204492Y185445D01*
X204686Y186035D01*
X204894Y186620D01*
X205117Y187200D01*
X205354Y187775D01*
X205605Y188343D01*
X205869Y188905D01*
X206148Y189460D01*
X206440Y190009D01*
X206745Y190550D01*
X207063Y191083D01*
X207394Y191609D01*
X207738Y192126D01*
X208095Y192635D01*
X208464Y193135D01*
X208845Y193625D01*
X209238Y194107D01*
X209642Y194578D01*
X210058Y195039D01*
X210485Y195491D01*
X210923Y195931D01*
X211372Y196361D01*
X211831Y196779D01*
X212300Y197187D01*
X212779Y197582D01*
X213267Y197966D01*
X213765Y198338D01*
X214272Y198698D01*
X214787Y199045D01*
X215310Y199379D01*
X215842Y199700D01*
X216381Y200009D01*
X216928Y200304D01*
X217482Y200585D01*
X218042Y200853D01*
X218609Y201107D01*
X219182Y201348D01*
X219760Y201574D01*
X220344Y201786D01*
X220933Y201983D01*
X221527Y202166D01*
X222125Y202335D01*
X222727Y202489D01*
X223332Y202628D01*
X223941Y202752D01*
X224552Y202862D01*
X225166Y202956D01*
X225782Y203036D01*
X226400Y203100D01*
X227020Y203149D01*
X227640Y203183D01*
X228261Y203202D01*
X228882Y203205D01*
X229503Y203194D01*
X230124Y203167D01*
X230744Y203125D01*
X231362Y203068D01*
X231979Y202996D01*
X232594Y202909D01*
X233207Y202807D01*
X233817Y202689D01*
X234424Y202557D01*
X235028Y202411D01*
X235628Y202249D01*
X236223Y202073D01*
X236815Y201882D01*
X237401Y201677D01*
X237982Y201458D01*
X238558Y201224D01*
X239128Y200976D01*
X239691Y200715D01*
X240248Y200440D01*
X240798Y200151D01*
X241341Y199849D01*
X241876Y199534D01*
X242404Y199206D01*
X242923Y198865D01*
X243434Y198511D01*
X243936Y198146D01*
X244429Y197767D01*
X244912Y197377D01*
X245386Y196976D01*
X245850Y196562D01*
X246304Y196138D01*
X246747Y195703D01*
X247179Y195256D01*
X247600Y194800D01*
D12*
X187950Y168900D02*
X167650Y168900D01*
X187950Y168900D02*
X187950Y212100D01*
X167650Y212100D01*
X167650Y168900D01*
X177800Y168900D02*
X177800Y163140D01*
X177800Y212100D02*
X177800Y217860D01*
X218450Y232400D02*
X238750Y232400D01*
X238750Y275600D01*
X218450Y275600D01*
X218450Y232400D01*
X228600Y232400D02*
X228600Y226640D01*
X228600Y275600D02*
X228600Y281360D01*
X313700Y238750D02*
X313700Y218450D01*
X313700Y238750D02*
X270500Y238750D01*
X270500Y218450D01*
X313700Y218450D01*
X313700Y228600D02*
X319460Y228600D01*
X270500Y228600D02*
X264740Y228600D01*
X308600Y213350D02*
X308600Y193050D01*
X351800Y193050D01*
X351800Y213350D01*
X308600Y213350D01*
X308600Y203200D02*
X302840Y203200D01*
X351800Y203200D02*
X357560Y203200D01*
D11*
X189500Y330200D02*
X189504Y330536D01*
X189517Y330872D01*
X189537Y331208D01*
X189566Y331543D01*
X189603Y331877D01*
X189648Y332210D01*
X189702Y332542D01*
X189763Y332873D01*
X189833Y333202D01*
X189911Y333529D01*
X189996Y333854D01*
X190090Y334177D01*
X190191Y334497D01*
X190301Y334815D01*
X190418Y335131D01*
X190543Y335443D01*
X190675Y335752D01*
X190815Y336058D01*
X190963Y336360D01*
X191118Y336658D01*
X191280Y336953D01*
X191449Y337243D01*
X191626Y337529D01*
X191809Y337811D01*
X191999Y338089D01*
X192196Y338361D01*
X192400Y338629D01*
X192610Y338891D01*
X192826Y339148D01*
X193049Y339400D01*
X193278Y339647D01*
X193513Y339887D01*
X193753Y340122D01*
X194000Y340351D01*
X194252Y340574D01*
X194509Y340790D01*
X194771Y341000D01*
X195039Y341204D01*
X195311Y341401D01*
X195589Y341591D01*
X195871Y341774D01*
X196157Y341951D01*
X196447Y342120D01*
X196742Y342282D01*
X197040Y342437D01*
X197342Y342585D01*
X197648Y342725D01*
X197957Y342857D01*
X198269Y342982D01*
X198585Y343099D01*
X198903Y343209D01*
X199223Y343310D01*
X199546Y343404D01*
X199871Y343489D01*
X200198Y343567D01*
X200527Y343637D01*
X200858Y343698D01*
X201190Y343752D01*
X201523Y343797D01*
X201857Y343834D01*
X202192Y343863D01*
X202528Y343883D01*
X202864Y343896D01*
X203200Y343900D01*
X203536Y343896D01*
X203872Y343883D01*
X204208Y343863D01*
X204543Y343834D01*
X204877Y343797D01*
X205210Y343752D01*
X205542Y343698D01*
X205873Y343637D01*
X206202Y343567D01*
X206529Y343489D01*
X206854Y343404D01*
X207177Y343310D01*
X207497Y343209D01*
X207815Y343099D01*
X208131Y342982D01*
X208443Y342857D01*
X208752Y342725D01*
X209058Y342585D01*
X209360Y342437D01*
X209658Y342282D01*
X209953Y342120D01*
X210243Y341951D01*
X210529Y341774D01*
X210811Y341591D01*
X211089Y341401D01*
X211361Y341204D01*
X211629Y341000D01*
X211891Y340790D01*
X212148Y340574D01*
X212400Y340351D01*
X212647Y340122D01*
X212887Y339887D01*
X213122Y339647D01*
X213351Y339400D01*
X213574Y339148D01*
X213790Y338891D01*
X214000Y338629D01*
X214204Y338361D01*
X214401Y338089D01*
X214591Y337811D01*
X214774Y337529D01*
X214951Y337243D01*
X215120Y336953D01*
X215282Y336658D01*
X215437Y336360D01*
X215585Y336058D01*
X215725Y335752D01*
X215857Y335443D01*
X215982Y335131D01*
X216099Y334815D01*
X216209Y334497D01*
X216310Y334177D01*
X216404Y333854D01*
X216489Y333529D01*
X216567Y333202D01*
X216637Y332873D01*
X216698Y332542D01*
X216752Y332210D01*
X216797Y331877D01*
X216834Y331543D01*
X216863Y331208D01*
X216883Y330872D01*
X216896Y330536D01*
X216900Y330200D01*
X216896Y329864D01*
X216883Y329528D01*
X216863Y329192D01*
X216834Y328857D01*
X216797Y328523D01*
X216752Y328190D01*
X216698Y327858D01*
X216637Y327527D01*
X216567Y327198D01*
X216489Y326871D01*
X216404Y326546D01*
X216310Y326223D01*
X216209Y325903D01*
X216099Y325585D01*
X215982Y325269D01*
X215857Y324957D01*
X215725Y324648D01*
X215585Y324342D01*
X215437Y324040D01*
X215282Y323742D01*
X215120Y323447D01*
X214951Y323157D01*
X214774Y322871D01*
X214591Y322589D01*
X214401Y322311D01*
X214204Y322039D01*
X214000Y321771D01*
X213790Y321509D01*
X213574Y321252D01*
X213351Y321000D01*
X213122Y320753D01*
X212887Y320513D01*
X212647Y320278D01*
X212400Y320049D01*
X212148Y319826D01*
X211891Y319610D01*
X211629Y319400D01*
X211361Y319196D01*
X211089Y318999D01*
X210811Y318809D01*
X210529Y318626D01*
X210243Y318449D01*
X209953Y318280D01*
X209658Y318118D01*
X209360Y317963D01*
X209058Y317815D01*
X208752Y317675D01*
X208443Y317543D01*
X208131Y317418D01*
X207815Y317301D01*
X207497Y317191D01*
X207177Y317090D01*
X206854Y316996D01*
X206529Y316911D01*
X206202Y316833D01*
X205873Y316763D01*
X205542Y316702D01*
X205210Y316648D01*
X204877Y316603D01*
X204543Y316566D01*
X204208Y316537D01*
X203872Y316517D01*
X203536Y316504D01*
X203200Y316500D01*
X202864Y316504D01*
X202528Y316517D01*
X202192Y316537D01*
X201857Y316566D01*
X201523Y316603D01*
X201190Y316648D01*
X200858Y316702D01*
X200527Y316763D01*
X200198Y316833D01*
X199871Y316911D01*
X199546Y316996D01*
X199223Y317090D01*
X198903Y317191D01*
X198585Y317301D01*
X198269Y317418D01*
X197957Y317543D01*
X197648Y317675D01*
X197342Y317815D01*
X197040Y317963D01*
X196742Y318118D01*
X196447Y318280D01*
X196157Y318449D01*
X195871Y318626D01*
X195589Y318809D01*
X195311Y318999D01*
X195039Y319196D01*
X194771Y319400D01*
X194509Y319610D01*
X194252Y319826D01*
X194000Y320049D01*
X193753Y320278D01*
X193513Y320513D01*
X193278Y320753D01*
X193049Y321000D01*
X192826Y321252D01*
X192610Y321509D01*
X192400Y321771D01*
X192196Y322039D01*
X191999Y322311D01*
X191809Y322589D01*
X191626Y322871D01*
X191449Y323157D01*
X191280Y323447D01*
X191118Y323742D01*
X190963Y324040D01*
X190815Y324342D01*
X190675Y324648D01*
X190543Y324957D01*
X190418Y325269D01*
X190301Y325585D01*
X190191Y325903D01*
X190090Y326223D01*
X189996Y326546D01*
X189911Y326871D01*
X189833Y327198D01*
X189763Y327527D01*
X189702Y327858D01*
X189648Y328190D01*
X189603Y328523D01*
X189566Y328857D01*
X189537Y329192D01*
X189517Y329528D01*
X189504Y329864D01*
X189500Y330200D01*
X262400Y161860D02*
X262405Y162277D01*
X262420Y162694D01*
X262446Y163111D01*
X262482Y163526D01*
X262528Y163941D01*
X262584Y164354D01*
X262650Y164766D01*
X262727Y165177D01*
X262813Y165585D01*
X262909Y165991D01*
X263016Y166394D01*
X263132Y166795D01*
X263258Y167193D01*
X263394Y167587D01*
X263539Y167978D01*
X263694Y168366D01*
X263858Y168749D01*
X264032Y169128D01*
X264215Y169503D01*
X264407Y169874D01*
X264609Y170239D01*
X264819Y170600D01*
X265037Y170955D01*
X265265Y171305D01*
X265501Y171649D01*
X265745Y171987D01*
X265998Y172319D01*
X266259Y172645D01*
X266527Y172964D01*
X266804Y173277D01*
X267088Y173582D01*
X267379Y173881D01*
X267678Y174172D01*
X267983Y174456D01*
X268296Y174733D01*
X268615Y175001D01*
X268941Y175262D01*
X269273Y175515D01*
X269611Y175759D01*
X269955Y175995D01*
X270305Y176223D01*
X270660Y176441D01*
X271021Y176651D01*
X271386Y176853D01*
X271757Y177045D01*
X272132Y177228D01*
X272511Y177402D01*
X272894Y177566D01*
X273282Y177721D01*
X273673Y177866D01*
X274067Y178002D01*
X274465Y178128D01*
X274866Y178244D01*
X275269Y178351D01*
X275675Y178447D01*
X276083Y178533D01*
X276494Y178610D01*
X276906Y178676D01*
X277319Y178732D01*
X277734Y178778D01*
X278149Y178814D01*
X278566Y178840D01*
X278983Y178855D01*
X279400Y178860D01*
X279817Y178855D01*
X280234Y178840D01*
X280651Y178814D01*
X281066Y178778D01*
X281481Y178732D01*
X281894Y178676D01*
X282306Y178610D01*
X282717Y178533D01*
X283125Y178447D01*
X283531Y178351D01*
X283934Y178244D01*
X284335Y178128D01*
X284733Y178002D01*
X285127Y177866D01*
X285518Y177721D01*
X285906Y177566D01*
X286289Y177402D01*
X286668Y177228D01*
X287043Y177045D01*
X287414Y176853D01*
X287779Y176651D01*
X288140Y176441D01*
X288495Y176223D01*
X288845Y175995D01*
X289189Y175759D01*
X289527Y175515D01*
X289859Y175262D01*
X290185Y175001D01*
X290504Y174733D01*
X290817Y174456D01*
X291122Y174172D01*
X291421Y173881D01*
X291712Y173582D01*
X291996Y173277D01*
X292273Y172964D01*
X292541Y172645D01*
X292802Y172319D01*
X293055Y171987D01*
X293299Y171649D01*
X293535Y171305D01*
X293763Y170955D01*
X293981Y170600D01*
X294191Y170239D01*
X294393Y169874D01*
X294585Y169503D01*
X294768Y169128D01*
X294942Y168749D01*
X295106Y168366D01*
X295261Y167978D01*
X295406Y167587D01*
X295542Y167193D01*
X295668Y166795D01*
X295784Y166394D01*
X295891Y165991D01*
X295987Y165585D01*
X296073Y165177D01*
X296150Y164766D01*
X296216Y164354D01*
X296272Y163941D01*
X296318Y163526D01*
X296354Y163111D01*
X296380Y162694D01*
X296395Y162277D01*
X296400Y161860D01*
X296395Y161443D01*
X296380Y161026D01*
X296354Y160609D01*
X296318Y160194D01*
X296272Y159779D01*
X296216Y159366D01*
X296150Y158954D01*
X296073Y158543D01*
X295987Y158135D01*
X295891Y157729D01*
X295784Y157326D01*
X295668Y156925D01*
X295542Y156527D01*
X295406Y156133D01*
X295261Y155742D01*
X295106Y155354D01*
X294942Y154971D01*
X294768Y154592D01*
X294585Y154217D01*
X294393Y153846D01*
X294191Y153481D01*
X293981Y153120D01*
X293763Y152765D01*
X293535Y152415D01*
X293299Y152071D01*
X293055Y151733D01*
X292802Y151401D01*
X292541Y151075D01*
X292273Y150756D01*
X291996Y150443D01*
X291712Y150138D01*
X291421Y149839D01*
X291122Y149548D01*
X290817Y149264D01*
X290504Y148987D01*
X290185Y148719D01*
X289859Y148458D01*
X289527Y148205D01*
X289189Y147961D01*
X288845Y147725D01*
X288495Y147497D01*
X288140Y147279D01*
X287779Y147069D01*
X287414Y146867D01*
X287043Y146675D01*
X286668Y146492D01*
X286289Y146318D01*
X285906Y146154D01*
X285518Y145999D01*
X285127Y145854D01*
X284733Y145718D01*
X284335Y145592D01*
X283934Y145476D01*
X283531Y145369D01*
X283125Y145273D01*
X282717Y145187D01*
X282306Y145110D01*
X281894Y145044D01*
X281481Y144988D01*
X281066Y144942D01*
X280651Y144906D01*
X280234Y144880D01*
X279817Y144865D01*
X279400Y144860D01*
X278983Y144865D01*
X278566Y144880D01*
X278149Y144906D01*
X277734Y144942D01*
X277319Y144988D01*
X276906Y145044D01*
X276494Y145110D01*
X276083Y145187D01*
X275675Y145273D01*
X275269Y145369D01*
X274866Y145476D01*
X274465Y145592D01*
X274067Y145718D01*
X273673Y145854D01*
X273282Y145999D01*
X272894Y146154D01*
X272511Y146318D01*
X272132Y146492D01*
X271757Y146675D01*
X271386Y146867D01*
X271021Y147069D01*
X270660Y147279D01*
X270305Y147497D01*
X269955Y147725D01*
X269611Y147961D01*
X269273Y148205D01*
X268941Y148458D01*
X268615Y148719D01*
X268296Y148987D01*
X267983Y149264D01*
X267678Y149548D01*
X267379Y149839D01*
X267088Y150138D01*
X266804Y150443D01*
X266527Y150756D01*
X266259Y151075D01*
X265998Y151401D01*
X265745Y151733D01*
X265501Y152071D01*
X265265Y152415D01*
X265037Y152765D01*
X264819Y153120D01*
X264609Y153481D01*
X264407Y153846D01*
X264215Y154217D01*
X264032Y154592D01*
X263858Y154971D01*
X263694Y155354D01*
X263539Y155742D01*
X263394Y156133D01*
X263258Y156527D01*
X263132Y156925D01*
X263016Y157326D01*
X262909Y157729D01*
X262813Y158135D01*
X262727Y158543D01*
X262650Y158954D01*
X262584Y159366D01*
X262528Y159779D01*
X262482Y160194D01*
X262446Y160609D01*
X262420Y161026D01*
X262405Y161443D01*
X262400Y161860D01*
M02*
